<?xml version="1.0" standalone="no"?>
<!DOCTYPE svg PUBLIC "-//W3C//DTD SVG 1.1//EN" "http://www.w3.org/Graphics/SVG/1.1/DTD/svg11.dtd" >
<svg xmlns="http://www.w3.org/2000/svg" xmlns:xlink="http://www.w3.org/1999/xlink" version="1.1">
<metadata></metadata>
<defs>
<font id="astlochbold" horiz-adv-x="1554" >
<font-face units-per-em="2048" ascent="1696" descent="-352" />
<missing-glyph horiz-adv-x="500" />
<glyph horiz-adv-x="0" />
<glyph unicode="&#xd;" horiz-adv-x="682" />
<glyph unicode=" "  horiz-adv-x="500" />
<glyph unicode="&#x09;" horiz-adv-x="500" />
<glyph unicode="&#xa0;" horiz-adv-x="500" />
<glyph unicode="!" horiz-adv-x="470" d="M126 -57l29 393l171 -11l-30 -393zM155 418v1121h171v-1121h-171z" />
<glyph unicode="&#x22;" horiz-adv-x="678" d="M104 957v611h170v-611h-170zM403 957v611h171v-611h-171z" />
<glyph unicode="#" horiz-adv-x="1105" d="M69 454l22 171h190l33 263h-190l21 171h190l42 331h171l-42 -331h169l42 331h170l-42 -331h189l-22 -171h-188l-33 -263h189l-22 -171h-187l-43 -332h-170l42 332h-169l-42 -332h-170l42 332h-192zM452 625h169l32 263h-169z" />
<glyph unicode="$" horiz-adv-x="983" d="M56 882l338 301l69 -85v132h-183q16 75 65 132.5t118 86.5v167h160v-146q112 -16 189 -102.5t77 -202.5q1 -159 -129 -251q-40 -28 -87 -43q127 -121 169 -277q14 -52 14 -107t-14 -113t-42 -112q-60 -114 -177 -188v-208h-160v135l-181 131q-162 117 -162 268 q0 88 77 178l110 -126q-18 -25 -18 -50t9.5 -48.5t25.5 -43.5t38 -38l101 -82v392l-101 -76zM288 871l102 -135l164 122q-105 10 -183 81zM623 300q63 91 63 191q0 90 -63 172v-363zM623 1036q42 13 68.5 48t26.5 80.5t-26.5 81t-68.5 48.5v-258z" />
<glyph unicode="%" horiz-adv-x="1602" d="M90 452v510q0 170 123 264l224 171q218 -143 218 -316v-205q0 -74 -19 -114q-34 -72 -104 -125l-325 -243zM260 644l172 125q54 39 54 107v205q0 56 -48 104l-124 -96q-54 -43 -54 -127v-318zM275 46l840 1326l135 -101l-837 -1319zM966 24v509q0 171 123 265l224 171 q219 -144 219 -316v-205q0 -147 -123 -240l-325 -242zM1137 215l171 125q54 39 54 108v205q0 56 -48 104l-124 -96q-53 -42 -53 -128v-318z" />
<glyph unicode="&#x26;" horiz-adv-x="1033" d="M80 302v173q0 169 137 276q-77 121 -77 226v121q0 173 123 265h-1l268 205q97 -65 136 -114q83 -101 83 -202v-138q0 -171 -109 -255l-185 -141l181 -243q150 127 158 246q2 37 2 79v112h170v-87q0 -67 -4 -126t-26 -117q-47 -123 -197 -246l29 -38q50 -68 78 -89 q51 -38 119 -38v-171q-157 0 -265 117q-34 36 -69 80l-25 32l-307 -244q-219 138 -219 317zM251 302q0 -57 45 -104l209 168l-186 249q-68 -56 -68 -140v-173zM311 977q1 -36 17 -65l29 -53l168 128q53 42 53 127v138q0 59 -45 104l-168 -130q-54 -43 -54 -128v-121z" />
<glyph unicode="'" horiz-adv-x="379" d="M104 956v611h171v-611h-171z" />
<glyph unicode="(" horiz-adv-x="565" d="M61 646q1 395 227 718q76 109 179 202l115 -128q-258 -233 -328 -579q-22 -107 -22 -215t22 -218q22 -111 66 -216q91 -219 260 -376l-116 -124q-192 179 -300 434q-103 244 -103 502z" />
<glyph unicode=")" horiz-adv-x="565" d="M-17 1438l115 128q300 -270 381 -672q25 -124 25 -249.5t-26 -253t-76 -247.5q-107 -254 -300 -434l-117 125q253 238 325 591q22 110 22.5 218t-21 215t-65.5 209q-92 216 -263 370z" />
<glyph unicode="*" horiz-adv-x="841" d="M76.5 876q0.5 72 73.5 114q-73 40 -73 125q-1 59 41 101t102 43q23 0 57 -12q10 50 48.5 83t78 33t63 -9t42.5 -25q39 -33 49 -84q30 14 60.5 14t56.5 -11q25 -12 45 -32q42 -42 43 -101q0 -85 -75 -125q75 -43 75 -126q-1 -60 -43 -102t-87.5 -41.5t-74.5 13.5 q-10 -49 -40 -73q-50 -41 -101.5 -41t-90 32t-49.5 80q-28 -11 -57.5 -11t-55.5 11q-26 10 -46 30q-42 42 -41.5 114zM110 1121q0 -108 146 -130q58 -9 125 -16q-103 -161 -160 -161q-25 0 -41 17.5t-16 46t28 44.5l-26 42q-52 -32 -52 -92q0 -45 23 -68q40 -40 84 -40 q33 0 67 23q55 37 130 162q60 -125 60 -188q0 -24 -17 -41t-41 -17t-41 17t-17 41h-50q0 -45 23 -68q40 -40 73.5 -40t53.5 8.5t34 22.5q32 32 32 84t-70 200q192 -19 216 -64q8 -14 7.5 -33.5t-17.5 -36t-36 -16.5t-35 9l-24 -44q24 -15 50.5 -15t46.5 9t34 24q31 33 31 68 q0 70 -45 96q-63 35 -229 50q97 161 164 161q25 0 41.5 -17t16.5 -45t-27 -45l26 -42q51 33 51 92q0 44 -24 67q-42 40 -77 40t-67 -19q-48 -28 -137 -166q-62 129 -62 189q0 25 17 42t41 17t41 -17t17 -42h50q0 46 -23 69q-40 40 -74 40t-53.5 -8.5t-33.5 -22.5 q-32 -32 -32 -92.5t69 -193.5q-186 16 -213 64q-8 14 -8 33.5t17.5 36t36 16.5t35.5 -9l24 44q-26 15 -52 15t-45.5 -9t-33.5 -24q-32 -33 -32 -68z" />
<glyph unicode="+" horiz-adv-x="1028" d="M65 609v170h363v363h171v-363h364v-170h-364v-362h-171v362h-363z" />
<glyph unicode="," horiz-adv-x="395" d="M80 -199q99 156 99 222q0 29 -19.5 50t-62.5 21v164q176 0 221 -130q14 -40 14 -97q0 -121 -118 -306z" />
<glyph unicode="-" horiz-adv-x="777" d="M107 481v175l564 142v-175z" />
<glyph unicode="." horiz-adv-x="383" d="M88 -57l29 393l171 -11l-30 -393z" />
<glyph unicode="/" horiz-adv-x="914" d="M39 -158l653 1721l158 -61l-646 -1703z" />
<glyph unicode="0" horiz-adv-x="826" d="M92 285v453q0 170 123 265l300 227q219 -144 219 -316v-453q0 -171 -123 -265l-301 -226q-102 66 -142 115q-76 94 -76 200zM263 285q0 -58 46 -104l200 152q54 43 54 128v453q0 57 -46 105l-200 -153q-54 -41 -54 -128v-453z" />
<glyph unicode="1" horiz-adv-x="608" d="M6 778q17 156 92 238q24 26 51 48l222 166l103 -53v-729q0 -199 -27 -303t-57 -175l-156 73q69 157 69 405v521l-45 -35q-64 -52 -80 -155z" />
<glyph unicode="2" horiz-adv-x="998" d="M74 891.5q0 70.5 30 132.5q28 62 84 108q119 98 313 97q169 1 277 -81q121 -91 121 -252q0 -171 -177 -299q-52 -37 -106 -71l-109 -67q-125 -75 -172.5 -130t-63.5 -104q78 0 172 -19q178 -36 260 -36q22 0 38 14.5t16 37t-16 38.5t-38 16l1 170q92 0 159 -66 q66 -65 66 -158q0 -94 -66 -158t-159 -64q-54 0 -146 19q-173 36 -285 36l22 -55h-184q-29 90 -29 159t28 133t73.5 115.5t103.5 92.5q59 42 119 78l118 72q127 76 177 150q28 42 28 94t-22 84q-23 31 -57 49q-61 32 -135 32q-141 0 -189 -28q81 -48 81 -142q0 -69 -49 -118 t-118 -49q-70 0 -118 49q-48 50 -48 120.5z" />
<glyph unicode="3" horiz-adv-x="911" d="M9 895q1 74 34 137q33 62 89 106q114 90 288 90q198 0 316 -120q108 -110 108 -261q0 -194 -151 -314q151 -76 151 -280q0 -277 -432 -486q-130 -63 -280 -120l-62 158q290 112 430 206q174 118 174 242q0 125 -129 151q-40 8 -88 10q-23 -8 -59 -18l-84 -23l-43 164 q301 83 375 207q28 46 28 94t-16.5 86t-48.5 68q-72 66 -189 66q-92 0 -152 -33q72 -52 72 -136q0 -69 -49 -118t-118 -49t-117 49q-48 50 -47 124z" />
<glyph unicode="4" horiz-adv-x="901" d="M16 197v107q0 87 46 187l381 756q185 -77 243 -213q20 -48 20 -107v-560h182v-170h-185q-11 -193 -75 -311q-88 -160 -289 -220l-43 165q188 55 224 251q10 56 13 115h-517zM197 367h338v560q0 50 -21 82q-309 -615 -317 -642z" />
<glyph unicode="5" horiz-adv-x="855" d="M-35 -192q305 103 489 249q192 153 192 308q0 97 -78 147q-69 44 -182 43h-343l88 675h596v-170h-444l-47 -335h150q307 0 398 -191q33 -69 33 -177t-58 -210q-59 -102 -163 -191q-201 -171 -567 -308z" />
<glyph unicode="6" horiz-adv-x="807" d="M102 315v677q0 158 118 312q118 155 322 263l84 -149q-252 -135 -330 -315q-24 -57 -24 -111v-56l249 186q99 -67 137 -114q82 -100 82 -201v-322q0 -174 -123 -265l-298 -220q-217 140 -217 315zM272 315q0 -57 47 -104l196 147q54 41 54 127v322q0 56 -48 104 l-194 -147q-55 -42 -55 -116v-333z" />
<glyph unicode="7" horiz-adv-x="835" d="M-28 1048q70 90 130 123q106 59 217 59h496q5 -321 -128 -570q-39 -71 -79 -138l-78 -135q-85 -150 -111 -279t-26 -209.5t3 -138.5l6 -112h-170q0 14 -2 38l-4 50q-4 60 -3.5 134t18 177t46.5 190t65 161q37 76 76 142l76 128q84 141 109 229.5t27 162.5h-321 q-68 0 -115.5 -28.5t-89.5 -79.5z" />
<glyph unicode="8" horiz-adv-x="879" d="M90 286v189q0 162 109 254q-81 91 -81 209v136q0 169 123 265l300 227q94 -64 135 -113q83 -100 83 -203v-136q0 -119 -59 -199q92 -92 92 -219v-189q0 -171 -123 -265l-359 -271q-102 62 -143 114q-77 96 -77 201zM261 286q0 -59 45 -104l262 197q53 40 53 128v189 q0 59 -45 104l-262 -198q-53 -38 -53 -127v-189zM288 938q0 -58 46 -104l200 153q54 41 54 127v136q0 60 -46 104l-200 -152q-54 -41 -54 -128v-136z" />
<glyph unicode="9" horiz-adv-x="813" d="M87 423v322q0 174 123 265l298 220q94 -63 134 -112q83 -99 83 -203v-692q0 -159 -118 -313q-118 -155 -322 -262l-84 149q161 85 259 203q95 115 95 223v71l-249 -186q-219 138 -219 315zM258 423q0 -56 48 -104l194 147q55 42 55 116v333q0 57 -47 104l-196 -147 q-54 -41 -54 -127v-322z" />
<glyph unicode=":" horiz-adv-x="496" d="M96 694l119 283l177 -72l-138 -263zM97 25l119 283l177 -72l-138 -263z" />
<glyph unicode=";" horiz-adv-x="491" d="M104 -136q99 156 99 222q0 29 -19.5 50t-62.5 21v164q176 -1 221 -131q14 -40 14 -96q0 -121 -118 -306zM109 694l118 283l177 -72l-137 -263z" />
<glyph unicode="&#x3c;" horiz-adv-x="849" d="M45 663l606 895l143 -94l-545 -802l541 -820l-142 -93z" />
<glyph unicode="=" horiz-adv-x="1128" d="M115 447v160h898v-160h-898zM115 740v160h898v-160h-898z" />
<glyph unicode="&#x3e;" horiz-adv-x="850" d="M56 1464l143 94l606 -895l-605 -915l-142 93l300 455v-1l243 367z" />
<glyph unicode="?" horiz-adv-x="886" d="M64 1242q0 64 28 122q26 59 76 104q109 99 272 99q165 0 272 -103q105 -101 105 -250q0 -192 -185 -312q-52 -34 -96 -58l-77 -43q-72 -41 -93 -75t-21 -60.5t8.5 -46.5t23.5 -35q32 -32 78 -32q45 0 69 24q40 40 41 86h166q0 -115 -82 -197t-197 -82t-196.5 81.5 t-81.5 196.5q0 167 174 273q48 30 92 52.5t80 46t64 51.5q63 62 63 130q0 74 -57 127q-59 55 -150 55q-90 0 -150 -47q-56 -44 -55 -104q0 -90 97 -90v-170q-184 1 -247 145q-21 48 -21 112zM349 -57l30 393l171 -11l-30 -393z" />
<glyph unicode="@" horiz-adv-x="1558" d="M70 780q0 192 97 358q145 248 423 326q90 26 189 25q191 0 357 -97q248 -146 326 -424q26 -90 26 -178t-16.5 -161t-46.5 -140q-59 -131 -169 -233q-133 27 -194 66t-98.5 78t-71.5 94l-202 -151q-161 29 -220 146q-21 42 -21 98v200q0 202 147 312l282 214 q-48 9 -129.5 9t-179.5 -42q-97 -42 -171 -116q-158 -158 -159 -383q0 -223 158.5 -381.5t381.5 -158.5q98 0 189 34l61 -158q-123 -46 -235.5 -46t-203 25.5t-169 71.5t-143.5 111t-111 143q-97 166 -97 358zM619 587q0 -39 32 -57l194 145v403l-140 -109q-86 -67 -86 -182 v-200zM1015 714q1 -177 121 -242q34 -18 67 -26q117 147 117 335q0 157 -85 291q-81 128 -220 196v-554z" />
<glyph unicode="A" d="M68 89q316 227 542 499q264 318 264 555q0 173 -182 231q-57 19 -132 19h-8q-230 0 -230 -134q0 -68 70 -141q30 -31 64 -62.5t64 -69.5q69 -89 69 -191q0 -98 -65.5 -163.5t-160.5 -65.5q-93 0 -157 66q-65 66 -65 160q0 110 89 178q27 20 60 32q-68 50 -93 87 q-50 74 -50 155.5t23 137.5q24 57 72 98q103 87 310 87q334 -1 450 -227q40 -80 40 -172q0 -3 1 -6q0 -88 -15 -152q-15 -66 -40 -126t-57 -116l-65 -109l62 -63l145 101v470q1 174 121 289q116 111 286 111v-173q-126 0 -186 -88q-52 -76 -51 -205v-703q-1 -119 131 -222 q40 -31 86 -62l-100 -144q-140 95 -190 160q-97 125 -97 263v103l-158 -116l-152 139q-195 -245 -429 -443q-74 -62 -138 -106zM311 789.5q0 -22.5 15.5 -38t38 -15.5t38.5 15.5t16 38t-16 38.5t-38.5 16t-38 -16t-15.5 -38.5z" />
<glyph unicode="B" horiz-adv-x="1719" d="M80 212.5q0 82.5 31 130t85 75.5q95 49 277 49h7q138 91 218 245q78 150 78 318q0 136 -76 246q-80 116 -187 117q-83 0 -124.5 -37.5t-41.5 -88.5t20 -84.5t49.5 -64.5t63.5 -62q34 -32 64 -70q70 -90 70 -194q0 -95 -65.5 -160.5t-160.5 -65.5q-93 0 -157 66 q-65 66 -65 160q0 110 89 178q27 20 60 32q-68 50 -93 87q-50 74 -50 155.5t22 138t64 97.5q90 87 255 87q97 0 178.5 -50t140.5 -131q77 181 257 181h2q129 0 203 -141q22 -40 36 -71l24 -53q37 -76 65 -76q25 0 38 28q19 41 35 102l170 -42q-42 -195 -166 -251l-161 -73 q238 -209 238 -476q0 -209 -134 -355q-146 -159 -392 -159q-196 0 -321 129l-66 67q-79 80 -147 100q14 -33 14 -76.5t-17.5 -84t-47.5 -70.5q-66 -65 -159 -65t-158 65t-65 147.5zM248 225.5q0 -22.5 15.5 -38t38 -15.5t38.5 15.5t16 38t-16 38.5t-38.5 16t-38 -16 t-15.5 -38.5zM336 789.5q0 -22.5 15.5 -38t38 -15.5t38.5 15.5t16 38t-16 38.5t-38.5 16t-38 -16t-15.5 -38.5zM623 411q41 -15 99 -60l94 -73q134 -104 227.5 -104t158 29t108.5 77q89 96 89 234q0 128 -87 244q-61 82 -156 149l-246 -113q-52 -154 -197 -302 q-44 -45 -90 -81zM950 1005l296 137q-23 29 -38 62l-54 112q-36 77 -82 77q-22 0 -43 -17.5t-35 -47t-22 -68.5q-9 -38 -14 -82q-8 -70 -8 -173z" />
<glyph unicode="C" horiz-adv-x="1566" d="M91 758q0 365 212 593q201 216 478 216q117 0 223 -41q38 -15 65 -37q44 -176 133.5 -176t128.5 179l171 -33q-54 -249 -206 -305q-46 -16 -92 -16q-92 0 -149 75q-13 -99 -121 -187q-46 -38 -98 -72q-50 -33 -94 -69q-100 -83 -101 -174q0 -101 124 -140q45 -14 111 -14 v-174q-212 0 -320 106q-90 88 -90 222q0 164 134 283q38 34 78 64l78 56q134 93 135 177v92q-26 5 -57 7l-53 2q-201 -6 -351 -174q-101 -112 -143 -280q-21 -84 -21 -199.5t36 -223.5q35 -107 103 -183q141 -156 398 -157h2q261 0 439 217q65 79 95 156l162 -64 q-67 -168 -223 -306q-202 -178 -475 -178q-359 0 -546 224q-166 200 -166 534z" />
<glyph unicode="D" horiz-adv-x="1724" d="M89 1096.5q0 101.5 42.5 187.5t122.5 149q170 135 448 135q247 0 474 -136q209 -125 339 -330.5t130 -417.5q0 -280 -157 -476q-165 -207 -418 -207q-163 1 -304 129l-76 70q-94 89 -148 117q21 -44 21 -92.5t-17.5 -89t-47.5 -70.5q-66 -65 -159 -65t-158 65t-65 142 t28 123t74 78q93 64 198 64q2 0 5 1q103 0 165 -22q64 -22 117.5 -55t99 -72t89.5 -72q103 -77 189.5 -77t158.5 43q70 42 122 113q108 150 109 357q-1 213 -175 415q-108 127 -262 207q-76 40 -158 61l-288 -276q34 -50 98 -91l99 -62q124 -80 124 -208q-1 -95 -67 -160 q-64 -63 -157 -63t-158 65t-65 165t82 167q-78 50 -106 85q-53 67 -53 148l260 250q-175 -14 -280 -97q-101 -80 -101 -193q0 -48 28.5 -90t88.5 -64v-185q-143 29 -224 140q-68 93 -68 194.5zM285 225.5q0 -22.5 15.5 -38t38 -15.5t38.5 15.5t16 38t-16 38.5t-38.5 16 t-38 -16t-15.5 -38.5zM631 733.5q0 -22.5 15.5 -38t38 -15.5t38.5 15.5t16 38t-16 38.5t-38.5 16t-38 -16t-15.5 -38.5z" />
<glyph unicode="E" horiz-adv-x="1530" d="M97 776q0 377 137 597q61 98 137.5 146t154.5 48q117 0 177 -76l102 126q64 -203 145 -276q30 -27 62 -27t56 16t41 46q35 61 35 161h174q0 -177 -80 -285q-84 -113 -235 -113t-249 136l-72 -88q-30 -38 -30 -64t12 -44.5t32 -34.5q21 -16 47 -32l107 -61q26 -15 52 -33 q36 77 72 108q65 55 145 55q75 0 143 -57v107h170q0 -138 -18.5 -188t-49 -75t-74 -25t-62.5 10q-18 10 -32 22l-26 22q-12 10 -31 10t-34.5 -10.5t-27.5 -27.5q-19 -27 -39 -84q48 -79 48 -161t-24 -138t-66 -98q-90 -89 -214 -89h-3q-127 0 -216.5 89.5t-89.5 216.5 q0 93 52 170l138 -102q-18 -30 -18 -63t10.5 -57t28.5 -42q39 -39 94 -39q56 0 95 39t39 86.5t-18 80t-47 59.5t-65 49l-69 42q-113 62 -154 104q-82 84 -82 186q0 98 71 180q27 32 27 56q0 39 -47.5 39t-93 -37.5t-81.5 -113.5q-81 -172 -81 -466t157 -458 q139 -145 352 -145h3q189 0 333 141q111 108 182 293l162 -64q-83 -222 -235 -366q-186 -178 -445 -178q-281 1 -471 187q-212 209 -213 590z" />
<glyph unicode="F" horiz-adv-x="1573" d="M183.5 1454.5q112.5 112.5 271.5 112.5h2q146 0 323 -145l100 -78q125 -93 222 -117q-31 53 -31 107.5t17 95.5q18 42 48 72q63 65 155 65h3q93 0 158.5 -65.5t65.5 -147.5t-33.5 -136t-87.5 -92q-108 -75 -254 -75h-4h-21q-10 0 -19 2q-133 -91 -183 -225 q-16 -42 -16 -76t9 -59q84 193 195 193q43 0 84 -20.5t62 -32t38 -17.5l-96 106l118 126l64 -60q59 -58 73 -97.5t14 -76t-13.5 -66t-35.5 -49.5q-45 -41 -95.5 -41t-76.5 8.5t-46 18.5l-36 19q-16 8 -33.5 8t-35 -13t-32.5 -37q-35 -55 -42 -130l71 -79q69 -80 86.5 -138 t17.5 -127.5t-30 -147t-88 -135.5q-123 -124 -337 -124h-3q-180 0 -306 109q-133 114 -133 304q0 104 90 202q-117 28 -158 143q-13 36 -13 90t35 107.5t92 80.5q-119 36 -193 137q-75 101 -75 226q0 162 112.5 274.5zM246 1183q0 -86 61.5 -147.5t147.5 -61.5t147.5 61.5 t61.5 147.5t-61.5 147.5t-147.5 61.5t-147.5 -61.5t-61.5 -147.5zM382 613.5q0 -22.5 15.5 -38t38 -15.5t38.5 15.5t16 38t-16 38.5t-38.5 16t-38 -16t-15.5 -38.5zM466 173.5q0 -44.5 22 -85.5q22 -42 58 -72q75 -62 189 -62q133 0 209 74q72 70 73 179q0 72 -72 153 q-31 35 -66.5 71.5t-66.5 81.5q-72 105 -72 230q0 216 183 367q-22 12 -43 26l-42 28q-6 -130 -88 -228q-81 -97 -205 -127q52 -29 83.5 -79.5t31.5 -113.5v-10q0 -122 -102 -240q-57 -67 -74.5 -107.5t-17.5 -85zM1240 1342.5q0 -22.5 15.5 -38t38 -15.5t38.5 15.5t16 38 t-16 38.5t-38.5 16t-38 -16t-15.5 -38.5z" />
<glyph unicode="G" horiz-adv-x="1702" d="M89 769q0 331 172 561q82 110 197 173q115 64 244.5 64t216.5 -52q122 52 280 52v-174q-106 0 -152 -13q56 -114 56 -297h-174q0 146 -27 202q-43 -56 -43 -103.5t9 -77.5t24 -58q14 -28 34 -55l41 -54l569 443l104 -139l-221 -172q154 -190 154 -437q0 -272 -183 -448 q-192 -184 -514 -184q-388 0 -599 241q-188 214 -188 528zM263 770q1 -236 147 -406q101 -118 272 -166q87 -24 202.5 -24t213.5 36q97 38 164 100q137 128 137 322q0 189 -118 333l-211 -165q91 -151 94 -293q0 -95 -65.5 -160.5t-160.5 -65.5h-3q-91 0 -154 65 q-65 66 -65 161q0 87 58.5 151t145.5 70q-36 47 -78 94q-40 46 -76 98q-82 121 -82 243t78 226q-23 4 -49 4q-197 0 -326 -186q-124 -179 -124 -437zM886 504.5q0 -22.5 15.5 -38t38 -15.5t38.5 15.5t16 38t-16 38.5t-38.5 16t-38 -16t-15.5 -38.5z" />
<glyph unicode="H" horiz-adv-x="1433" d="M34 578h178q0 -86 61 -147t147 -61q84 0 146 58q62 59 62 141q0 125 -124 231q-34 30 -74 61t-82 67t-74 79q-72 95 -72 219q0 216 305 348l72 -151q-112 -56 -143 -84q-59 -53 -59 -101.5t14 -79.5q13 -32 37 -60q36 -43 93 -88l97 -78q40 -34 70 -65l237 183l-44 58 q-70 95 -70 198.5t71 165.5t204 96l42 -169l-60 -17q-54 -15 -68 -36t-14 -42.5t9.5 -43t25 -44.5t35.5 -47l130 -149q169 -199 169 -438q0 -234 -141 -386q-123 -133 -355 -201q-171 81 -268 93q-38 4 -79.5 4t-69.5 -10t-46 -26q-37 -34 -37 -85q0 -42 23 -65 q40 -40 87 -41v-166q-115 0 -197 82t-82 197q0 73 33.5 133.5t90.5 98.5q-121 32 -200.5 134.5t-79.5 233.5zM629 259q106 -14 240 -79q312 107 312 405q0 170 -135 336l-267 -205q22 -71 22 -151v-7q-1 -84 -47.5 -166t-124.5 -133z" />
<glyph unicode="I" horiz-adv-x="1643" d="M96 1178q0 141 108 259q118 130 288 130h2q163 0 342 -159q114 -101 179.5 -137.5t123.5 -43.5q-31 53 -31 107.5t18 95.5q17 42 47 72q63 65 155 65h3q93 0 158.5 -65.5t65.5 -147.5t-33.5 -136t-87.5 -91.5t-121.5 -56.5t-149 -19t-178.5 41l-157 -124q23 -52 54 -98 l127 -184q110 -165 110 -330q0 -98 -47 -176q13 -4 33 -5l31 -1h37q1 0 1 -1q25 1 62 17q38 16 66 44q62 62 62 148t-62 148q-61 61 -146 61h-3v175q159 0 271.5 -112.5t112.5 -271.5q-1 -160 -113 -271q-113 -112 -271 -112q-195 0 -397 158q-124 97 -198 127.5t-128 30.5 t-82 -10q-26 -11 -44 -25q-32 -27 -32.5 -53t14 -41.5t37.5 -15.5v-170q-93 0 -157 66q-65 66 -65 163q0 102 75 175q87 85 236 85h3q206 -1 397 -149l105 -79q28 43 28 104.5t-22 117t-55 104.5t-72 95t-72 99q-77 124 -77 266l177 140q-32 23 -72 58q-38 35 -82 68 q-105 80 -167 80t-103 -21q-42 -20 -70 -52q-60 -65 -60 -128t20 -102q20 -38 56 -64q71 -52 190 -52v-174q-198 0 -316 96q-124 101 -124 282zM1277 1342.5q0 -22.5 15.5 -38t38 -15.5t38.5 15.5t16 38t-16 38.5t-38.5 16t-38 -16t-15.5 -38.5z" />
<glyph unicode="J" horiz-adv-x="1688" d="M24 226v18q6 91 77 152q77 66 199 66q187 0 303 -172q33 -50 63 -100l60 -99q104 -172 247 -172h3q87 0 142 53q52 49 52 113.5t-17 115.5t-44.5 99.5t-62.5 94.5l-152 195q-87 115 -113 202t-26 167t40 151t112 113l-66 55q-136 114 -220 115q-95 -1 -161 -73 q-60 -66 -60 -129t20 -101q18 -38 54 -64q71 -52 191 -52v-174q-197 0 -315 96q-125 102 -125 285q0 139 107 256q118 130 289 130h2q163 0 342 -159q114 -101 179.5 -137.5t123.5 -43.5q-31 53 -31 107.5t17 95.5q18 42 48 72q63 65 155 65h3q93 0 158.5 -65.5t65.5 -143 t-26 -127.5t-70 -86q-88 -73 -217 -90q18 -58 18 -116t-39 -128.5t-107 -134.5l-118 126q90 86 90 148q-1 60 -43 102q-41 41 -98 41h-3q-59 0 -100.5 -41.5t-41.5 -95.5t15.5 -99.5t41.5 -90t59 -87.5l68 -87h-1l84 -108q148 -197 149 -390q0 -146 -97 -243 q-106 -106 -278 -106h-2q-201 0 -324 161q-59 77 -103.5 161t-71.5 125q-13 -84 -75 -138q-63 -54 -148 -54q-93 0 -157 66q-65 66 -65 160zM194 223.5q0 -22.5 15.5 -38t38 -15.5t38.5 15.5t16 38t-16 38.5t-38.5 16t-38 -16t-15.5 -38.5zM1406 1342.5q0 -22.5 15.5 -38 t38 -15.5t38.5 15.5t16 38t-16 38.5t-38.5 16t-38 -16t-15.5 -38.5z" />
<glyph unicode="K" horiz-adv-x="1450" d="M34 369q0 125 80 198q70 64 160 64q86 -1 148 -81q62 -81 62 -194h-174q0 41 -11 70.5t-25 29.5q-23 0 -44 -21t-21 -68.5t19 -84.5q20 -36 48 -60q57 -48 118 -48t103.5 18t72.5 50q61 67 61 175t-93 239l-53 75h1l-68 95q-119 173 -119 347q0 195 115 298 q107 96 294 96q146 0 244 -81q103 -85 103 -225q0 -70 -40 -146l60 48q53 44 53 104q0 30 -40 123l161 66q54 -123 54 -177t-11.5 -91t-29.5 -68q-31 -55 -63 -82q-31 -27 -51 -42l-40 -30q31 -46 42 -117l85 -555q17 -113 158 -180l-75 -158q-219 100 -256 312l-84 555 q-3 21 -7 33l-234 -186q68 -122 68 -232.5t-26.5 -188t-77.5 -133.5q-106 -116 -297 -116h-3q-136 0 -243 89q-124 103 -124 280zM473 1165q0 -121 97 -258l56 -76q5 -8 7 -8l5 -8l139 110l-77 100l58 49q122 103 123 189v2q0 89 -107 119q-32 9 -75.5 9t-87 -14.5 t-74.5 -42.5q-64 -59 -64 -171zM970 856h1h-1z" />
<glyph unicode="L" horiz-adv-x="1513" d="M53 226q0 126 108 205q37 27 87 42q-36 55 -36 112t16 96t44 69q59 63 148 69l-43 72q-79 129 -79 275q0 174 122 287q125 115 323 115q193 0 305 -144q100 -129 100 -319h-175q1 117 -57 199q-64 90 -173 90q-121 0 -197 -64q-74 -64 -74 -164q0 -82 49 -178 q21 -42 45 -84t45 -88q49 -108 49 -211t-67 -168q70 -34 140 -86l108 -80q136 -98 266 -98q86 0 147.5 61.5t61.5 147.5t-62 148q-61 61 -146 61h-3v175q159 0 271.5 -112.5t112.5 -271.5q-1 -160 -113 -271q-113 -112 -271 -112q-212 0 -409 158q-121 97 -191.5 127.5 t-123.5 30.5t-81 -10q-26 -11 -44 -25q-32 -27 -33 -53t14 -41.5t38 -15.5v-170q-93 0 -157 66q-65 66 -65 160zM382 595.5q0 -22.5 15.5 -38t38 -15.5t38.5 15.5t16 38t-16 38.5t-38.5 16t-38 -16t-15.5 -38.5z" />
<glyph unicode="M" horiz-adv-x="2329" d="M29 65q191 253 348 253q115 0 152 -95q268 400 268 737q0 182 -90 312q-84 121 -191 121h-2q-83 0 -124.5 -37.5t-41.5 -88.5t20 -84.5t49.5 -64.5t64 -62.5t64.5 -69.5q69 -89 69 -191q0 -98 -65.5 -163.5t-160.5 -65.5q-93 0 -157 66q-65 66 -65 160q0 110 89 178 q27 20 60 32q-68 50 -93 87q-50 74 -50 155.5t22 137.5q23 57 65 98q90 87 254 87q98 0 188 -51t156 -145q181 196 397 196q93 0 149 -30t95 -95q69 61 111 83q83 42 172 42t145.5 -53t71.5 -145q15 -102 35.5 -131t42.5 -35q41 36 41 124h175q-1 -171 -115 -263l-77 -60 q-141 -105 -193 -306q-18 -72 -18 -165.5t27 -163.5q27 -69 69 -113q80 -82 194 -82v-174q-181 0 -310 123q-155 148 -155 426q0 331 223 544q-48 32 -66 78t-24 76l-13 57q-11 51 -29 69.5t-56 18.5q-73 0 -190 -129q22 -132 22 -260t-18 -247q-18 -118 -62 -248 q-96 -287 -293 -536l-120 45q0 126 -58 126q-78 0 -210 -176l-125 95q88 138 190 205q76 51 145 51q120 0 151 -98q162 266 212 588q14 94 14 186.5t-7 169.5q-7 78 -25 128q-35 100 -121 100q-121 0 -249 -138q-36 -38 -66 -75q31 -103 31 -188.5t-6.5 -146.5t-23.5 -130.5 t-46.5 -148.5t-75.5 -171q-97 -193 -262 -422l-119 46q0 67 -18.5 96t-44.5 29q-68 0 -208 -183zM337 789.5q0 -22.5 15.5 -38t38 -15.5t38.5 15.5t16 38t-16 38.5t-38.5 16t-38 -16t-15.5 -38.5z" />
<glyph unicode="N" horiz-adv-x="1729" d="M39 77q153 202 275 232q36 9 70 9q106 0 155 -86q265 396 265 728q0 187 -88 312q-86 121 -212 121q-81 0 -122 -37.5t-41 -88.5t20 -84.5t49.5 -64.5t63.5 -62q34 -32 64 -70q70 -90 70 -194q0 -95 -65.5 -160.5t-160.5 -65.5q-93 0 -157 66q-65 66 -65 160 q0 110 89 178q27 20 60 32q-68 50 -93 87q-50 74 -50 155.5t21.5 138t64.5 97.5q91 87 252 87q272 0 417 -313l224 -491q38 234 221 457q108 131 139 205t31 143h174q0 -182 -128 -343l-74 -93q-99 -125 -132 -201q-69 -154 -69 -303t27 -232q28 -82 70 -132q78 -90 193 -90 v-174q-203 0 -329 136q-46 49 -79 120l-230 501q-61 -325 -395 -785l-119 46v6q0 90 -29 110q-12 9 -34 9q-73 0 -204 -172zM330 789.5q0 -22.5 15.5 -38t38 -15.5t38.5 15.5t16 38t-16 38.5t-38.5 16t-38 -16t-15.5 -38.5z" />
<glyph unicode="O" horiz-adv-x="1657" d="M24 714h170q0 -38 26 -64t64 -26t64.5 26t26.5 67.5t-14 76t-35.5 66t-45.5 62.5q-24 30 -46 66q-50 82 -50 181t43 173.5t122 124.5q160 101 438 101q215 0 398 -106q179 -104 283 -280q108 -182 108 -396t-107 -397q-104 -178 -282 -282q-183 -107 -397 -107 q-264 0 -482 176q-70 56 -127 125l137 111q93 -110 214 -174t231.5 -64t188.5 22t146 61.5t124 95.5t96 124q84 143 84 289.5t-48 257.5q-48 110 -132 192q-180 178 -435 178q-309 0 -398 -121q-31 -42 -31 -93t14 -85t35 -64t46 -60t46 -67q49 -86 49 -192 q0 -109 -76.5 -185.5t-185.5 -76.5q-110 0 -186 78t-76 186z" />
<glyph unicode="P" horiz-adv-x="1594" d="M93 792q0 110 89 178q27 20 60 32q-68 50 -93 87q-50 74 -50 155.5t22 137.5q23 57 65 98q90 87 254 87h3q130 0 247 -79q125 -85 175 -221l380 299l105 -206q99 -191 122.5 -302t23.5 -204t-12.5 -157t-33.5 -115q-31 -75 -76.5 -135.5t-62.5 -85.5t-37 -59 q-46 -79 -90 -183q-78 63 -146 107t-132 56v-154q0 -357 -216 -453q-60 -27 -128 -27h-9q-93 0 -157 66q-65 66 -65 160q0 92 65 157t157 65q119 0 170 -104q8 28 8 90v200q-156 -16 -305 -165l-126 119q108 104 181 143q125 68 250 83v611q1 144 -93 236q-85 84 -183 84 t-139.5 -37.5t-41.5 -88.5t20 -84.5t49.5 -64.5t64 -62.5t64.5 -69.5q69 -89 69 -191q0 -98 -65.5 -163.5t-160.5 -65.5q-93 0 -157 66q-65 66 -65 160zM263 789.5q0 -22.5 15.5 -38t38 -15.5t38.5 15.5t16 38t-16 38.5t-38.5 16t-38 -16t-15.5 -38.5zM501 -128.5 q0 -22.5 15.5 -38t38 -15.5t38.5 15.5t16 38t-16 38.5t-38.5 16t-38 -16t-15.5 -38.5zM906 459q111 -13 214 -73l35 54l85 125q82 126 82 282q0 135 -26 213q-27 78 -52 128l-56 112l-282 -223v-618z" />
<glyph unicode="Q" horiz-adv-x="1658" d="M25 714h170q0 -38 26 -64t64 -26t64.5 26t26.5 67.5t-14 76t-35.5 66t-46 62t-46.5 66.5q-50 81 -50 179q0 100 44 175q43 75 122 125q160 101 438 101q215 0 398 -106q180 -104 284 -280q107 -180 107 -392q0 -321 -218 -548q49 -72 93 -147t86 -135q97 -138 184 -138 t170 81l140 -107q-140 -148 -317 -148q-155 0 -291 162q-70 84 -123 174l-86 140q-190 -124 -424 -124q-263 0 -481 176q-70 56 -128 125l137 111q93 -110 214 -174t233 -64q199 0 346 91q-61 66 -128 66q-64 0 -133 -60l-123 125q121 110 260 110t261 -126q154 173 154 406 q-1 252 -181 430t-434 178q-309 0 -398 -121q-31 -42 -31 -93t14 -85t35 -64t46 -60t46 -67q49 -86 49 -192q0 -109 -76.5 -185.5t-185.5 -76.5t-185 78t-77 186z" />
<glyph unicode="R" horiz-adv-x="1693" d="M103 202q0 94 65 160q63 65 155 65h3q118 0 186 -99q20 -30 30 -66q151 174 189 556q11 110 11 193.5t-20 148.5q-20 64 -56 116q-80 116 -187 117q-83 0 -124.5 -37.5t-41.5 -88.5t20 -84.5t49.5 -64.5t63.5 -62q34 -32 64 -70q70 -90 70 -194q0 -95 -65.5 -160.5 t-160.5 -65.5q-93 0 -157 66q-65 66 -65 160q0 110 89 178q27 20 60 32q-68 50 -93 87q-50 74 -50 155.5t22 138t64 97.5q90 87 255 87q97 0 178.5 -50t140.5 -131q77 181 257 181h2q129 0 203 -141q22 -40 36 -71l24 -53q37 -76 65 -76q25 0 38 28q19 41 35 102l170 -42 q-42 -195 -166 -251l-150 -68q40 -30 53 -109l86 -578q17 -113 158 -180l-75 -158q-225 103 -256 311l-83 567q-9 60 -44 73l-238 -108q-17 -309 -143 -543q-95 -178 -256 -252q-83 -38 -159 -38q-2 0 -4 -1q-73 -1 -113 17t-70 48q-65 66 -65 158zM271 202.5 q0 -22.5 15.5 -38t38 -15.5t38.5 15.5t16 38t-16 38.5t-38.5 16t-38 -16t-15.5 -38.5zM302 789.5q0 -22.5 15.5 -38t38 -15.5t38.5 15.5t16 38t-16 38.5t-38.5 16t-38 -16t-15.5 -38.5zM916 1005l296 137q-23 29 -38 62l-54 112q-36 77 -82 77q-22 0 -43 -17.5t-35 -47 t-22 -68.5q-9 -38 -14 -82q-8 -70 -8 -173z" />
<glyph unicode="S" horiz-adv-x="1756" d="M70 495l139 104q306 -424 707 -424q252 0 414 118q158 115 158 288q0 119 -56 181q-46 51 -103.5 51t-102.5 -20.5t-88.5 -51t-89.5 -66.5q-48 -37 -104 -67q-131 -72 -261 -72h-1q-130 0 -228 32.5t-172 98.5q-163 145 -163 405q1 198 127 336q146 160 421 160 q180 0 327 -98q41 -28 78 -58l71 -57q34 -28 69 -50q0 173 119 233q40 20 90 20t91 -18q42 -18 72 -48q66 -66 66 -142q0 -77 -24 -122q-22 -44 -61 -73q-75 -56 -207 -56q-154 0 -347 147q-117 89 -195 118t-163.5 29t-156.5 -28q-70 -27 -115 -73q-87 -88 -87 -219 q0 -176 110 -274q99 -88 252 -88q122 0 240 72q50 31 96.5 66.5t96.5 66.5q116 72 236 72q128 0 221 -88q116 -110 116 -316q0 -121 -54 -227.5t-152 -185.5q-213 -171 -540 -171q-367 0 -659 277q-95 90 -187 218zM1371 1335.5q0 -22.5 15.5 -38t38 -15.5t38.5 15.5t16 38 t-16 38.5t-38.5 16t-38 -16t-15.5 -38.5z" />
<glyph unicode="T" horiz-adv-x="1481" d="M28 1178q0 141 108 259q118 130 288 130h2q163 0 342 -159q114 -101 179.5 -137.5t123.5 -43.5q-31 53 -31 107.5t18 95.5q17 42 47 72q63 65 155 65h3q93 0 158.5 -65.5t65.5 -147.5t-33.5 -136t-87.5 -91.5t-121.5 -56.5t-149 -19t-178.5 41l-157 -124q28 -70 85 -149 l87 -125q112 -164 112 -340q0 -147 -104 -251q-103 -103 -251 -103t-251 103t-103 251q0 95 45 174t120 128l91 -147q-84 -53 -84 -154q0 -75 53 -128t128 -53q76 0 128 53q54 55 54 115.5t-13.5 104.5t-35 84.5t-47.5 77.5l-54 73q-68 86 -93 145q-48 112 -48 220l177 140 q-32 23 -72 58q-38 35 -82 68q-105 80 -167 80t-103 -21q-42 -20 -70 -52q-60 -65 -60 -128t20 -102q20 -38 56 -64q71 -52 190 -52v-174q-198 0 -316 96q-124 101 -124 282zM1209 1342.5q0 -22.5 15.5 -38t38 -15.5t38.5 15.5t16 38t-16 38.5t-38.5 16t-38 -16t-15.5 -38.5 z" />
<glyph unicode="U" horiz-adv-x="1229" d="M93 1429l105 138q170 -131 204 -265q13 -50 13 -129q1 -74 -15 -157q-16 -86 -34 -170q-49 -230 -49 -357q0 -143 102 -279l422 312v1015h174v-1196q0 -77 30 -130t100 -102l-97 -139q-203 125 -207 330l-446 -330l-88 103q-164 197 -164 416q0 116 33.5 281t48.5 254 t15 164t-36.5 128.5t-110.5 112.5z" />
<glyph unicode="V" horiz-adv-x="1622" d="M103 792q0 110 89 178q27 20 60 32q-68 50 -93 87q-50 74 -50 155.5t22 137.5q23 57 65 98q90 87 254 87q87 0 169 -44.5t146 -124.5q142 -179 142 -438q0 -287 -161 -595q40 -33 74 -67q34 -32 72 -60q84 -62 170 -62q2 0 4 -1q83 0 130 27q48 26 78 68q60 84 60 206 q0 147 -62 288l-74 165q-65 150 -65 298q0 171 111 259q103 82 270 83v-175q-146 0 -191 -87q-16 -31 -16 -76t7.5 -85.5t20 -79t28.5 -74.5l74 -164q71 -165 71 -352q0 -201 -102 -330q-115 -146 -319 -146q-179 0 -283 90q-54 46 -98 97t-75 80q4 -22 4 -55t-17.5 -74.5 t-47.5 -71.5q-66 -66 -161 -66q-93 0 -157 66q-65 66 -65 160q3 169 157 229q54 21 126.5 21t130.5 -19q131 251 131 503q0 188 -85 312q-83 121 -197 121q-83 0 -124.5 -37.5t-41.5 -88.5t20 -84.5t49.5 -64.5t64 -62.5t64.5 -69.5q69 -89 69 -191q0 -98 -65.5 -163.5 t-160.5 -65.5q-93 0 -157 66q-65 66 -65 160zM273 789.5q0 -22.5 15.5 -38t38 -15.5t38.5 15.5t16 38t-16 38.5t-38.5 16t-38 -16t-15.5 -38.5zM357 223.5q0 -22.5 15.5 -38t38 -15.5t38.5 15.5t16 38t-16 38.5t-38.5 16t-38 -16t-15.5 -38.5z" />
<glyph unicode="W" horiz-adv-x="2119" d="M103 792q0 110 89 178q27 20 60 32q-68 50 -93 87q-50 74 -50 155.5t22 137.5q23 57 65 98q90 87 254 87q87 0 169 -44.5t146 -124.5q142 -179 142 -438q0 -287 -161 -595q40 -33 74 -67q34 -32 72 -60q84 -62 170 -62q2 0 4 -1q83 0 130 27q48 26 78 68q60 84 60 206 q0 147 -62 288l-74 165q-65 150 -65 298q0 171 111 259q103 82 270 83v-175q-146 0 -191 -87q-16 -31 -16 -76t7.5 -85.5t20 -79t28.5 -74.5l74 -164q71 -165 71 -352q0 -160 -66 -276q60 -27 131.5 -27t118.5 26.5t78 69.5q60 83 60 207q0 144 -61 288l-73 165 q-66 155 -67 302q0 167 111 255q103 82 270 83v-175q-145 0 -190 -87q-16 -31 -16 -76t7.5 -85.5t20 -79t28.5 -74.5l74 -164q71 -165 71 -352q0 -202 -102 -332q-114 -146 -316 -146h-3q-151 0 -261 69q-98 -67 -236 -67q-179 0 -283 90q-54 46 -98 97t-75 80q4 -22 4 -55 t-17.5 -74.5t-47.5 -71.5q-66 -66 -161 -66q-93 0 -157 66q-65 66 -65 160q3 169 157 229q54 21 126.5 21t130.5 -19q131 251 131 503q0 188 -85 312q-83 121 -197 121q-83 0 -124.5 -37.5t-41.5 -88.5t20 -84.5t49.5 -64.5t64 -62.5t64.5 -69.5q69 -89 69 -191 q0 -98 -65.5 -163.5t-160.5 -65.5q-93 0 -157 66q-65 66 -65 160zM273 789.5q0 -22.5 15.5 -38t38 -15.5t38.5 15.5t16 38t-16 38.5t-38.5 16t-38 -16t-15.5 -38.5zM357 223.5q0 -22.5 15.5 -38t38 -15.5t38.5 15.5t16 38t-16 38.5t-38.5 16t-38 -16t-15.5 -38.5z" />
<glyph unicode="X" horiz-adv-x="1494" d="M-31 90q51 176 151 244q37 26 82 26h2q46 0 74.5 -14t46 -35t27.5 -45l18 -44q8 -21 18.5 -34.5t30.5 -13.5t45 46t51 120q27 76 53 170l52 190h-153l-111 -235l-160 76l175 329h274v288q0 209 -136 233l-145 -127l-112 133l175 171q253 0 333 -201q28 -71 28 -171 l48 136q54 146 132 204q44 32 98.5 32t85.5 -13q30 -13 52 -34q29 -28 50.5 -70t27 -52t5.5 -14l79 151l158 -58q-57 -180 -152 -244q-37 -26 -81 -26h-2q-45 0 -71.5 14t-43 35t-26.5 45l-19 44q-21 48 -50 48t-55.5 -44t-55.5 -116q-28 -74 -58 -168l-65 -196h135l112 238 l158 -75l-158 -333h-272v-333q0 -116 83 -169q25 -16 53 -21l145 127l112 -133l-175 -171q-243 0 -328 170q-32 64 -32 159q-46 -147 -85 -207q-79 -122 -176 -122q-125 0 -181 120l-30 65l-68 -139z" />
<glyph unicode="Y" horiz-adv-x="1476" d="M96 792q0 110 89 178q27 20 60 32q-68 50 -93 87q-50 74 -50 155.5t22 138t64 97.5q90 87 255 87h2q178 0 310 -171q126 -162 126 -369q0 -164 -109 -327q-30 -46 -62 -86q7 -123 102 -216l316 248q-7 77 -14.5 144.5t-14 133t-11.5 131.5q-6 67 -10 141q-10 157 -10 351 h174q-1 -48 -1 -95q0 -271 34 -537q42 -328 42 -535t-52.5 -336.5t-140.5 -217.5q-179 -178 -447 -178q-179 0 -325 84q-171 97 -171 277q0 92 65 157t157 65q95 0 161 -65q66 -64 66 -160q0 -99 -80 -169q62 -15 139.5 -15t161.5 34q85 34 149 100q142 147 142 387v93 l-333 -262q-271 216 -271 490q169 213 169 366q-1 136 -77 246q-80 116 -187 117q-83 0 -124.5 -37.5t-41.5 -88.5t20 -84.5t49.5 -64.5t63.5 -62q34 -32 64 -70q70 -90 70 -194q0 -95 -65.5 -160.5t-160.5 -65.5q-93 0 -157 66q-65 66 -65 160zM266 789.5q0 -22.5 15.5 -38 t38 -15.5t38.5 15.5t16 38t-16 38.5t-38.5 16t-38 -16t-15.5 -38.5zM351 6.5q0 -22.5 15.5 -38t38 -15.5t38.5 15.5t16 38t-16 38.5t-38.5 16t-38 -16t-15.5 -38.5z" />
<glyph unicode="Z" horiz-adv-x="1255" d="M76 1395q0 89 63 152t152 63q73 0 126 -19.5t84 -32.5t65 -25q75 -27 154 -27q136 0 236 61h163q9 -65 9 -159.5t-19.5 -175t-53 -151t-79.5 -132.5t-100 -117q-52 -56 -110 -106l-238 -200q-212 -182 -259 -352h466q222 0 340 162l138 -107q-163 -229 -478 -229h-655 q0 258 142 451q82 112 169 185l239 201q308 267 323 541q-119 -45 -239 -45t-208 30q-12 -81 -72 -133q-60 -53 -143 -53h-3q-88 0 -149 63q-63 64 -63 155zM237 1393.5q0 -22.5 15.5 -38t38 -15.5t38.5 15.5t16 38t-16 38.5t-38.5 16t-38 -16t-15.5 -38.5z" />
<glyph unicode="[" horiz-adv-x="620" d="M146 -194v1788h465v-159h-295v-1471h295v-158h-465z" />
<glyph unicode="\" horiz-adv-x="915" d="M64 1502l159 62l653 -1722l-165 -43z" />
<glyph unicode="]" horiz-adv-x="620" d="M9 -36h295v1471h-295v159h465v-1788h-465v158z" />
<glyph unicode="^" horiz-adv-x="1406" d="M50 545l627 914h105l574 -914h-200l-430 684l-468 -684h-208z" />
<glyph unicode="_" horiz-adv-x="1023" d="M0 -156h1023v-160h-1023v160z" />
<glyph unicode="`" horiz-adv-x="564" d="M50 1537l116 158l348 -254l-91 -143z" />
<glyph unicode="a" horiz-adv-x="798" d="M86 214v465q0 202 147 312l316 239l103 -53v-836q0 -77 30 -130t100 -102l-97 -139q-107 66 -156 151l-202 -151q-161 29 -220 146q-21 42 -21 98zM256 214q0 -39 32 -57l194 145v668l-140 -109q-86 -67 -86 -182v-465z" />
<glyph unicode="b" horiz-adv-x="767" d="M132 37v1189q0 236 179 390q54 46 117 80l85 -148q-148 -78 -194 -218q-16 -48 -16 -104v-122l154 126q205 -198 243 -416q12 -68 12 -141q0 -306 -238 -511l-222 -192zM302 234l62 55q178 156 178 390q0 160 -121 301l-119 -98v-648z" />
<glyph unicode="c" horiz-adv-x="683" d="M89 310v439v8q0 107 27 163q46 99 133 160l214 150l201 -382l-139 -83l-119 218l-59 -42q-88 -64 -88 -192v-439q0 -104 81 -148l203 158l100 -140l-270 -210q-284 82 -284 340z" />
<glyph unicode="d" horiz-adv-x="739" d="M75 1389q0 143 107 255q30 32 60 53l97 -141q-95 -67 -95 -165q0 -122 195 -286q121 -102 168 -175q91 -143 91 -289q0 -274 -238 -479l-222 -192l-120 67v791q0 82 48 134l79 88q-170 152 -170 339zM288 234l62 55q96 85 126 138.5t41 97.5t11 92t-13 92t-35 86 q-42 81 -106 144l-86 -99v-606z" />
<glyph unicode="e" horiz-adv-x="702" d="M89 310v439v8q0 107 27 163q46 99 133 160l214 150l202 -383l-406 -306v-231q0 -104 81 -148l203 158l100 -140l-270 -210q-284 82 -284 340zM259 753l192 142q-37 66 -47 87l-57 -41q-86 -64 -88 -188z" />
<glyph unicode="f" horiz-adv-x="596" d="M-13 983q113 85 206 113q-33 144 -33 210t12 110t36 78q52 73 142 73h2q70 0 144 -46l-45 97l136 78q85 -149 85 -234q0 -86 -70 -120q-24 -12 -55.5 -11.5t-54.5 10.5q-24 11 -42 23l-35 22q-16 10 -33 10q-52 0 -52 -88q0 -42 14 -105l19 -83h208v-171h-174 q27 -206 27 -392.5t-2 -262.5q0 -76 -6 -160q-13 -195 -39 -395l-169 22q46 340 46 594q0 377 -25 572q-69 -28 -139 -79z" />
<glyph unicode="g" horiz-adv-x="784" d="M-10 -70q0 69 48.5 117.5t117.5 48.5q68 0 118 -48q49 -48 49 -110.5t-34 -107.5q29 -11 69 -11t79 20q39 21 68 53q63 71 63 160q0 71 -57 206l-192 -143q-161 29 -220 146q-21 42 -21 98v321q0 202 147 312l316 239l104 -53v-725q0 -52 15 -97q14 -46 32 -92 q48 -126 48 -211.5t-30 -158.5q-30 -74 -82 -128q-114 -118 -275 -118q-138 0 -242 69q-121 80 -121 213zM249 359q0 -39 31 -57l194 149v520l-140 -109q-85 -66 -85 -182v-321z" />
<glyph unicode="h" horiz-adv-x="836" d="M134 0v1230q0 242 182 388q54 44 117 78l84 -152q-105 -56 -143 -104q-69 -89 -69 -210l-1 -176l212 176q228 -254 228 -489v-299q0 -360 -362 -720l-126 114q318 314 318 606v299q0 136 -77 250l-193 -158v-833h-170z" />
<glyph unicode="i" horiz-adv-x="440" d="M121 319v884h170v-862q0 -77 30 -130t100 -102l-97 -139q-163 103 -193 246q-10 48 -10 103zM132 1327l119 282l177 -71l-138 -264z" />
<glyph unicode="j" horiz-adv-x="419" d="M-114 -187q228 66 238 401q2 49 2 93v922h171v-922q0 -162 -13 -237.5t-35.5 -138t-63.5 -116.5q-90 -119 -256 -167zM144 1327l119 282l177 -71l-138 -264z" />
<glyph unicode="k" horiz-adv-x="871" d="M134 0v1230q0 242 182 388q54 44 117 78l84 -152q-105 -56 -143 -104q-70 -90 -70 -210v-271l381 298l96 -139l-212 -167q92 -88 124 -148q54 -101 54 -205q0 -53 -10 -116q-19 -121 -19 -160.5t6.5 -62.5t21.5 -47q29 -47 102 -107l-102 -134q-158 123 -188 250 q-10 41 -10 82t4.5 76t9.5 70q14 99 14 157q0 121 -142 237l-130 -101v-742h-170z" />
<glyph unicode="l" horiz-adv-x="439" d="M134 0v1230q0 242 182 388q54 44 117 78l84 -152q-105 -56 -143 -104q-69 -89 -69 -210v-1230h-171z" />
<glyph unicode="m" horiz-adv-x="1238" d="M32 1091l95 142q131 -85 166 -179l224 176q103 -117 140 -191l243 190q152 -170 203 -344q18 -62 18 -123q0 -83 -10 -182q-19 -188 -19 -281.5t130 -192.5l-102 -135q-160 124 -190 250q-10 39 -10 88q0 51 6 113q4 56 10 110q14 144 14 230q0 116 -75 230l-169 -131 q3 -26 3 -61v-800h-171v800q0 115 -48 192l-177 -138v-854h-171v938q0 62 -72 124q-20 17 -38 29z" />
<glyph unicode="n" horiz-adv-x="854" d="M32 1092l94 143q130 -85 166 -180l224 175q152 -170 202 -344q18 -62 18 -123q0 -73 -10 -177q-18 -204 -18 -281q0 -100 130 -199l-103 -135q-159 123 -189 250q-10 39 -10 88q0 51 6 113q4 56 10 110q14 144 14 231q0 114 -77 231l-177 -139v-855h-171v940 q0 62 -71 124q-19 16 -38 28z" />
<glyph unicode="o" horiz-adv-x="749" d="M98 28v768q0 173 123 265l224 170q94 -64 135 -113q83 -100 83 -203v-463q0 -147 -123 -240l-325 -243zM268 219l172 125q53 38 53 108v463q0 58 -47 105l-124 -96q-54 -43 -54 -128v-577z" />
<glyph unicode="p" horiz-adv-x="891" d="M-65 0q39 274 224 274q20 0 38 -3v583q-1 41 -25 101q-46 114 -46 153t7.5 66t25.5 54q35 53 120 126l116 -128l-47 -42q-51 -47 -51 -75q0 -45 25 -90l255 211l84 -98q90 -106 116.5 -181.5t26.5 -133.5v-390q0 -196 -128 -296l-207 -161l-101 51v-373h-171v451 q-20 4 -38 4q-34 0 -54 -103h-170zM368 213q45 -24 58 -30.5t25 -13.5l118 94q64 51 64 164v390q0 79 -75 175l-190 -158v-621z" />
<glyph unicode="q" horiz-adv-x="785" d="M86 212v467q0 202 147 312l316 239l103 -53v-1158q0 -77 30 -130t100 -102l-97 -139q-163 103 -193 246q-10 48 -10 103v87l-155 -114q-162 29 -220 144q-21 42 -21 98zM257 212q0 -39 31 -57l194 145v670l-140 -109q-85 -68 -85 -182v-467z" />
<glyph unicode="r" horiz-adv-x="635" d="M32 1087l93 143q106 -65 145 -134l170 134q132 -125 208 -331l-151 -87q-33 89 -81 151l-105 -83v-880h-170v935q0 79 -109 152z" />
<glyph unicode="s" horiz-adv-x="895" d="M25 882l338 301l70 -86q54 -67 118 -67q57 0 96.5 39.5t39.5 95.5q0 57 -39.5 96.5t-96.5 39.5q-81 0 -119 -71h-183q22 106 106 174q85 69 192 69h3q128 0 218 -90t90 -218q0 -159 -130 -251q-40 -28 -86 -43q126 -121 168 -277q15 -54 15 -122q0 -67 -28 -144 q-29 -80 -83 -149q-116 -146 -315 -209l-152 151q-158 158 -158 279q0 88 77 178l110 -126q-18 -25 -18 -43t10.5 -38.5t27.5 -43.5q16 -23 38 -47l106 -113q152 81 200 232q15 48 15 99q-1 50 -25 102t-59 87l-240 -181zM257 871l102 -135l164 122q-105 10 -183 81z" />
<glyph unicode="t" horiz-adv-x="614" d="M-22 1004l56 40q105 76 195 76l89 308l164 -44l-76 -264h179v-170h-203v-371q0 -114 0.5 -214.5t30.5 -153.5t100 -102l-97 -139q-163 103 -193 246q-10 48 -10 103v631q-45 0 -123 -62l-24 -20z" />
<glyph unicode="u" horiz-adv-x="861" d="M17 1096l102 135q159 -123 189 -250q10 -39 10 -89t-6 -112q-4 -56 -9 -110q-14 -153 -14 -225q0 -126 76 -238l178 138v854h170v-858q0 -77 30 -130t100 -102l-97 -139q-125 79 -172 184l-236 -184q-151 169 -202 343q-18 62 -18 124q0 84 10 183q19 188 19 281 t-130 195z" />
<glyph unicode="v" horiz-adv-x="776" d="M41 1103l115 127q89 -79 114 -115q39 -59 39 -123v-752l150 121q74 59 74 191v246q1 93 -67 179q-20 26 -45 53l-71 79l122 121l70 -77q78 -85 106 -138q55 -102 55 -214v-249q0 -210 -135 -322l-314 -260l-115 75v917q-1 38 -17 60q-23 31 -81 81z" />
<glyph unicode="w" horiz-adv-x="1170" d="M41 1103l115 127q89 -79 114 -115q39 -59 39 -123v-752l150 121q70 56 74 178v423q-1 38 -17 60q-23 31 -81 81l115 127q89 -79 114 -115q39 -59 39 -123v-752l150 121q74 59 74 191v246q1 93 -67 179q-20 26 -45 53l-71 79l122 121l70 -77q78 -85 106 -138 q55 -102 55 -214v-249q0 -210 -135 -322l-314 -260l-115 75v156l-279 -231l-115 75v917q-1 38 -17 60q-23 31 -81 81z" />
<glyph unicode="x" horiz-adv-x="815" d="M37 1028v172q205 0 329 -122q38 -37 61 -80l255 234l97 -141l-221 -208q-86 -76 -86 -181v-234q0 -98 88 -162q86 -62 216 -62v-170q-206 0 -344 104q-47 36 -75 85q-18 -23 -39 -47t-38 -53q-40 -68 -40 -125t14.5 -93.5t41.5 -64.5q59 -61 148 -61h16q-17 36 -17 72.5 t13 66.5q14 32 36 54q48 48 117 48q68 0 118 -48q49 -48 49 -115.5t-29.5 -114t-77.5 -76.5q-93 -58 -202 -58t-178 30t-117 82q-102 108 -102 261q0 99 29 158q38 78 78 126l59 73q65 82 65 167v269q0 92 -74 152q-76 62 -190 62z" />
<glyph unicode="y" horiz-adv-x="855" d="M45 1103l115 127q89 -79 114 -115q39 -59 39 -123v-665l32 -16t28 -15l164 132v370q1 93 -67 179q-20 26 -45 53l-71 79l122 121l70 -77q78 -85 106 -138q55 -102 55 -214v-367q0 -48 15 -94q14 -46 32 -92q48 -126 48 -203.5t-30 -150.5q-30 -74 -82 -128 q-114 -118 -274 -118q-138 0 -242 69q-121 80 -121 213q0 69 48.5 117.5t117.5 48.5q68 0 118 -48q49 -48 49 -110.5t-34 -107.5q29 -11 69 -11t79 20q38 21 68 53q64 70 64 160q0 57 -24.5 110.5t-34.5 77.5l-190 -152q-18 12 -44 28l-57 32q-72 40 -140 66v748 q0 52 -50 100q-18 18 -47 41z" />
<glyph unicode="z" horiz-adv-x="763" d="M31 1036l246 195q128 -56 182 -107.5t80.5 -103.5t26.5 -101.5t-11 -84t-27 -68.5q-32 -68 -74 -123q19 17 50 41q119 90 162 116l87 -147q-89 -58 -121 -79l-60 -44q-29 -22 -51 -40q76 -83 103 -151q44 -115 44 -257t-85 -278q-59 -94 -147 -135q-46 -21 -101 -21 t-103.5 24.5t-84.5 70.5q-78 100 -78 261q0 179 112 352q33 51 69 90q-20 15 -45 29l-41 21q-16 8 -31 15q211 222 249 321q14 36 14 78.5t-29 73.5t-71 45l-163 -130zM239 7.5q0 -46.5 8 -81t21 -58.5q27 -50 64 -50t66 24.5t51.5 63t35.5 86t13 90.5t-6 83.5t-19 77.5 q-28 80 -76 124q-109 -109 -146 -263q-12 -50 -12 -96.5z" />
<glyph unicode="{" horiz-adv-x="585" d="M-28 660q187 84 216 158q9 22 9 45v396q0 159 60 227q72 82 261 81v-171q-127 0 -145 -78q-6 -26 -6 -59v-396q0 -137 -63 -210q63 -81 63 -208v-374q0 -71 22 -97q40 -46 129 -46v-170q-271 0 -309 186q-12 58 -12 127v374q0 103 -225 215z" />
<glyph unicode="|" horiz-adv-x="464" d="M147 -134v1702h170v-1702h-170z" />
<glyph unicode="}" horiz-adv-x="585" d="M67 -72q127 0 145 85q6 26 6 58v374q0 127 63 208q-63 73 -63 210v396q0 71 -22 95q-39 42 -129 42v171q189 1 261 -81q60 -68 60 -227v-396q0 -49 34 -83q61 -61 191 -120q-225 -112 -225 -215v-374q0 -157 -59 -226q-74 -87 -262 -87v170z" />
<glyph unicode="~" horiz-adv-x="927" d="M38 1176q99 263 297 263q73 0 159 -55q33 -21 63 -38t56 -17t43.5 13t34.5 34t33 48l34 56l149 -86q-69 -120 -109 -161q-81 -83 -178 -83q-66 0 -158 54l-66 38q-31 17 -65.5 17t-67 -39.5t-73.5 -119.5z" />
<glyph unicode="&#xa1;" horiz-adv-x="443" d="M130 -352v1149h171v-1149h-171zM130 890l30 393l170 -11l-29 -393z" />
<glyph unicode="&#xa2;" horiz-adv-x="747" d="M98 436v481q0 109 36 189t123 141l85 59v311h170v-296l161 -306l-139 -82l-119 217l-59 -42q-88 -59 -88 -191v-481q0 -52 36.5 -99t97.5 -73l162 123l120 -120l-172 -131v-221h-170v193q-176 66 -228 224q-16 50 -16 104z" />
<glyph unicode="&#xa3;" horiz-adv-x="1488" d="M79 565v165h376q-17 46 -44 95t-53 101q-62 127 -61.5 219.5t33.5 168.5q32 76 88 132q122 122 294 121q172 0 293.5 -121.5t121.5 -293.5h-170q0 101 -72 173t-173 72t-173 -72t-72 -173q1 -92 63 -216l53 -100q28 -50 47 -106h347v-165h-327q-14 -103 -77 -157 q57 -22 125 -68l108 -74q143 -98 241 -98q93 0 158 92q58 82 58 181h171q0 -159 -104 -295q-114 -148 -283 -149q-153 1 -347 141q-116 84 -192 112t-126 28q-86 0 -86 -54q0 -23 15.5 -38.5t38.5 -15.5v-170q-93 0 -158.5 65.5t-65.5 160.5t68 157q70 65 176 65q52 0 83 40 q25 33 25 77h-399z" />
<glyph unicode="&#xa4;" horiz-adv-x="1123" d="M75 403l153 120q-33 66 -33 151.5t37 152.5l-108 84q-26 19 -48 37l105 141l172 -133q102 63 211 164q91 -77 149 -103.5t86 -48.5l154 121l94 -140l-146 -117q25 -59 25 -139.5t-49 -152.5l173 -134l-97 -133l-198 146l-55 -39q-80 -54 -150 -130q-48 42 -100 77 l-107 70l-169 -124zM366 673q0 -103 135 -171q21 -10 35 -23q26 20 64 43q38 22 72 50q84 68 83 145q0 91 -92 136q-23 11 -45 20.5t-45 23.5q-44 -35 -96 -67q-111 -64 -111 -157z" />
<glyph unicode="&#xa5;" horiz-adv-x="1414" d="M74 1159l418 325q202 -135 279 -428q99 405 331 426q12 2 42.5 2t72 -17.5t71.5 -47.5q66 -64 66 -157q0 -95 -65.5 -160.5t-167.5 -65.5t-167 85q-12 -33 -22 -66.5t-21 -64.5h298v-170h-333q-5 -22 -8 -43t-7 -43h348v-170h-377q-44 -223 -160 -378 q-133 -178 -325 -186h-16q-93 0 -157 66q-65 66 -65 160q0 92 65 157t157 65q119 0 187 -96q20 -30 30 -64q62 87 107 276h-344v170h354q-7 78 -8 86h-346v170h315q-48 189 -131 278l-316 -245zM279 223.5q0 -22.5 15 -37.5t37 -16h10q19 3 32.5 18.5t13.5 36.5t-16 37 t-38.5 16t-38 -16t-15.5 -38.5zM1076 1259.5q0 -22.5 15.5 -38t38 -15.5t38.5 15.5t16 38t-16 38.5t-38.5 16t-38 -16t-15.5 -38.5z" />
<glyph unicode="&#xa6;" horiz-adv-x="471" d="M150 -339v748h170v-748h-170zM150 572v792h170v-792h-170z" />
<glyph unicode="&#xa7;" horiz-adv-x="919" d="M82 1214.5q0 64.5 28 130.5q30 66 78 115q105 106 255 106t256 -125t106 -300h-171q0 105 -56 179.5t-135 74.5t-135 -56t-56 -135q0 -113 68 -230q21 -36 46 -66l235 180q57 -40 109.5 -113t75.5 -117q52 -99 52 -201t-61 -213q60 -116 60 -240q0 -165 -133 -321 q-131 -153 -304 -205q-62 67 -116 119.5t-95 100.5q-88 103 -88 205q0 70 32 123.5t86 108.5q-117 134 -117 237q0 94 77 184q24 28 53 57q-104 123 -138 283q-12 54 -12 118.5zM270 109q0 -26 16 -53q16 -28 42 -60q48 -59 116 -124q103 59 145 111q78 100 78 221 q0 45 -11 82q-110 -99 -254 -144l-69 70q-29 -29 -46 -53t-17 -50zM270.5 570.5q0.5 -19.5 19.5 -50t47 -64.5q27 -34 59 -66l57 -57q19 -4 57 22q69 48 79 75l-241 259q-64 -41 -74 -84q-4 -15 -3.5 -34.5zM480 789l192 -195q6 31 6 60t-8.5 59.5t-21.5 58.5q-23 50 -57 98 z" />
<glyph unicode="&#xa8;" horiz-adv-x="700" d="M50 1410l119 282l177 -71l-138 -264zM355 1410l118 282l177 -71l-137 -264z" />
<glyph unicode="&#xa9;" horiz-adv-x="1514" d="M71 716q0 142 54 266.5t147 217.5t218 147t267 54t267 -54t218 -147t147 -217.5t54 -266.5t-54 -267t-147 -218t-218 -147t-267 -54t-267 54t-218 147t-147 218t-54 267zM241 716q0 -106 40.5 -200t110.5 -164q152 -152 365 -152q214 0 364 152q151 152 151 364 q0 213 -151 364t-364 151t-365 -151q-152 -150 -151 -364zM456 569v146q0 113 28 171q46 99 132 160l214 150l201 -382l-139 -83l-119 218l-59 -42q-88 -64 -88 -192v-146q0 -104 81 -148l203 158l100 -140l-270 -210q-284 82 -284 340z" />
<glyph unicode="&#xaa;" horiz-adv-x="748" d="M82 655v107q0 212 147 313l225 155l102 -53v-452q0 -99 130 -197l-97 -138q-99 72 -135 117l-131 -96q-163 33 -220 146q-21 42 -21 98zM253 655q0 -39 32 -57l102 74v309l-49 -37q-85 -64 -85 -182v-107z" />
<glyph unicode="&#xab;" horiz-adv-x="846" d="M40 514l273 462l148 -85l-223 -377l215 -375l-150 -83zM355 514l273 462l148 -85l-223 -377l215 -375l-150 -83z" />
<glyph unicode="&#xac;" horiz-adv-x="1090" d="M72 971v160h896v-521h-170v361h-726z" />
<glyph unicode="&#xad;" horiz-adv-x="777" d="M107 481v175l564 142v-175z" />
<glyph unicode="&#xae;" horiz-adv-x="1514" d="M71 716q0 142 54 266.5t147 217.5t218 147t267 54t267 -54t218 -147t147 -217.5t54 -266.5t-54 -267t-147 -218t-218 -147t-267 -54t-267 54t-218 147t-147 218t-54 267zM241 716q1 -168 99 -302q98 -133 250 -186v606q0 79 -109 152l93 143q115 -77 145 -134l170 174 q136 -146 208 -331l-143 -112q-45 135 -78 188l-116 -121v-593q212 2 362 153q150 152 150 363q0 136 -70 258q-103 179 -308 238q-66 19 -152.5 19t-180 -39t-164.5 -108q-156 -152 -156 -368z" />
<glyph unicode="&#xaf;" horiz-adv-x="898" d="M50 1402v160h798v-160h-798z" />
<glyph unicode="&#xb0;" horiz-adv-x="556" d="M40 1498q0 100 69.5 169.5t168.5 69.5q100 1 170 -69t70 -170t-70 -170t-170 -69q-99 0 -168.5 69.5t-69.5 169.5zM210 1497.5q0 -28.5 20 -48t48.5 -19.5t49 19.5t20.5 48t-20.5 49t-49 20.5t-48.5 -20.5t-20 -49z" />
<glyph unicode="&#xb1;" horiz-adv-x="1071" d="M84 667v170h362v363h171v-363h364v-170h-364v-362h-171v362h-362zM90 0v160h898v-160h-898z" />
<glyph unicode="&#xb2;" horiz-adv-x="885" d="M94 1279.5q0 62.5 25 114.5t71 90q99 82 259 83q221 -1 303 -157q28 -52 28 -119.5t-24 -115.5t-63 -87q-39 -40 -88 -72l-100 -63q-64 -38 -121.5 -80.5t-86.5 -93.5q38 -3 73 -9l152 -27q40 -7 85 -7q23 0 23 22q0 9 -12.5 16t-29.5 7l1 172q89 0 153 -57 q64 -56 63 -138q1 -80 -57 -138q-56 -56 -140 -56q-49 0 -109 12q-139 29 -200 31l18 -43h-188l-13 47q-14 49 -14 105.5t27 113.5t71 102q44 44 98 79l185 114q80 50 103 89t23 72q0 111 -166 111q-65 0 -95 -9q46 -44 46 -107q0 -99 -91 -139q-27 -12 -58 -12 q-61 0 -107 44q-44 43 -44 105.5z" />
<glyph unicode="&#xb3;" horiz-adv-x="887" d="M76 851q0 59 44 105q43 44 89.5 44.5t74 -11.5t48.5 -32q45 -43 45 -99t-41 -102q33 -12 86.5 -12t89.5 8q37 10 65 26q63 37 63 87.5t-28 82t-91 65.5q-15 -3 -36 -8l-85 -20q-20 -5 -35 -8l-27 135q138 28 208 70.5t70 100.5t-43 89.5t-97 31.5q-80 0 -123 -15 q40 -42 40 -87t-12 -72q-13 -28 -33 -48q-45 -44 -105 -44q-62 0 -106 44t-44 109t27.5 117t75.5 88q98 72 261 71q151 0 244 -82q88 -78 88 -195q-1 -94 -59 -154q-20 -21 -48 -42q131 -104 131 -220q-1 -129 -109 -219t-266 -90q-160 1 -258 75q-104 78 -104 211z" />
<glyph unicode="&#xb4;" horiz-adv-x="565" d="M50 1441l349 254l116 -158l-375 -238z" />
<glyph unicode="&#xb5;" horiz-adv-x="935" d="M64 1139l102 135q158 -123 188 -250q10 -41 10 -107t-6 -135q-8 -69 -16 -128q-22 -149 -21.5 -208t8.5 -88.5t21 -57.5q23 -50 62 -106l178 152v882h170v-961q0 -84 110 -153l-95 -143q-127 78 -164 175l-207 -175l-98 156q0 -180 184 -337l-111 -131q-143 121 -195 276 q-44 132 -44 388q0 80 18.5 224.5t27 226.5t8.5 172.5t-130 192.5z" />
<glyph unicode="&#xb6;" horiz-adv-x="1600" d="M69 1024q0 147 50.5 240.5t139.5 153.5q173 118 478 118h800v-171h-151v-1006q0 -162 -13 -237.5t-35 -137.5q-24 -63 -64 -117q-89 -119 -255 -167l-43 165q228 66 238 401q2 49 2 93v1006h-242v-1365h-171v1365h-66q-351 0 -461 -180q-38 -61 -37.5 -135.5t22.5 -121 t58 -80.5t82 -59.5t94.5 -49.5t94.5 -50t82 -61q80 -78 80 -199q0 -135 -112 -213q-98 -68 -244 -67v171q125 0 169 58q16 21 16 54t-22 58t-58 46t-82 41.5t-94 46.5t-94 60.5t-82 83.5q-80 109 -80 256z" />
<glyph unicode="&#xb7;" horiz-adv-x="402" d="M102 746l29 393l171 -11l-30 -393z" />
<glyph unicode="&#xb8;" horiz-adv-x="538" d="M50 -106l221 130h217l-203 -160q78 -49 78 -141q0 -83 -83 -135q-79 -50 -194 -50v171q76 0 87 10.5t11 23.5q0 24 -25.5 28t-75.5 4z" />
<glyph unicode="&#xb9;" horiz-adv-x="514" d="M24 1294q29 83 95 135l184 138l101 -52v-572q0 -219 -93 -379l-157 82q77 131 77 278v376q-39 -39 -53 -90z" />
<glyph unicode="&#xba;" horiz-adv-x="641" d="M101 469v396q0 172 123 265l132 100q219 -144 219 -316v-91q-1 -76 -17 -115q-30 -70 -107 -125l-234 -172zM271 658l80 57q54 39 54 108v91q0 57 -47 104l-33 -25q-54 -43 -54 -128v-207z" />
<glyph unicode="&#xbb;" horiz-adv-x="857" d="M70 891l148 85l273 -462l-262 -457l-150 83l214 374zM395 891l148 85l273 -462l-262 -457l-150 83l214 374z" />
<glyph unicode="&#xbc;" horiz-adv-x="1650" d="M57 1147q29 83 95 135l184 138l101 -52v-572q0 -219 -93 -379l-157 82q77 131 77 278v376q-39 -39 -53 -90zM200 46l840 1326l135 -101l-837 -1319zM866 295v98q0 110 93 224l319 382q196 -82 196 -274v-263h114v-167h-114q0 -215 -198 -311l-108 135q133 68 133 176 h-435zM1057 462h244v297z" />
<glyph unicode="&#xbd;" horiz-adv-x="1822" d="M55 1147q29 83 95 135l184 138l101 -52v-572q0 -219 -93 -379l-157 82q77 131 77 278v376q-39 -39 -53 -90zM249 46l840 1326l135 -101l-837 -1319zM1027.5 716.5q-0.5 62.5 24.5 114.5q25 53 71 91q99 82 259 82q222 0 304 -156q28 -52 27.5 -120t-24.5 -116t-63 -87 t-88 -71l-100 -64q-64 -38 -121.5 -80.5t-86.5 -93.5q38 -2 73 -8l153 -28q40 -7 84 -7q23 0 23 22q0 9 -12.5 16t-29.5 7l1 172q88 0 152 -57q64 -56 64 -138q0 -79 -58 -137q-56 -56 -139 -57q-49 1 -109 13q-139 29 -200 30l18 -43h-188l-14 47q-14 49 -13.5 105.5 t27.5 113.5t70.5 101.5t97.5 79.5l186 114q80 50 103 89t23 72q0 111 -166 111q-65 0 -95 -9q46 -44 46 -107q0 -99 -91 -139q-27 -12 -58 -12q-60 0 -106 44q-44 43 -44.5 105.5z" />
<glyph unicode="&#xbe;" horiz-adv-x="2009" d="M82 712q0 60 44 106q43 44 89.5 44t74 -12t48.5 -32q45 -43 45 -99t-41 -102q33 -12 86.5 -12t90 8.5t64.5 24.5q63 37 63 88t-28 82.5t-91 65.5q-15 -3 -36 -8l-85 -20q-20 -5 -35 -8l-27 135q138 28 208 70.5t70 100.5t-43 89.5t-97 31.5q-80 0 -123 -15q40 -42 40 -87 t-12 -73q-13 -27 -33 -47q-45 -44 -105 -44q-62 0 -106 44t-44 109t27 117q28 51 76 87q98 72 261 72q151 0 244 -82q88 -78 88 -195q-1 -94 -59 -154q-20 -21 -48 -42q131 -104 131 -220q-1 -129 -109 -219t-266 -90q-160 0 -258 74q-104 78 -104 212zM542 46l840 1326 l135 -101l-837 -1319zM1226 295v98q0 110 93 224l319 382q196 -82 196 -274v-263h114v-167h-114q0 -215 -198 -311l-108 135q133 68 133 176h-435zM1417 462h244v297z" />
<glyph unicode="&#xbf;" horiz-adv-x="866" d="M55 1q0 193 185 313q52 34 96 57l77 43q72 41 93 75t21 60.5t-8.5 46.5t-23.5 35q-32 32 -78 32q-45 1 -69 -23q-40 -40 -41 -87h-166q0 115 82 197t197 82t196.5 -81.5t81.5 -196.5q0 -168 -175 -274q-49 -30 -92 -52.5t-79 -45.5q-36 -22 -64 -50q-63 -62 -63 -131 q0 -74 57 -127q59 -55 150 -55q90 0 150 47q56 44 55 104q0 90 -97 90v170q184 0 247 -144q21 -48 21 -112.5t-28 -123.5q-26 -58 -76 -103q-109 -99 -272 -99q-165 0 -272 103q-105 101 -105 250zM322 890l30 393l171 -11l-30 -393z" />
<glyph unicode="&#xc0;" d="M68 89q316 227 542 499q264 318 264 555q0 173 -182 231q-60 20 -140 19q-230 0 -230 -134q0 -68 70 -141q30 -31 64 -62.5t64 -69.5q70 -90 69 -194q0 -95 -65.5 -160.5t-160.5 -65.5q-93 0 -157 66q-65 66 -65 160q0 110 89 178q27 20 60 32q-68 50 -93 87 q-50 74 -50 155.5t23 137.5q24 57 72 98q103 87 310 87q334 -1 450 -227q40 -80 40.5 -172t-14.5 -157.5t-40 -126t-57 -116.5l-65 -109l62 -63l145 101v470q1 174 121 289q116 111 286 111v-173q-126 0 -186 -88q-52 -76 -51 -205v-703q-1 -119 131 -222q40 -31 86 -62 l-100 -144q-140 95 -190 160q-97 125 -97 263v103l-158 -116l-152 139q-195 -245 -429 -443q-74 -62 -138 -106zM311 789.5q0 -22.5 15.5 -38t38 -15.5t38.5 15.5t16 38t-16 38.5t-38.5 16t-38 -16t-15.5 -38.5zM667 1837l116 158l348 -254l-91 -143z" />
<glyph unicode="&#xc1;" d="M68 89q316 227 542 499q264 318 264 555q0 173 -182 231q-60 20 -140 19q-230 0 -230 -134q0 -68 70 -141q30 -31 64 -62.5t64 -69.5q70 -90 69 -194q0 -95 -65.5 -160.5t-160.5 -65.5q-93 0 -157 66q-65 66 -65 160q0 110 89 178q27 20 60 32q-68 50 -93 87 q-50 74 -50 155.5t23 137.5q24 57 72 98q103 87 310 87q334 -1 450 -227q40 -80 40.5 -172t-14.5 -157.5t-40 -126t-57 -116.5l-65 -109l62 -63l145 101v470q1 174 121 289q116 111 286 111v-173q-126 0 -186 -88q-52 -76 -51 -205v-703q-1 -119 131 -222q40 -31 86 -62 l-100 -144q-140 95 -190 160q-97 125 -97 263v103l-158 -116l-152 139q-195 -245 -429 -443q-74 -62 -138 -106zM311 789.5q0 -22.5 15.5 -38t38 -15.5t38.5 15.5t16 38t-16 38.5t-38.5 16t-38 -16t-15.5 -38.5zM982 1741l349 254l116 -158l-375 -238z" />
<glyph unicode="&#xc2;" d="M68 89q316 227 542 499q264 318 264 555q0 173 -182 231q-60 20 -140 19q-230 0 -230 -134q0 -68 70 -141q30 -31 64 -62.5t64 -69.5q70 -90 69 -194q0 -95 -65.5 -160.5t-160.5 -65.5q-93 0 -157 66q-65 66 -65 160q0 110 89 178q27 20 60 32q-68 50 -93 87 q-50 74 -50 155.5t23 137.5q24 57 72 98q103 87 310 87q334 -1 450 -227q40 -80 40.5 -172t-14.5 -157.5t-40 -126t-57 -116.5l-65 -109l62 -63l145 101v470q1 174 121 289q116 111 286 111v-173q-126 0 -186 -88q-52 -76 -51 -205v-703q-1 -119 131 -222q40 -31 86 -62 l-100 -144q-140 95 -190 160q-97 125 -97 263v103l-158 -116l-152 139q-195 -245 -429 -443q-74 -62 -138 -106zM311 789.5q0 -22.5 15.5 -38t38 -15.5t38.5 15.5t16 38t-16 38.5t-38.5 16t-38 -16t-15.5 -38.5zM705 1745l361 252l348 -252l-103 -136l-245 181 q-28 -24 -72 -54l-186 -127z" />
<glyph unicode="&#xc3;" d="M68 89q316 227 542 499q264 318 264 555q0 173 -182 231q-60 20 -140 19q-230 0 -230 -134q0 -68 70 -141q30 -31 64 -62.5t64 -69.5q70 -90 69 -194q0 -95 -65.5 -160.5t-160.5 -65.5q-93 0 -157 66q-65 66 -65 160q0 110 89 178q27 20 60 32q-68 50 -93 87 q-50 74 -50 155.5t23 137.5q24 57 72 98q103 87 310 87q334 -1 450 -227q40 -80 40.5 -172t-14.5 -157.5t-40 -126t-57 -116.5l-65 -109l62 -63l145 101v470q1 174 121 289q116 111 286 111v-173q-126 0 -186 -88q-52 -76 -51 -205v-703q-1 -119 131 -222q40 -31 86 -62 l-100 -144q-140 95 -190 160q-97 125 -97 263v103l-158 -116l-152 139q-195 -245 -429 -443q-74 -62 -138 -106zM311 789.5q0 -22.5 15.5 -38t38 -15.5t38.5 15.5t16 38t-16 38.5t-38.5 16t-38 -16t-15.5 -38.5zM640 1708q86 160 204 211q40 17 80 17t73 -20t61 -44l52 -44 q25 -20 48 -20t43 12q20 14 39 34q37 40 70 101l149 -83q-85 -152 -203 -215q-38 -20 -76.5 -20t-72.5 20t-62 44l-51 44q-23 20 -46 20q-86 0 -159 -141z" />
<glyph unicode="&#xc4;" d="M68 89q316 227 542 499q264 318 264 555q0 173 -182 231q-60 20 -140 19q-230 0 -230 -134q0 -68 70 -141q30 -31 64 -62.5t64 -69.5q70 -90 69 -194q0 -95 -65.5 -160.5t-160.5 -65.5q-93 0 -157 66q-65 66 -65 160q0 110 89 178q27 20 60 32q-68 50 -93 87 q-50 74 -50 155.5t23 137.5q24 57 72 98q103 87 310 87q334 -1 450 -227q40 -80 40.5 -172t-14.5 -157.5t-40 -126t-57 -116.5l-65 -109l62 -63l145 101v470q1 174 121 289q116 111 286 111v-173q-126 0 -186 -88q-52 -76 -51 -205v-703q-1 -119 131 -222q40 -31 86 -62 l-100 -144q-140 95 -190 160q-97 125 -97 263v103l-158 -116l-152 139q-195 -245 -429 -443q-74 -62 -138 -106zM311 789.5q0 -22.5 15.5 -38t38 -15.5t38.5 15.5t16 38t-16 38.5t-38.5 16t-38 -16t-15.5 -38.5zM806 1710l119 282l177 -71l-138 -264zM1111 1710l118 282 l177 -71l-137 -264z" />
<glyph unicode="&#xc5;" d="M68 89q316 227 542 499q264 318 264 555q0 173 -182 231q-60 20 -140 19q-230 0 -230 -134q0 -68 70 -141q30 -31 64 -62.5t64 -69.5q70 -90 69 -194q0 -95 -65.5 -160.5t-160.5 -65.5q-93 0 -157 66q-65 66 -65 160q0 110 89 178q27 20 60 32q-68 50 -93 87 q-50 74 -50 155.5t23 137.5q24 57 72 98q103 87 310 87q334 -1 450 -227q40 -80 40.5 -172t-14.5 -157.5t-40 -126t-57 -116.5l-65 -109l62 -63l145 101v470q1 174 121 289q116 111 286 111v-173q-126 0 -186 -88q-52 -76 -51 -205v-703q-1 -119 131 -222q40 -31 86 -62 l-100 -144q-140 95 -190 160q-97 125 -97 263v103l-158 -116l-152 139q-195 -245 -429 -443q-74 -62 -138 -106zM311 789.5q0 -22.5 15.5 -38t38 -15.5t38.5 15.5t16 38t-16 38.5t-38.5 16t-38 -16t-15.5 -38.5zM843 1798q0 88 62 152q61 62 152 63q92 -1 153 -63 q63 -64 63 -152t-63 -152q-61 -62 -153 -63q-91 1 -152 63q-62 64 -62 152zM991 1797.5q0 -28.5 20 -48t48.5 -19.5t49 19.5t20.5 48t-20.5 49t-49 20.5t-48.5 -20.5t-20 -49z" />
<glyph unicode="&#xc6;" horiz-adv-x="2480" d="M64 89q316 227 542 499q264 318 264 555q0 173 -182 231q-60 20 -128 19.5t-112.5 -11t-75.5 -28.5q-63 -38 -63 -91t22.5 -87.5t56 -64t73 -57.5t73.5 -62q78 -81 78 -184q0 -94 -66 -158q-66 -65 -158 -65q-93 0 -158 65q-65 64 -65 144q0 150 121 213q-69 54 -97 92 q-53 74 -53 151t28 135.5t82 98.5q109 82 302 83q334 -1 450 -227q40 -80 40.5 -172t-14.5 -157.5t-40 -126t-57 -116.5l-65 -109l62 -63l145 101v470q1 174 121 289q116 111 286 111q117 0 177 -76l102 126q64 -203 145 -276q30 -27 62 -27t56 16t41 46q35 61 35 161h174 q0 -177 -80 -285q-84 -113 -235 -113t-249 136l-72 -88q-30 -38 -30 -64t12 -44.5t32 -34.5q21 -16 47 -32l107 -61q26 -15 52 -33q36 77 72 108q65 55 145 55q75 0 143 -57v107h170q0 -138 -18.5 -188t-49 -75t-74 -25t-62.5 10q-18 10 -32 22l-26 22q-12 10 -31 10 t-34.5 -10.5t-27.5 -27.5q-19 -27 -39 -84q48 -79 48 -161t-24 -138t-66 -98q-91 -90 -217 -89q-127 0 -216.5 89.5t-89.5 216.5q0 93 52 170l138 -102q-18 -30 -18 -63t10.5 -57t28.5 -42q39 -39 94 -39q56 0 95 39t39 86.5t-18 80t-47 59.5t-65 49l-69 42 q-113 62 -154 104q-82 84 -82 186q0 98 71 180q27 32 27 56q0 40 -58 40t-103.5 -24t-73.5 -64q-52 -76 -51 -205v-513q0 -415 474 -415q203 -1 351 141q113 108 185 293l162 -64q-85 -221 -239 -366q-190 -178 -461 -178q-610 0 -640 498l-160 -117l-152 139 q-195 -245 -429 -443q-74 -62 -138 -106zM317 806q0 -30 21 -51t51 -21t51.5 21t21.5 51t-21.5 51.5t-51.5 21.5t-51 -21.5t-21 -51.5z" />
<glyph unicode="&#xc7;" horiz-adv-x="1565" d="M90 758q0 365 212 593q201 216 478 216q116 0 222 -41q38 -15 66 -37q44 -176 133.5 -176t128.5 179l171 -33q-53 -249 -205 -305q-46 -16 -93 -16q-92 0 -149 75q-13 -99 -121 -187q-46 -38 -97.5 -71.5t-95.5 -69.5q-100 -83 -100 -174q0 -101 124 -140q45 -14 111 -14 v-174q-212 0 -320 106q-90 88 -90 222q1 164 135 283q38 34 78 64l78 56q134 93 134 177v92q-26 5 -57 7l-53 2q-202 -6 -352 -174q-101 -112 -142 -280q-21 -84 -21 -199.5t35 -223.5q36 -107 104 -183q141 -156 398 -157q263 -1 441 217q65 79 95 156l162 -64 q-62 -152 -190 -276q-169 -164 -392 -199l-184 -145q78 -49 78 -141q0 -83 -83 -135q-79 -50 -194 -50v171q76 0 87 10.5t11 23.5q0 24 -25.5 28t-75.5 4l-33 119l190 112q-303 34 -459 251q-140 196 -140 501z" />
<glyph unicode="&#xc8;" horiz-adv-x="1530" d="M97 776q0 377 137 597q61 98 137.5 146t154.5 48q117 0 177 -76l93 115l-359 231l116 158l348 -254l-91 -142q97 -285 203 -285q60 0 96 62q35 61 35 161h174q0 -177 -80 -285q-84 -113 -235 -113t-249 136l-72 -88q-30 -38 -30 -64t12 -44.5t32 -34.5q21 -16 47 -32 l107 -61q26 -15 52 -33q36 77 72 108q65 55 145 55q75 0 143 -57v107h170q0 -138 -18.5 -188t-49 -75t-74 -25t-62.5 10q-18 10 -32 22l-26 22q-12 10 -31 10t-34.5 -10.5t-27.5 -27.5q-19 -27 -39 -84q48 -79 48 -161t-24 -138t-66 -98q-91 -90 -217 -89 q-127 0 -216.5 89.5t-89.5 216.5q0 93 52 170l138 -102q-18 -30 -18 -63t10.5 -57t28.5 -42q39 -39 94 -39q56 0 95 39t39 86.5t-18 80t-47 59.5t-65 49l-69 42q-113 62 -154 104q-82 84 -82 186q0 98 71 180q27 32 27 56q0 39 -47.5 39t-93 -37.5t-81.5 -113.5 q-81 -172 -81 -466t157 -458q139 -145 352 -145q191 -1 336 141q111 108 182 293l162 -64q-83 -222 -235 -366q-186 -178 -445 -178q-281 1 -471 187q-212 209 -213 590z" />
<glyph unicode="&#xc9;" horiz-adv-x="1530" d="M97 776q0 377 137 597q61 98 137.5 146t154.5 48q117 0 177 -76l94 116l-84 134l349 254l116 -158l-369 -234q63 -193 143 -263q30 -26 61 -26t55 16t41 46q35 61 35 161h174q0 -177 -80 -285q-84 -113 -235 -113t-249 136l-72 -88q-30 -38 -30 -64t12 -44.5t32 -34.5 q21 -16 47 -32l107 -61q26 -15 52 -33q36 77 72 108q65 55 145 55q75 0 143 -57v107h170q0 -138 -18.5 -188t-49 -75t-74 -25t-62.5 10q-18 10 -32 22l-26 22q-12 10 -31 10t-34.5 -10.5t-27.5 -27.5q-19 -27 -39 -84q48 -79 48 -161t-24 -138t-66 -98q-91 -90 -217 -89 q-127 0 -216.5 89.5t-89.5 216.5q0 93 52 170l138 -102q-18 -30 -18 -63t10.5 -57t28.5 -42q39 -39 94 -39q56 0 95 39t39 86.5t-18 80t-47 59.5t-65 49l-69 42q-113 62 -154 104q-82 84 -82 186q0 98 71 180q27 32 27 56q0 39 -47.5 39t-93 -37.5t-81.5 -113.5 q-81 -172 -81 -466t157 -458q139 -145 352 -145q191 -1 336 141q111 108 182 293l162 -64q-83 -222 -235 -366q-186 -178 -445 -178q-281 1 -471 187q-212 209 -213 590z" />
<glyph unicode="&#xca;" horiz-adv-x="1530" d="M97 776q0 377 137 597q61 98 137.5 146t154.5 48q117 0 177 -76l102 126q64 -203 145 -276q30 -27 62 -27t56 16t41 46q35 61 35 161h174q0 -177 -80 -285q-84 -113 -235 -113t-249 136l-72 -88q-30 -38 -30 -64t12 -44.5t32 -34.5q21 -16 47 -32l107 -61q26 -15 52 -33 q36 77 72 108q65 55 145 55q75 0 143 -57v107h170q0 -138 -18.5 -188t-49 -75t-74 -25t-62.5 10q-18 10 -32 22l-26 22q-12 10 -31 10t-34.5 -10.5t-27.5 -27.5q-19 -27 -39 -84q48 -79 48 -161t-24 -138t-66 -98q-91 -90 -217 -89q-127 0 -216.5 89.5t-89.5 216.5 q0 93 52 170l138 -102q-18 -30 -18 -63t10.5 -57t28.5 -42q39 -39 94 -39q56 0 95 39t39 86.5t-18 80t-47 59.5t-65 49l-69 42q-113 62 -154 104q-82 84 -82 186q0 98 71 180q27 32 27 56q0 39 -47.5 39t-93 -37.5t-81.5 -113.5q-81 -172 -81 -466t157 -458 q139 -145 352 -145q191 -1 336 141q111 108 182 293l162 -64q-83 -222 -235 -366q-186 -178 -445 -178q-281 1 -471 187q-212 209 -213 590zM498 1745l361 252l348 -252l-103 -136l-245 181q-29 -24 -73 -54l-185 -127z" />
<glyph unicode="&#xcb;" horiz-adv-x="1530" d="M97 776q0 377 137 597q61 98 137.5 146t154.5 48q117 0 177 -76l102 126q64 -203 145 -276q30 -27 62 -27t56 16t41 46q35 61 35 161h174q0 -177 -80 -285q-84 -113 -235 -113t-249 136l-72 -88q-30 -38 -30 -64t12 -44.5t32 -34.5q21 -16 47 -32l107 -61q26 -15 52 -33 q36 77 72 108q65 55 145 55q75 0 143 -57v107h170q0 -138 -18.5 -188t-49 -75t-74 -25t-62.5 10q-18 10 -32 22l-26 22q-12 10 -31 10t-34.5 -10.5t-27.5 -27.5q-19 -27 -39 -84q48 -79 48 -161t-24 -138t-66 -98q-91 -90 -217 -89q-127 0 -216.5 89.5t-89.5 216.5 q0 93 52 170l138 -102q-18 -30 -18 -63t10.5 -57t28.5 -42q39 -39 94 -39q56 0 95 39t39 86.5t-18 80t-47 59.5t-65 49l-69 42q-113 62 -154 104q-82 84 -82 186q0 98 71 180q27 32 27 56q0 39 -47.5 39t-93 -37.5t-81.5 -113.5q-81 -172 -81 -466t157 -458 q139 -145 352 -145q191 -1 336 141q111 108 182 293l162 -64q-83 -222 -235 -366q-186 -178 -445 -178q-281 1 -471 187q-212 209 -213 590zM558 1710l119 282l177 -71l-138 -264zM863 1710l118 282l177 -71l-137 -264z" />
<glyph unicode="&#xcc;" horiz-adv-x="1643" d="M96 1178q0 141 108 259q118 130 288 130q164 1 344 -159q114 -101 179.5 -137.5t123.5 -43.5q-31 53 -31 107.5t18 95.5q17 42 47 72q64 66 158 65q93 0 158.5 -65.5t65.5 -147.5t-33.5 -136t-87.5 -91.5t-121.5 -56.5t-149 -19t-178.5 41l-157 -124q23 -52 54 -98 l127 -184q110 -165 110 -330q0 -98 -47 -176q13 -4 33 -5l31 -1q12 0 37 -0.5t63 16t66 44.5q62 62 62 148t-62 148t-149 61v175q159 0 271.5 -112.5t112.5 -271.5q-1 -160 -113 -271q-113 -112 -271 -112q-195 0 -397 158q-124 97 -198 127.5t-128 30.5t-82 -10 q-26 -11 -44 -25q-32 -27 -32.5 -53t14 -41.5t37.5 -15.5v-170q-93 0 -157 66q-65 66 -65 160q-1 104 75 178q88 86 239 85q206 -1 397 -149l105 -79q28 43 28 104.5t-22 117t-55 104.5t-72 95t-72 99q-77 124 -77 266l177 140q-32 23 -72 58q-38 35 -82 68q-105 80 -167 80 t-103 -21q-42 -20 -70 -52q-60 -66 -59.5 -129t20 -101t55.5 -64q71 -52 190 -52v-174q-198 0 -316 96q-124 101 -124 282zM547 1875l116 158l348 -254l-91 -143zM1277 1342.5q0 -22.5 15.5 -38t38 -15.5t38.5 15.5t16 38t-16 38.5t-38.5 16t-38 -16t-15.5 -38.5z" />
<glyph unicode="&#xcd;" horiz-adv-x="1643" d="M96 1178q0 141 108 259q118 130 288 130q164 1 344 -159q114 -101 179.5 -137.5t123.5 -43.5q-31 53 -31 107.5t18 95.5q17 42 47 72q64 66 158 65q93 0 158.5 -65.5t65.5 -147.5t-33.5 -136t-87.5 -91.5t-121.5 -56.5t-149 -19t-178.5 41l-157 -124q23 -52 54 -98 l127 -184q110 -165 110 -330q0 -98 -47 -176q13 -4 33 -5l31 -1q12 0 37 -0.5t63 16t66 44.5q62 62 62 148t-62 148t-149 61v175q159 0 271.5 -112.5t112.5 -271.5q-1 -160 -113 -271q-113 -112 -271 -112q-195 0 -397 158q-124 97 -198 127.5t-128 30.5t-82 -10 q-26 -11 -44 -25q-32 -27 -32.5 -53t14 -41.5t37.5 -15.5v-170q-93 0 -157 66q-65 66 -65 160q-1 104 75 178q88 86 239 85q206 -1 397 -149l105 -79q28 43 28 104.5t-22 117t-55 104.5t-72 95t-72 99q-77 124 -77 266l177 140q-32 23 -72 58q-38 35 -82 68q-105 80 -167 80 t-103 -21q-42 -20 -70 -52q-60 -66 -59.5 -129t20 -101t55.5 -64q71 -52 190 -52v-174q-198 0 -316 96q-124 101 -124 282zM970 1779l349 254l116 -158l-375 -238zM1277 1342.5q0 -22.5 15.5 -38t38 -15.5t38.5 15.5t16 38t-16 38.5t-38.5 16t-38 -16t-15.5 -38.5z" />
<glyph unicode="&#xce;" horiz-adv-x="1643" d="M96 1178q0 141 108 259q118 130 288 130q164 1 344 -159q114 -101 179.5 -137.5t123.5 -43.5q-31 53 -31 107.5t18 95.5q17 42 47 72q64 66 158 65q93 0 158.5 -65.5t65.5 -147.5t-33.5 -136t-87.5 -91.5t-121.5 -56.5t-149 -19t-178.5 41l-157 -124q23 -52 54 -98 l127 -184q110 -165 110 -330q0 -98 -47 -176q13 -4 33 -5l31 -1q12 0 37 -0.5t63 16t66 44.5q62 62 62 148t-62 148t-149 61v175q159 0 271.5 -112.5t112.5 -271.5q-1 -160 -113 -271q-113 -112 -271 -112q-195 0 -397 158q-124 97 -198 127.5t-128 30.5t-82 -10 q-26 -11 -44 -25q-32 -27 -32.5 -53t14 -41.5t37.5 -15.5v-170q-93 0 -157 66q-65 66 -65 160q-1 104 75 178q88 86 239 85q206 -1 397 -149l105 -79q28 43 28 104.5t-22 117t-55 104.5t-72 95t-72 99q-77 124 -77 266l177 140q-32 23 -72 58q-38 35 -82 68q-105 80 -167 80 t-103 -21q-42 -20 -70 -52q-60 -66 -59.5 -129t20 -101t55.5 -64q71 -52 190 -52v-174q-198 0 -316 96q-124 101 -124 282zM584 1783l361 252l348 -252l-103 -136l-245 181q-29 -24 -73 -54l-185 -127zM1277 1342.5q0 -22.5 15.5 -38t38 -15.5t38.5 15.5t16 38t-16 38.5 t-38.5 16t-38 -16t-15.5 -38.5z" />
<glyph unicode="&#xcf;" horiz-adv-x="1643" d="M96 1178q0 141 108 259q118 130 288 130q164 1 344 -159q114 -101 179.5 -137.5t123.5 -43.5q-31 53 -31 107.5t18 95.5q17 42 47 72q64 66 158 65q93 0 158.5 -65.5t65.5 -147.5t-33.5 -136t-87.5 -91.5t-121.5 -56.5t-149 -19t-178.5 41l-157 -124q23 -52 54 -98 l127 -184q110 -165 110 -330q0 -98 -47 -176q13 -4 33 -5l31 -1q12 0 37 -0.5t63 16t66 44.5q62 62 62 148t-62 148t-149 61v175q159 0 271.5 -112.5t112.5 -271.5q-1 -160 -113 -271q-113 -112 -271 -112q-195 0 -397 158q-124 97 -198 127.5t-128 30.5t-82 -10 q-26 -11 -44 -25q-32 -27 -32.5 -53t14 -41.5t37.5 -15.5v-170q-93 0 -157 66q-65 66 -65 160q-1 104 75 178q88 86 239 85q206 -1 397 -149l105 -79q28 43 28 104.5t-22 117t-55 104.5t-72 95t-72 99q-77 124 -77 266l177 140q-32 23 -72 58q-38 35 -82 68q-105 80 -167 80 t-103 -21q-42 -20 -70 -52q-60 -66 -59.5 -129t20 -101t55.5 -64q71 -52 190 -52v-174q-198 0 -316 96q-124 101 -124 282zM717 1748l119 282l177 -71l-138 -264zM1022 1748l118 282l177 -71l-137 -264zM1277 1342.5q0 -22.5 15.5 -38t38 -15.5t38.5 15.5t16 38t-16 38.5 t-38.5 16t-38 -16t-15.5 -38.5z" />
<glyph unicode="&#xd0;" horiz-adv-x="1724" d="M89 1105q0 93 42.5 179t122.5 149q170 135 448 135q247 0 474 -136q209 -125 339 -330.5t130 -413.5q1 -282 -157 -480q-165 -207 -418 -207q-163 1 -304 129l-76 70q-94 89 -148 117q21 -44 21 -92.5t-17.5 -89t-47.5 -70.5q-66 -65 -159 -65t-158 65t-65 142t28 123 t74 78q93 64 198 64.5t169.5 -21.5t118 -55t99 -72t89.5 -72q103 -77 189.5 -77t158.5 43q70 42 122 113q108 150 109 357q-1 213 -175 415q-108 127 -262 207q-76 40 -158 61l-288 -276q62 -90 182 -159q33 -19 61 -31h288v-171h-210q-1 -95 -67 -160q-64 -63 -157 -63 t-158 65t-65 158q-256 0 -341 202q-32 76 -32 169zM264 1101q0 -129 103 -179q34 -16 80 -17h97q-77 49 -105 85q-54 69 -54 151l260 250q-175 -14 -280 -97q-101 -80 -101 -193zM268 224q0 -30 21 -51t51 -21t51.5 21t21.5 51t-21.5 51.5t-51.5 21.5t-51 -21.5t-21 -51.5z M615 734q0 -30 21 -51t51 -21t51.5 21t21.5 51h-145z" />
<glyph unicode="&#xd1;" horiz-adv-x="1729" d="M39 77q153 202 275 232q36 9 70 9q106 0 155 -86q265 396 265 728q0 187 -88 312q-86 121 -212 121q-81 0 -122 -37.5t-41 -88.5t20 -84.5t49.5 -64.5t63.5 -62q34 -32 64 -70q70 -90 70 -194q0 -95 -65.5 -160.5t-160.5 -65.5q-93 0 -157 66q-65 66 -65 160 q0 110 89 178q27 20 60 32q-68 50 -93 87q-50 74 -50 155.5t21.5 138t64.5 97.5q91 87 252 87q272 0 417 -313l224 -491q38 234 221 457q108 131 139 205t31 143h174q0 -182 -128 -343l-74 -93q-99 -125 -132 -201q-69 -154 -69 -303t27 -232q28 -82 70 -132q78 -90 193 -90 v-174q-203 0 -329 136q-46 49 -79 120l-230 501q-61 -325 -395 -785l-119 46q1 95 -29 116q-12 9 -34 9q-73 0 -204 -172zM330 789.5q0 -22.5 15.5 -38t38 -15.5t38.5 15.5t16 38t-16 38.5t-38.5 16t-38 -16t-15.5 -38.5zM804 1746q86 160 204 211q40 17 80 17t73 -20 t61 -44l52 -44q25 -20 48 -20t43 12q20 14 39 34q37 40 70 101l149 -83q-85 -152 -203 -215q-38 -20 -76.5 -20t-72.5 20t-62 44l-51 44q-23 20 -46 20q-86 0 -159 -141z" />
<glyph unicode="&#xd2;" horiz-adv-x="1657" d="M24 714h170q0 -38 26 -64t64 -26t64.5 26t26.5 67.5t-14 76t-35.5 66t-45.5 62.5q-24 30 -46 66q-50 82 -50 181t43 173.5t122 124.5q160 101 438 101q215 0 398 -106q179 -104 283 -280q108 -182 108 -396t-107 -397q-104 -178 -282 -282q-183 -107 -397 -107 q-264 0 -482 176q-70 56 -127 125l137 111q93 -110 214 -174t231.5 -64t188.5 22t146 61.5t124 95.5t96 124q84 143 84 289.5t-48 257.5q-48 110 -132 192q-180 178 -435 178q-309 0 -398 -121q-31 -42 -31 -93t14 -85t35 -64t46 -60t46 -67q49 -86 49 -192 q0 -109 -76.5 -185.5t-185.5 -76.5q-110 0 -186 78t-76 186zM454 1837l116 158l348 -254l-91 -143z" />
<glyph unicode="&#xd3;" horiz-adv-x="1657" d="M24 714h170q0 -38 26 -64t64 -26t64.5 26t26.5 67.5t-14 76t-35.5 66t-45.5 62.5q-24 30 -46 66q-50 82 -50 181t43 173.5t122 124.5q160 101 438 101q215 0 398 -106q179 -104 283 -280q108 -182 108 -396t-107 -397q-104 -178 -282 -282q-183 -107 -397 -107 q-264 0 -482 176q-70 56 -127 125l137 111q93 -110 214 -174t231.5 -64t188.5 22t146 61.5t124 95.5t96 124q84 143 84 289.5t-48 257.5q-48 110 -132 192q-180 178 -435 178q-309 0 -398 -121q-31 -42 -31 -93t14 -85t35 -64t46 -60t46 -67q49 -86 49 -192 q0 -109 -76.5 -185.5t-185.5 -76.5q-110 0 -186 78t-76 186zM655 1741l349 254l116 -158l-375 -238z" />
<glyph unicode="&#xd4;" horiz-adv-x="1657" d="M24 714h170q0 -38 26 -64t64 -26t64.5 26t26.5 67.5t-14 76t-35.5 66t-45.5 62.5q-24 30 -46 66q-50 82 -50 181t43 173.5t122 124.5q160 101 438 101q215 0 398 -106q179 -104 283 -280q108 -182 108 -396t-107 -397q-104 -178 -282 -282q-183 -107 -397 -107 q-264 0 -482 176q-70 56 -127 125l137 111q93 -110 214 -174t231.5 -64t188.5 22t146 61.5t124 95.5t96 124q84 143 84 289.5t-48 257.5q-48 110 -132 192q-180 178 -435 178q-309 0 -398 -121q-31 -42 -31 -93t14 -85t35 -64t46 -60t46 -67q49 -86 49 -192 q0 -109 -76.5 -185.5t-185.5 -76.5q-110 0 -186 78t-76 186zM451 1745l361 252l348 -252l-103 -136l-245 181q-28 -24 -72 -54l-186 -127z" />
<glyph unicode="&#xd5;" horiz-adv-x="1657" d="M24 714h170q0 -38 26 -64t64 -26t64.5 26t26.5 67.5t-14 76t-35.5 66t-45.5 62.5q-24 30 -46 66q-50 82 -50 181t43 173.5t122 124.5q160 101 438 101q215 0 398 -106q179 -104 283 -280q108 -182 108 -396t-107 -397q-104 -178 -282 -282q-183 -107 -397 -107 q-264 0 -482 176q-70 56 -127 125l137 111q93 -110 214 -174t231.5 -64t188.5 22t146 61.5t124 95.5t96 124q84 143 84 289.5t-48 257.5q-48 110 -132 192q-180 178 -435 178q-309 0 -398 -121q-31 -42 -31 -93t14 -85t35 -64t46 -60t46 -67q49 -86 49 -192 q0 -109 -76.5 -185.5t-185.5 -76.5q-110 0 -186 78t-76 186zM376 1708q86 160 204 211q40 17 80 17t73 -20t61 -44l52 -44q25 -20 48 -20t43 12q20 14 39 34q37 40 70 101l149 -83q-85 -152 -203 -215q-38 -20 -76.5 -20t-72.5 20t-62 44l-51 44q-23 20 -46 20 q-86 0 -159 -141z" />
<glyph unicode="&#xd6;" horiz-adv-x="1657" d="M24 714h170q0 -38 26 -64t64 -26t64.5 26t26.5 67.5t-14 76t-35.5 66t-45.5 62.5q-24 30 -46 66q-50 82 -50 181t43 173.5t122 124.5q160 101 438 101q215 0 398 -106q179 -104 283 -280q108 -182 108 -396t-107 -397q-104 -178 -282 -282q-183 -107 -397 -107 q-264 0 -482 176q-70 56 -127 125l137 111q93 -110 214 -174t231.5 -64t188.5 22t146 61.5t124 95.5t96 124q84 143 84 289.5t-48 257.5q-48 110 -132 192q-180 178 -435 178q-309 0 -398 -121q-31 -42 -31 -93t14 -85t35 -64t46 -60t46 -67q49 -86 49 -192 q0 -109 -76.5 -185.5t-185.5 -76.5q-110 0 -186 78t-76 186zM583 1710l119 282l177 -71l-138 -264zM888 1710l118 282l177 -71l-137 -264z" />
<glyph unicode="&#xd7;" horiz-adv-x="952" d="M85 538l252 195l-251 194l102 136l287 -224l287 224l103 -136l-251 -194l251 -195l-103 -136l-287 223l-287 -223z" />
<glyph unicode="&#xd8;" horiz-adv-x="1714" d="M36 778h170q0 -38 26 -64t64 -26t64.5 26t26.5 67.5t-14 76t-35.5 66t-45.5 62.5q-24 30 -46 66q-50 82 -50 181t43 173.5t122 124.5q160 101 438 101q266 0 479 -160q67 -50 121 -114l208 206l124 -124l-231 -230q88 -170 88 -360q0 -214 -107 -397q-104 -178 -282 -282 q-183 -107 -384 -107t-374 95l-182 -181l-124 124l160 159q-54 45 -102 104l137 111q45 -53 90 -91l855 850q-133 161 -337 207q-68 16 -151.5 16t-162.5 -12q-80 -13 -136 -40q-118 -57 -118 -169q0 -72 49 -142q21 -30 46 -60t46 -67q49 -86 49 -192q0 -109 -76.5 -185.5 t-185.5 -76.5q-110 0 -186 78t-76 186zM572 289q110 -51 212 -51t180 22t146 61.5t124 95.5t96 124q84 143 84 309q0 117 -46 230z" />
<glyph unicode="&#xd9;" horiz-adv-x="1228" d="M93 1429l105 138q170 -131 204 -265q12 -48 12.5 -124t-15 -162t-33.5 -170q-49 -230 -49 -357q0 -143 102 -279l422 312v1015h174v-1196q0 -77 30 -130t100 -102l-97 -139q-203 125 -207 330l-446 -330l-88 103q-164 197 -164 416q0 116 33.5 281t48.5 254t15 164 t-36.5 128.5t-110.5 112.5zM227 1837l116 158l348 -254l-91 -143z" />
<glyph unicode="&#xda;" horiz-adv-x="1228" d="M93 1429l105 138q170 -131 204 -265q12 -48 12.5 -124t-15 -162t-33.5 -170q-49 -230 -49 -357q0 -143 102 -279l422 312v1015h174v-1196q0 -77 30 -130t100 -102l-97 -139q-203 125 -207 330l-446 -330l-88 103q-164 197 -164 416q0 116 33.5 281t48.5 254t15 164 t-36.5 128.5t-110.5 112.5zM539 1741l349 254l116 -158l-375 -238z" />
<glyph unicode="&#xdb;" horiz-adv-x="1228" d="M93 1429l105 138q170 -131 204 -265q12 -48 12.5 -124t-15 -162t-33.5 -170q-49 -230 -49 -357q0 -143 102 -279l422 312v1015h174v-1196q0 -77 30 -130t100 -102l-97 -139q-203 125 -207 330l-446 -330l-88 103q-164 197 -164 416q0 116 33.5 281t48.5 254t15 164 t-36.5 128.5t-110.5 112.5zM240 1745l361 252l348 -252l-103 -136l-245 181q-29 -24 -73 -54l-185 -127z" />
<glyph unicode="&#xdc;" horiz-adv-x="1228" d="M93 1429l105 138q170 -131 204 -265q12 -48 12.5 -124t-15 -162t-33.5 -170q-49 -230 -49 -357q0 -143 102 -279l422 312v1015h174v-1196q0 -77 30 -130t100 -102l-97 -139q-203 125 -207 330l-446 -330l-88 103q-164 197 -164 416q0 116 33.5 281t48.5 254t15 164 t-36.5 128.5t-110.5 112.5zM343 1710l119 282l177 -71l-138 -264zM648 1710l118 282l177 -71l-137 -264z" />
<glyph unicode="&#xdd;" horiz-adv-x="1476" d="M96 792q0 110 89 178q27 20 60 32q-68 50 -93 87q-50 74 -50 155.5t22 138t64 97.5q90 87 255 87q179 1 312 -171q126 -162 126 -366q1 -166 -109 -330q-30 -46 -62 -86q7 -123 102 -216l316 248q-7 77 -14.5 144.5t-14 133t-11.5 131.5q-6 67 -10 141q-10 157 -10 351 h174q-7 -319 33 -632q42 -328 42 -535t-52.5 -336.5t-140.5 -217.5q-179 -178 -447 -178q-179 0 -325 84q-171 97 -171 277q0 92 65 157t157 65q95 0 161 -65q66 -64 65.5 -161.5t-79.5 -167.5q62 -15 139.5 -15t161.5 34q85 34 149 100q142 147 142 387v93l-333 -262 q-271 216 -271 490q169 213 169 366q-1 136 -77 246q-80 116 -187 117q-83 0 -124.5 -37.5t-41.5 -88.5t20 -84.5t49.5 -64.5t63.5 -62q34 -32 64 -70q70 -90 70 -194q0 -95 -65.5 -160.5t-160.5 -65.5q-93 0 -157 66q-65 66 -65 160zM266 789.5q0 -22.5 15.5 -38t38 -15.5 t38.5 15.5t16 38t-16 38.5t-38.5 16t-38 -16t-15.5 -38.5zM351 6.5q0 -22.5 15.5 -38t38 -15.5t38.5 15.5t16 38t-16 38.5t-38.5 16t-38 -16t-15.5 -38.5zM846 1779l349 254l116 -158l-375 -238z" />
<glyph unicode="&#xde;" horiz-adv-x="1603" d="M93 792q0 110 89 178q27 20 60 32q-68 50 -93 87q-50 74 -50 155.5t22 137.5q23 57 65 98q90 87 254 87q169 1 306 -115q160 -134 160 -375v-53l380 206q166 -120 212 -298q15 -58 15 -115v-390q0 -196 -128 -296l-114 -89q-129 134 -275 209q-50 26 -90 31v-154 q0 -357 -216 -453q-60 -27 -128 -27h-9q-93 0 -157 66q-65 66 -65 160q0 92 65 157t157 65q119 0 170 -104q8 28 8 90v200q-156 -16 -305 -165l-126 119q108 104 181 143q125 68 250 83v611q1 144 -93 236q-85 84 -183 84t-139.5 -37.5t-41.5 -88.5t20 -84.5t49.5 -64.5 t64 -62.5t64.5 -69.5q70 -90 69 -194q0 -95 -65.5 -160.5t-160.5 -65.5q-93 0 -157 66q-65 66 -65 160zM263 789.5q0 -22.5 15.5 -38t38 -15.5t38.5 15.5t16 38t-16 38.5t-38.5 16t-38 -16t-15.5 -38.5zM501 -128.5q0 -22.5 15.5 -38t38 -15.5t38.5 15.5t16 38t-16 38.5 t-38.5 16t-38 -16t-15.5 -38.5zM906 459q159 -19 307 -129q41 -30 72 -61q57 50 57 158v390q0 141 -89 203l-347 -193v-368z" />
<glyph unicode="&#xdf;" horiz-adv-x="953" d="M-13 983q113 85 206 113q-33 144 -33 210t12 110t36 78q53 74 144 73q70 0 144 -46l-46 97l136 78q86 -150 86 -234q0 -86 -70 -120q-24 -12 -55.5 -11.5t-54.5 10.5q-24 11 -42 23l-35 22q-16 10 -33 10q-52 0 -52 -88q0 -34 13 -95q25 -116 33 -150l10 -49l269 216 q161 -62 203 -190q10 -28 10 -66.5t-10 -75.5q-10 -36 -30 -70q-33 -57 -112 -138q124 -66 145 -190q7 -40 7 -108t-30 -143.5t-82 -144.5q-78 -104 -272 -271l-84 106l-10 -95q-6 -50 -13 -105l-169 22q46 340 46 594q0 377 -25 572q-69 -28 -139 -79zM404 -16 q141 124 193 194q100 134 100 233q0 64 -58.5 118.5t-185.5 110.5l103 106q97 101 121 145.5t24 65.5q0 47 -26 71l-264 -214h-1q14 -163 14 -292.5v-183.5q-2 -54 -4 -110q-5 -119 -16 -244z" />
<glyph unicode="&#xe0;" horiz-adv-x="798" d="M51 1537l116 158l348 -254l-91 -143zM86 214v465q0 202 147 312l316 239l103 -53v-836q0 -77 30 -130t100 -102l-97 -139q-107 66 -156 151l-202 -151q-161 29 -220 146q-21 42 -21 98zM256 214q0 -39 32 -57l194 145v668l-140 -109q-86 -67 -86 -182v-465z" />
<glyph unicode="&#xe1;" horiz-adv-x="798" d="M86 214v465q0 202 147 312l316 239l103 -53v-836q0 -77 30 -130t100 -102l-97 -139q-107 66 -156 151l-202 -151q-161 29 -220 146q-21 42 -21 98zM256 214q0 -39 32 -57l194 145v668l-140 -109q-86 -67 -86 -182v-465zM312 1441l349 254l116 -158l-375 -238z" />
<glyph unicode="&#xe2;" horiz-adv-x="798" d="M55 1445l361 252l348 -252l-103 -136l-245 181q-28 -24 -72 -54l-186 -127zM86 214v465q0 202 147 312l316 239l103 -53v-836q0 -77 30 -130t100 -102l-97 -139q-107 66 -156 151l-202 -151q-161 29 -220 146q-21 42 -21 98zM256 214q0 -39 32 -57l194 145v668l-140 -109 q-86 -67 -86 -182v-465z" />
<glyph unicode="&#xe3;" horiz-adv-x="798" d="M-20 1408q86 160 204 211q40 17 80 17t73 -20t61 -44l52 -44q25 -20 48 -20t43 12q20 14 39 34q37 40 70 101l149 -83q-85 -152 -203 -215q-38 -20 -76.5 -20t-72.5 20t-62 44l-51 44q-23 20 -46 20q-86 0 -159 -141zM86 214v465q0 202 147 312l316 239l103 -53v-836 q0 -77 30 -130t100 -102l-97 -139q-107 66 -156 151l-202 -151q-161 29 -220 146q-21 42 -21 98zM256 214q0 -39 32 -57l194 145v668l-140 -109q-86 -67 -86 -182v-465z" />
<glyph unicode="&#xe4;" horiz-adv-x="798" d="M86 214v465q0 202 147 312l316 239l103 -53v-836q0 -77 30 -130t100 -102l-97 -139q-107 66 -156 151l-202 -151q-161 29 -220 146q-21 42 -21 98zM175 1410l119 282l177 -71l-138 -264zM256 214q0 -39 32 -57l194 145v668l-140 -109q-86 -67 -86 -182v-465zM480 1410 l118 282l177 -71l-137 -264z" />
<glyph unicode="&#xe5;" horiz-adv-x="798" d="M86 214v465q0 202 147 312l316 239l103 -53v-836q0 -77 30 -130t100 -102l-97 -139q-107 66 -156 151l-202 -151q-161 29 -220 146q-21 42 -21 98zM165 1498q0 88 62 152q61 62 152 63q92 -1 153 -63q63 -64 63 -152t-63 -152q-61 -62 -153 -63q-91 1 -152 63 q-62 64 -62 152zM256 214q0 -39 32 -57l194 145v668l-140 -109q-86 -67 -86 -182v-465zM313 1497.5q0 -28.5 20 -48t48.5 -19.5t49 19.5t20.5 48t-20.5 49t-49 20.5t-48.5 -20.5t-20 -49z" />
<glyph unicode="&#xe6;" horiz-adv-x="1106" d="M98 28v768q0 173 123 265l224 170q126 -81 178 -173l244 172l202 -383l-406 -306v-231q0 -104 81 -148l203 158l100 -140l-270 -210q-211 62 -265 221l-297 -222zM268 219l172 125q53 38 53 108v463q0 58 -47 105l-124 -96q-54 -43 -54 -128v-577zM663 753l192 142 q-37 66 -47 87l-57 -41q-86 -64 -88 -188z" />
<glyph unicode="&#xe7;" horiz-adv-x="686" d="M75 -51l152 89q-137 98 -137 272v439q0 113 28 171q46 99 132 160l214 150l201 -382l-139 -83l-119 218l-59 -42q-88 -64 -88 -192v-439q0 -104 81 -148l203 158l100 -140l-334 -261q78 -49 78 -141q0 -83 -83 -135q-79 -50 -194 -50v171q76 0 87 10.5t11 23.5 q0 24 -25.5 28t-75.5 4z" />
<glyph unicode="&#xe8;" horiz-adv-x="702" d="M81 1537l116 158l348 -254l-91 -143zM89 310v439q-1 113 27 171q46 99 133 160l214 150l202 -383l-406 -306v-231q0 -104 81 -148l203 158l100 -140l-270 -210q-284 82 -284 340zM259 753l192 142q-37 66 -47 87l-57 -41q-86 -64 -88 -188z" />
<glyph unicode="&#xe9;" horiz-adv-x="702" d="M89 310v439q-1 113 27 171q46 99 133 160l214 150l202 -383l-406 -306v-231q0 -104 81 -148l203 158l100 -140l-270 -210q-284 82 -284 340zM259 753l192 142q-37 66 -47 87l-57 -41q-86 -64 -88 -188zM282 1441l349 254l116 -158l-375 -238z" />
<glyph unicode="&#xea;" horiz-adv-x="701" d="M57 1445l361 252l348 -252l-103 -136l-245 181q-28 -24 -72 -54l-186 -127zM89 310v439q-1 113 27 171q46 99 133 160l214 150l202 -383l-406 -306v-231q0 -104 81 -148l203 158l100 -140l-270 -210q-284 82 -284 340zM259 753l192 142q-37 66 -47 87l-57 -41 q-86 -64 -88 -188z" />
<glyph unicode="&#xeb;" horiz-adv-x="701" d="M89 310v439q-1 113 27 171q46 99 133 160l214 150l202 -383l-406 -306v-231q0 -104 81 -148l203 158l100 -140l-270 -210q-284 82 -284 340zM151 1410l119 282l177 -71l-138 -264zM259 753l192 142q-37 66 -47 87l-57 -41q-86 -64 -88 -188zM456 1410l118 282l177 -71 l-137 -264z" />
<glyph unicode="&#xec;" horiz-adv-x="438" d="M-133 1537l116 158l348 -254l-91 -143zM120 319v881h170v-859q0 -77 30 -130t100 -102l-97 -139q-163 103 -193 246q-10 48 -10 103z" />
<glyph unicode="&#xed;" horiz-adv-x="439" d="M102 1441l349 254l116 -158l-375 -238zM121 319v881h170v-859q0 -77 30 -130t100 -102l-97 -139q-163 103 -193 246q-10 48 -10 103z" />
<glyph unicode="&#xee;" horiz-adv-x="438" d="M-149 1445l361 252l348 -252l-103 -136l-245 181q-28 -24 -72 -54l-186 -127zM120 319v881h170v-859q0 -77 30 -130t100 -102l-97 -139q-163 103 -193 246q-10 48 -10 103z" />
<glyph unicode="&#xef;" horiz-adv-x="439" d="M-12 1410l119 282l177 -71l-138 -264zM121 319v881h170v-859q0 -77 30 -130t100 -102l-97 -139q-163 103 -193 246q-10 48 -10 103zM293 1410l118 282l177 -71l-137 -264z" />
<glyph unicode="&#xf0;" horiz-adv-x="784" d="M-4 1131l151 117q-27 71 -27 132t14.5 107.5t38.5 86.5q46 76 114 123l97 -141q-95 -67 -95 -165q0 -15 3 -30l197 153l96 -131l-215 -167q51 -60 107 -106t103 -92q46 -46 82 -104q80 -127 81 -273q0 -274 -238 -479l-222 -192l-120 67v791q0 82 48 134l79 88 q-17 14 -31 29l-27 30l-141 -110zM333 234l62 55q96 85 126 138.5t41 97.5t11 92t-13 92q-12 44 -34 86q-42 81 -107 144l-86 -99v-606z" />
<glyph unicode="&#xf1;" horiz-adv-x="855" d="M-21 1408q85 160 203 211q40 17 80.5 17t73.5 -20q32 -20 60 -44l53 -44q25 -20 48 -20t43 12q20 14 39 34q37 40 70 101l149 -83q-84 -152 -202 -215q-38 -20 -77 -20t-73 20t-62 44l-51 44q-23 20 -46 20q-86 0 -159 -141zM32 1092l94 143q130 -85 166 -180l224 175 q152 -170 202 -344q18 -62 18 -123q0 -73 -10 -177q-18 -204 -18 -281q0 -100 130 -199l-103 -135q-159 123 -189 250q-10 41 -9.5 93t5.5 108q4 56 10 110q14 144 14 231q0 114 -77 231l-177 -139v-855h-171v940q0 62 -71 124q-19 16 -38 28z" />
<glyph unicode="&#xf2;" horiz-adv-x="749" d="M71 1537l116 158l348 -254l-91 -143zM98 28v768q0 173 123 265l224 170q94 -64 135 -113q83 -100 83 -203v-463q0 -147 -123 -240l-325 -243zM268 219l172 125q53 38 53 108v463q0 58 -47 105l-124 -96q-54 -43 -54 -128v-577z" />
<glyph unicode="&#xf3;" horiz-adv-x="749" d="M98 28v768q0 173 123 265l224 170q94 -64 135 -113q83 -100 83 -203v-463q0 -147 -123 -240l-325 -243zM268 219l172 125q53 38 53 108v463q0 58 -47 105l-124 -96q-54 -43 -54 -128v-577zM315 1441l349 254l116 -158l-375 -238z" />
<glyph unicode="&#xf4;" horiz-adv-x="749" d="M34 1445l361 252l348 -252l-103 -136l-245 181q-29 -24 -73 -54l-185 -127zM98 28v768q0 173 123 265l224 170q94 -64 135 -113q83 -100 83 -203v-463q0 -147 -123 -240l-325 -243zM268 219l172 125q53 38 53 108v463q0 58 -47 105l-124 -96q-54 -43 -54 -128v-577z" />
<glyph unicode="&#xf5;" horiz-adv-x="748" d="M-25 1408q85 160 203 211q40 17 80.5 17t73.5 -20q32 -20 60 -44l53 -44q25 -20 48 -20t43 12q20 14 39 34q37 40 70 101l149 -83q-84 -152 -202 -215q-38 -20 -77 -20t-73 20t-62 44l-51 44q-23 20 -46 20q-86 0 -159 -141zM97 28v768q0 173 123 265l224 170 q94 -64 135 -113q83 -100 83 -203v-463q0 -147 -123 -240l-325 -243zM267 219l172 125q53 38 53 108v463q0 58 -47 105l-124 -96q-54 -43 -54 -128v-577z" />
<glyph unicode="&#xf6;" horiz-adv-x="749" d="M98 28v768q0 173 123 265l224 170q94 -64 135 -113q83 -100 83 -203v-463q0 -147 -123 -240l-325 -243zM160 1410l119 282l177 -71l-138 -264zM268 219l172 125q53 38 53 108v463q0 58 -47 105l-124 -96q-54 -43 -54 -128v-577zM465 1410l118 282l177 -71l-137 -264z" />
<glyph unicode="&#xf7;" horiz-adv-x="1033" d="M68 611v166h898v-166h-898zM336 285l137 263l158 -52l-118 -283zM378 906l118 283l177 -72l-137 -263z" />
<glyph unicode="&#xf8;" horiz-adv-x="856" d="M-35 377l193 151v268q0 173 123 265l224 170q83 -55 120 -97q77 -84 93 -168l74 58l104 -135l-173 -135v-302q0 -147 -123 -240l-325 -243l-117 59v284l-90 -70zM328 219l172 125q53 38 53 108v169l-225 -176v-226zM328 661l225 176v78q0 58 -47 105l-124 -96 q-54 -43 -54 -128v-135z" />
<glyph unicode="&#xf9;" horiz-adv-x="862" d="M18 1096l102 135q158 -123 188 -250q10 -41 10 -93.5t-4.5 -108t-9.5 -109.5q-14 -153 -14 -225q0 -126 76 -238l178 138v854h170v-858q0 -77 30 -130t100 -102l-97 -139q-125 79 -172 184l-236 -184q-151 169 -202 343q-18 62 -18 124q0 84 10 183q19 188 19 281 t-130 195zM22 1530l116 158l348 -254l-91 -143z" />
<glyph unicode="&#xfa;" horiz-adv-x="862" d="M18 1096l102 135q158 -123 188 -250q10 -41 10 -93.5t-4.5 -108t-9.5 -109.5q-14 -153 -14 -225q0 -126 76 -238l178 138v854h170v-858q0 -77 30 -130t100 -102l-97 -139q-125 79 -172 184l-236 -184q-151 169 -202 343q-18 62 -18 124q0 84 10 183q19 188 19 281 t-130 195zM325 1441l349 254l116 -158l-375 -238z" />
<glyph unicode="&#xfb;" horiz-adv-x="862" d="M18 1096l102 135q158 -123 188 -250q10 -41 10 -93.5t-4.5 -108t-9.5 -109.5q-14 -153 -14 -225q0 -126 76 -238l178 138v854h170v-858q0 -77 30 -130t100 -102l-97 -139q-125 79 -172 184l-236 -184q-151 169 -202 343q-18 62 -18 124q0 84 10 183q19 188 19 281 t-130 195zM70 1445l361 252l348 -252l-103 -136l-245 181q-29 -24 -73 -54l-185 -127z" />
<glyph unicode="&#xfc;" horiz-adv-x="862" d="M18 1096l102 135q158 -123 188 -250q10 -41 10 -93.5t-4.5 -108t-9.5 -109.5q-14 -153 -14 -225q0 -126 76 -238l178 138v854h170v-858q0 -77 30 -130t100 -102l-97 -139q-125 79 -172 184l-236 -184q-151 169 -202 343q-18 62 -18 124q0 84 10 183q19 188 19 281 t-130 195zM185 1410l119 282l177 -71l-138 -264zM490 1410l118 282l177 -71l-137 -264z" />
<glyph unicode="&#xfd;" horiz-adv-x="856" d="M46 1103l115 127q89 -79 114 -115q39 -59 39 -123v-665l32 -16t28 -15l164 132v370q0 93 -68 179q-20 26 -44 53l-71 79l122 121l70 -77q78 -85 106 -138q55 -102 55 -214v-367q0 -48 15 -94t33 -92q48 -126 47.5 -203.5t-30.5 -150.5q-31 -74 -83 -128 q-114 -118 -273 -118q-138 0 -242 69q-121 80 -121 213q0 69 48.5 117.5t117.5 48.5q68 0 118 -48q49 -48 49 -110.5t-34 -107.5q29 -11 69 -11t79 20q39 21 69 53q64 70 63 160q0 57 -24.5 110.5t-34.5 77.5l-190 -152q-18 12 -44 28l-58 32q-72 40 -139 66v748 q-1 52 -51 100q-18 18 -46 41zM235 1441l349 254l116 -158l-375 -238z" />
<glyph unicode="&#xfe;" horiz-adv-x="766" d="M133 -316l2 1598q21 180 188 316q51 42 109 73l85 -148q-147 -79 -197 -208q-16 -43 -17 -89v-103l156 129q239 -260 239 -579q0 -155 -28 -241q-52 -162 -163 -258v1l-204 -172v-319h-170zM303 224l94 77q117 97 128 276q3 51 3 97.5t-5 90.5q-5 43 -15 87 q-22 91 -68 163l-137 -113v-678z" />
<glyph unicode="&#xff;" horiz-adv-x="856" d="M46 1103l115 127q89 -79 114 -115q39 -59 39 -123v-665l32 -16t28 -15l164 132v370q0 93 -68 179q-20 26 -44 53l-71 79l122 121l70 -77q78 -85 106 -138q55 -102 55 -214v-367q0 -48 15 -94t33 -92q48 -126 47.5 -203.5t-30.5 -150.5q-31 -74 -83 -128 q-114 -118 -273 -118q-138 0 -242 69q-121 80 -121 213q0 69 48.5 117.5t117.5 48.5q68 0 118 -48q49 -48 49 -110.5t-34 -107.5q29 -11 69 -11t79 20q39 21 69 53q64 70 63 160q0 57 -24.5 110.5t-34.5 77.5l-190 -152q-18 12 -44 28l-58 32q-72 40 -139 66v748 q-1 52 -51 100q-18 18 -46 41zM159 1410l119 282l177 -71l-138 -264zM464 1410l118 282l177 -71l-137 -264z" />
<glyph unicode="&#x152;" horiz-adv-x="2643" d="M24 714h170q0 -38 26 -64t64 -26t64.5 26t26.5 67.5t-14 76t-35.5 66t-45.5 62.5q-24 30 -46 66q-50 82 -50 181t43 173.5t122 124.5q160 101 438 101q317 0 546 -218q63 110 143 163.5t163 53.5q117 0 177 -76l102 126q64 -203 145 -276q30 -27 62 -27t56 16t41 46 q35 61 35 161h174q-1 -177 -81 -285q-84 -113 -234.5 -113t-248.5 136l-72 -88q-30 -38 -30 -64t12 -44.5t33 -34.5q20 -16 46 -32l107 -61q26 -15 52 -33q36 77 72 108q65 55 145 55q75 0 143 -57v107h170q0 -138 -18.5 -188t-49 -75t-74 -25t-62.5 10t-33 22l-25 22 q-12 10 -31 10t-34.5 -10.5t-27.5 -27.5q-19 -27 -39 -84q48 -79 48 -161t-24 -138t-66 -98q-91 -90 -217 -89q-127 0 -216.5 89.5t-89.5 216.5q0 93 52 170l138 -102q-18 -30 -18 -63t10.5 -57t28.5 -42q39 -39 94 -39q56 0 95 39t39 86.5t-18 80t-47 59.5q-28 27 -64 49 l-70 42q-113 62 -154 104q-82 84 -82 186q0 98 71 180q27 32 27 56q0 39 -47.5 39t-93 -37.5t-81.5 -113.5q-81 -172 -81 -466t157 -458q139 -145 352 -145q191 -1 336 141q111 108 182 293l162 -64q-84 -222 -236 -366q-186 -178 -444 -178q-242 -1 -420 139 q-60 48 -109 112q-167 -180 -409 -232q-80 -18 -167 -18t-171 21t-162 60q-155 78 -275 220l137 111q93 -110 214 -174t258 -64q220 0 389 140q53 44 95 98q-64 157 -64 372.5t51 389.5q-129 156 -336 204q-67 16 -150.5 16t-162.5 -12q-80 -13 -136 -40q-118 -57 -118 -169 q0 -72 49 -142q21 -30 46 -60t46 -67q49 -86 49 -192q0 -109 -76.5 -185.5t-185.5 -76.5q-110 0 -186 78t-76 186z" />
<glyph unicode="&#x153;" horiz-adv-x="1106" d="M98 28v768q0 173 123 265l224 170q126 -81 178 -173l244 172l202 -383l-406 -306v-231q0 -104 81 -148l203 158l100 -140l-270 -210q-211 62 -265 221l-297 -222zM268 219l172 125q53 38 53 108v463q0 58 -47 105l-124 -96q-54 -43 -54 -128v-577zM663 753l192 142 q-37 66 -47 87l-57 -41q-86 -64 -88 -188z" />
<glyph unicode="&#x2c6;" horiz-adv-x="809" d="M50 1445l361 252l348 -252l-103 -136l-245 181q-29 -24 -73 -54l-185 -127z" />
<glyph unicode="&#x2dc;" horiz-adv-x="919" d="M50 1408q86 160 204 211q40 17 80 17t73 -20t61 -44l52 -44q25 -20 48 -20t43 12q20 14 39 34q37 40 70 101l149 -83q-85 -152 -203 -215q-38 -20 -76.5 -20t-72.5 20t-62 44l-51 44q-23 20 -46 20q-86 0 -159 -141z" />
<glyph unicode="&#x2000;" horiz-adv-x="1017" />
<glyph unicode="&#x2001;" horiz-adv-x="2035" />
<glyph unicode="&#x2002;" horiz-adv-x="1017" />
<glyph unicode="&#x2003;" horiz-adv-x="2035" />
<glyph unicode="&#x2004;" horiz-adv-x="678" />
<glyph unicode="&#x2005;" horiz-adv-x="508" />
<glyph unicode="&#x2006;" horiz-adv-x="339" />
<glyph unicode="&#x2007;" horiz-adv-x="339" />
<glyph unicode="&#x2008;" horiz-adv-x="254" />
<glyph unicode="&#x2009;" horiz-adv-x="407" />
<glyph unicode="&#x200a;" horiz-adv-x="113" />
<glyph unicode="&#x2010;" horiz-adv-x="777" d="M107 481v175l564 142v-175z" />
<glyph unicode="&#x2011;" horiz-adv-x="777" d="M107 481v175l564 142v-175z" />
<glyph unicode="&#x2012;" horiz-adv-x="777" d="M107 481v175l564 142v-175z" />
<glyph unicode="&#x2013;" horiz-adv-x="1036" d="M140 501v160h798v-160h-798z" />
<glyph unicode="&#x2014;" horiz-adv-x="1427" d="M140 501v160h1189v-160h-1189z" />
<glyph unicode="&#x2018;" horiz-adv-x="381" d="M58 1308q0 121 118 306l134 -76q-99 -156 -99 -222q0 -29 19.5 -50t62.5 -21v-164q-176 1 -221 131q-14 40 -14 96z" />
<glyph unicode="&#x2019;" horiz-adv-x="369" d="M60 1146q99 156 99 222q0 29 -19.5 50t-62.5 21v164q176 -1 221 -131q14 -40 14 -96q0 -121 -118 -306z" />
<glyph unicode="&#x201a;" horiz-adv-x="395" d="M80 -199q99 156 99 222q0 29 -19.5 50t-62.5 21v164q176 0 221 -130q14 -40 14 -97q0 -121 -118 -306z" />
<glyph unicode="&#x201c;" horiz-adv-x="687" d="M58 1308q0 121 118 306l134 -76q-99 -156 -99 -222q0 -29 19.5 -50t62.5 -21v-164q-176 1 -221 131q-14 40 -14 96zM365 1308q0 121 118 306l134 -76q-99 -156 -99 -222q0 -29 19.5 -50t62.5 -21v-164q-176 1 -221 131q-14 40 -14 96z" />
<glyph unicode="&#x201d;" horiz-adv-x="675" d="M60 1146q99 156 99 222q0 29 -19.5 50t-62.5 21v164q176 -1 221 -131q14 -40 14 -96q0 -121 -118 -306zM367 1146q99 156 99 222q0 29 -19.5 50t-62.5 21v164q176 -1 221 -131q14 -40 14 -96q0 -121 -118 -306z" />
<glyph unicode="&#x201e;" horiz-adv-x="703" d="M80 -199q99 156 99 222q0 29 -19.5 50t-62.5 21v164q176 0 221 -130q14 -40 14 -97q0 -121 -118 -306zM387 -199q99 156 99 222q0 29 -19.5 50t-62.5 21v164q176 0 221 -130q14 -40 14 -97q0 -121 -118 -306z" />
<glyph unicode="&#x2022;" horiz-adv-x="740" d="M-9 718q177 66 253 147q74 80 126 261q52 -181 126 -261q75 -81 253 -147q-177 -66 -253 -146q-74 -79 -126 -261q-52 181 -126 261q-76 81 -253 146z" />
<glyph unicode="&#x202f;" horiz-adv-x="407" />
<glyph unicode="&#x2039;" horiz-adv-x="532" d="M41 514l273 462l148 -85l-223 -377l215 -375l-150 -83z" />
<glyph unicode="&#x203a;" horiz-adv-x="532" d="M70 891l148 85l273 -462l-262 -457l-150 83l214 374z" />
<glyph unicode="&#x205f;" horiz-adv-x="508" />
<glyph unicode="&#x25fc;" horiz-adv-x="1230" d="M0 0v1230h1230v-1230h-1230z" />
</font>
</defs>
</svg>
