<?xml version="1.0" standalone="no"?>
<!DOCTYPE svg PUBLIC "-//W3C//DTD SVG 1.1//EN" "http://www.w3.org/Graphics/SVG/1.1/DTD/svg11.dtd" >
<svg xmlns="http://www.w3.org/2000/svg" xmlns:xlink="http://www.w3.org/1999/xlink" version="1.1">
<metadata></metadata>
<defs>
<font id="astlochregular" horiz-adv-x="1434" >
<font-face units-per-em="2048" ascent="1696" descent="-352" />
<missing-glyph horiz-adv-x="500" />
<glyph horiz-adv-x="0" />
<glyph unicode="&#xd;" horiz-adv-x="682" />
<glyph unicode=" "  horiz-adv-x="500" />
<glyph unicode="&#x09;" horiz-adv-x="500" />
<glyph unicode="&#xa0;" horiz-adv-x="500" />
<glyph unicode="!" horiz-adv-x="408" d="M161 -68l23 298l50 -4l-23 -298zM182 419v1118h50v-1118h-50z" />
<glyph unicode="&#x22;" horiz-adv-x="596" d="M128 1027v540h50v-540h-50zM419 1027v540h50v-540h-50z" />
<glyph unicode="#" horiz-adv-x="1038" d="M60 506l7 50h234l54 433h-234l6 50h235l46 369h50l-46 -369h250l46 369h50l-46 -369h265l-6 -50h-266l-54 -433h266l-7 -50h-265l-46 -370h-50l46 370h-250l-46 -370h-50l46 370h-235zM351 556h250l54 433h-250z" />
<glyph unicode="$" horiz-adv-x="914" d="M54 901l266 260q79 -112 150 -139v413q-96 -37 -130 -138q-10 -32 -10 -68h-49q-1 137 113 219q34 25 76 38v130h50v-119q14 2 49.5 2t86 -21.5t88.5 -58.5q80 -79 80 -191t-80 -192t-202 -80t-226 129l-194 -186l202 -244q11 7 28 20l243 183q50 -37 90.5 -99.5 t70.5 -128.5q30 -67 31 -145q0 -134 -75 -254q-75 -121 -192 -198v-119h-50v89h-1q-13 61 -109 127l-84 56q-103 66 -136 115.5t-33 94.5q0 73 82 151l31 -37q-64 -62 -64 -104t17 -70q30 -48 85 -82l90 -56q90 -56 122 -97v605l-106 -79q-26 -19 -48 -37zM520 85 q152 109 202 283q16 54 16 108q0 91 -48 181.5t-95 139.5l-75 -54v-658zM520 1009q8 -1 16 -1h35q27 0 67.5 17t70.5 47q64 64 64 157q0 92 -65 157q-30 30 -71 47t-72 17t-45 -2v-439z" />
<glyph unicode="%" horiz-adv-x="1414" d="M108 478v523q0 157 109 239l211 160q170 -113 170 -266v-228q0 -101 -51 -159q-22 -25 -58 -52l-327 -244zM158 509l303 221q52 38 70 80.5t18 95.5v228q0 119 -121 205l-182 -140q-88 -66 -88 -198v-492zM247 1l860 1356l38 -28l-860 -1354zM840 1v523q0 157 109 239 l211 160q170 -113 170 -266v-228q0 -101 -51 -159q-22 -25 -58 -52l-327 -244zM890 32l303 221q52 38 70 80.5t18 95.5v228q0 119 -121 205l-182 -140q-88 -66 -88 -198v-492z" />
<glyph unicode="&#x26;" horiz-adv-x="1053" d="M111 266v193q0 157 109 239l52 39q-94 108 -94 263v129q0 157 109 239l259 198q170 -113 170 -266v-129q0 -155 -95 -228l-280 -215l288 -385q245 186 271 365q8 55 8 113v172h50v-144q0 -171 -37.5 -251.5t-97.5 -148.5t-164 -147l73 -97q63 -87 112 -121t113 -34v-50 q-77 0 -138 42t-149 161l-49 67l-340 -270q-170 113 -170 266zM161 266q0 -119 120 -205l310 249l-289 388l-53 -41q-88 -66 -88 -198v-193zM228 1000q0 -121 84 -230l266 203q88 66 88 198v129q0 119 -120 205l-230 -178q-88 -66 -88 -198v-129z" />
<glyph unicode="'" horiz-adv-x="306" d="M128 1027v540h50v-540h-50z" />
<glyph unicode="(" horiz-adv-x="497" d="M97 644v6q1 414 211 732q70 106 166 193l34 -38q-177 -159 -269 -393t-92 -494q0 -406 204 -722q67 -104 155 -186l-34 -36q-180 168 -278 418q-97 248 -97 520z" />
<glyph unicode=")" horiz-adv-x="497" d="M-11 1537l34 38q185 -167 281 -411t96 -514q0 -421 -213 -750q-70 -108 -162 -194l-34 36q171 160 265 401t94 507q0 399 -202 702q-68 102 -159 185z" />
<glyph unicode="*" horiz-adv-x="825" d="M101 1142.5q0 51.5 31.5 84.5t68.5 33t63 -15l-24 -44q-17 9 -35.5 9t-36 -16t-17.5 -45t41.5 -53t179.5 -36q-69 133 -69 193.5t31.5 92t65.5 31.5q58 0 89 -31.5t30 -77.5h-50q0 25 -17 42t-41 17t-41 -17t-17 -59.5t62 -171.5q89 137 141 169q28 16 52 16q44 0 78 -32 t34 -67q0 -68 -51 -100l-26 42q27 17 27 45t-16 45q-18 17 -38 17q-70 0 -168 -161q166 -15 206 -38q68 -37 68 -101q0 -42 -30.5 -75t-69 -33t-62.5 15l24 44q16 -9 35 -9t36 16t17 45.5t-38.5 52t-184.5 36.5q70 -148 70 -200t-31.5 -83.5t-65.5 -31.5q-57 0 -88.5 31.5 t-30.5 76.5h50q0 -24 17 -41t41 -17t41 16.5t17 60.5t-60 169q-97 -162 -167 -181q-16 -4 -34 -4q-40 0 -72 32t-31 68q0 68 52 100l26 -42q-28 -16 -28 -44.5t16 -46t36.5 -17.5t54.5 20.5t110 140.5q-171 18 -207 40q-64 38 -64 89.5z" />
<glyph unicode="+" horiz-adv-x="980" d="M60 678v50h404v404h50v-404h406v-50h-406v-403h-50v403h-404z" />
<glyph unicode="," horiz-adv-x="373" d="M105 -210l49 54q78 86 78 153t-60 91q-20 8 -49 9v50q77 0 118 -42t41 -91.5t-11 -79.5q-22 -60 -75 -118l-55 -60z" />
<glyph unicode="-" horiz-adv-x="778" d="M145 556v50l488 123v-50z" />
<glyph unicode="." horiz-adv-x="313" d="M114 -68l23 298l50 -4l-23 -298z" />
<glyph unicode="/" horiz-adv-x="838" d="M45 -197l674 1778l47 -18l-673 -1774z" />
<glyph unicode="0" horiz-adv-x="826" d="M126 235v532q0 157 109 239l295 223q170 -113 170 -266v-532q0 -157 -109 -239l-295 -223q-170 113 -170 266zM176 235q0 -119 120 -205l266 203q88 66 88 198v532q0 119 -120 205l-266 -203q-88 -66 -88 -198v-532z" />
<glyph unicode="1" horiz-adv-x="593" d="M40 778q0 189 136 292l212 159l38 -20v-793q0 -212 -19 -300t-40 -138l-47 22q51 122 55 314q1 54 1 102v748l-164 -128q-57 -44 -89.5 -103.5t-32.5 -154.5h-50z" />
<glyph unicode="2" horiz-adv-x="932" d="M100 923q0 58 26.5 117t73.5 101q98 89 262 89h2q163 0 252 -97q90 -97 90 -239q0 -185 -205 -358q-58 -49 -119 -94l-119 -88q-205 -150 -205 -261v-1q62 22 127 22q81 0 211 -41q82 -26 137 -26q33 0 57 9q102 38 102 134q0 52 -34 86t-83 35v50q69 0 118 -49t49 -106 q0 -98 -60 -154q-59 -53 -150 -53q-42 0 -92 11q-44 10 -82 22l-74 22q-43 12 -88 12q-66 0 -135 -26q3 -17 12 -40h-50q-15 48 -15 98q0 133 205 282l119 86q153 109 210.5 174.5t85.5 124.5t28 123q0 130 -78 210t-217 81l-2 -1q-140 0 -224.5 -74.5t-84.5 -194.5 q0 -63 32 -99q30 -35 64 -35q55 0 89 31q32 31 32 77h50q-1 -67 -47.5 -112.5t-111.5 -45.5q-108 0 -146 106q-12 34 -12 92z" />
<glyph unicode="3" horiz-adv-x="924" d="M34 922q0 58 30 117q32 59 84 101q110 88 286 88t284 -106t109 -251q0 -190 -153 -302q-50 -36 -113 -65q266 -42 266 -296q0 -256 -415 -448q-124 -58 -268 -112l-18 46q320 122 462 222q188 132 189 296q-1 197 -193 236q-60 12 -130 13q-48 -17 -97 -30l-14 48 q214 59 324 150t110 244q1 123 -93.5 214t-249 91t-252.5 -75t-98 -195q0 -63 32 -98q30 -36 64 -36q54 0 87.5 31.5t33.5 76.5h50q-1 -67 -47.5 -112.5t-111.5 -45.5q-108 0 -146 106q-12 34 -12 92z" />
<glyph unicode="4" horiz-adv-x="888" d="M34 219v50q0 82 46 182l393 778q189 -82 189 -266v-694h203v-50h-204q-5 -305 -101 -441q-67 -96 -187 -132l-14 48q211 61 243 364q8 83 9 161h-577zM84 269h528v694q0 77 -30 123.5t-87 78.5l-358 -709l-17 -38q-36 -77 -36 -149z" />
<glyph unicode="5" horiz-adv-x="838" d="M-14 -306q521 176 681 447q55 93 55 182q0 157 -100.5 226t-259.5 69h-303l80 611h533v-50h-485l-71 -511h246q410 0 410 -332q0 -318 -458 -552q-142 -72 -310 -136z" />
<glyph unicode="6" horiz-adv-x="804" d="M136 236v421l1 378q0 237 229 425q73 60 164 108l24 -44q-264 -140 -342 -350q-26 -68 -26 -139v-217q22 32 59 60l291 217q171 -114 171 -266v-403q0 -157 -109 -239l-291 -217q-171 114 -171 266zM186 236q0 -119 121 -205l262 197q88 66 88 198v403q0 119 -121 205 l-262 -197q-84 -65 -88 -185v-416z" />
<glyph unicode="7" horiz-adv-x="820" d="M6 1062q62 84 114 113q96 53 212 53h443q-1 -298 -149 -560l-172 -298q-92 -164 -129 -354q-20 -102 -20 -170v-90q0 -22 5 -97h-50q-5 80 -5 165.5t19.5 191.5t51.5 196q45 129 156 318l85 144q148 253 158 504h-393q-154 0 -236 -86q-26 -27 -50 -60z" />
<glyph unicode="8" horiz-adv-x="880" d="M120 237v222q0 157 109 239l52 39q-130 98 -130 238v129q0 157 109 239l295 223q170 -113 170 -266v-129q0 -148 -95 -228q132 -99 132 -238v-222q0 -157 -109 -239l-363 -273q-170 113 -170 266zM170 237q0 -119 120 -205l334 253q88 66 88 198v222q0 119 -120 205 l-334 -253q-88 -66 -88 -198v-222zM201 975q0 -119 120 -205l266 203q88 66 88 198v129q0 119 -120 205l-266 -203q-88 -66 -88 -198v-129z" />
<glyph unicode="9" horiz-adv-x="813" d="M118 399v373q0 157 109 239l291 217q171 -114 171 -266v-391l-1 -391q0 -237 -229 -425q-73 -60 -164 -108l-24 44q265 140 343 350q25 65 25 134v5v230q-22 -31 -59 -60l-291 -217q-171 114 -171 266zM168 399q0 -119 121 -205l262 197q88 66 88 198v373q0 119 -121 205 l-262 -197q-88 -66 -88 -198v-373z" />
<glyph unicode=":" horiz-adv-x="431" d="M144 745l76 182l61 -25l-90 -172zM145 0l76 182l61 -25l-90 -172z" />
<glyph unicode=";" horiz-adv-x="469" d="M143 -210l49 54q78 86 78 153t-60 91q-20 8 -49 9v50q77 0 118 -42t41 -91.5t-11 -79.5q-22 -60 -75 -118l-55 -60zM177 745l76 182l61 -25l-90 -172z" />
<glyph unicode="&#x3c;" horiz-adv-x="765" d="M59 668l610 901l42 -28l-592 -873l590 -894l-42 -28z" />
<glyph unicode="=" horiz-adv-x="1150" d="M145 509v50h860v-50h-860zM145 794v50h860v-50h-860z" />
<glyph unicode="&#x3e;" horiz-adv-x="765" d="M54 1541l42 28l610 -901l-608 -922l-42 28l590 894z" />
<glyph unicode="?" horiz-adv-x="827" d="M61 1258q-1 55 27 113q28 59 77 103q104 94 249 94h2q146 0 245 -86.5t99 -215.5q0 -165 -166 -270q-48 -30 -98 -57l-96 -53q-166 -93 -167 -220q1 -86 57 -139t136 -53q81 0 137 57t56 136h50q0 -101 -71 -172t-172 -71q-103 0 -173 68t-70 174q1 152 167 250l194 108 q166 96 166 242q0 106 -84.5 178t-210.5 72l-2 1q-125 0 -213 -76q-89 -76 -89 -197q0 -64 31.5 -99.5t76.5 -35.5v-50q-107 1 -145 107q-13 35 -13 92zM398 -68l23 298l50 -4l-23 -298z" />
<glyph unicode="@" horiz-adv-x="1546" d="M78 795q0 144 54.5 270t149 220.5t220.5 149t270 54.5t270 -54.5t220.5 -149t149 -220.5t54.5 -238q0 -353 -251 -565q-95 3 -168.5 49t-101.5 98t-38 109l-266 -201q-121 22 -165 117q-16 34 -16 80v292q0 189 136 292l317 240l37 -20v-726q0 -219 212 -275q19 -5 36 -5 q101 89 159.5 213.5t58.5 263.5t-50.5 256.5t-138 205t-205 138t-250.5 50.5t-250.5 -50.5t-205 -138t-138 -205t-50.5 -250.5t50.5 -250.5t138 -205t205 -138t248 -50.5t251.5 50l19 -46q-129 -54 -270.5 -54t-267.5 54.5t-220.5 149t-149 220.5t-54.5 270zM510 514 q0 -111 116 -143l275 207v695l-269 -209q-57 -44 -89.5 -103.5t-32.5 -154.5v-292z" />
<glyph unicode="A" d="M59 737q0 93 66 158q66 66 159 66v-50q-72 0 -123.5 -51.5t-51.5 -126.5q0 -72 54 -122t135 -50h3q143 1 203 105q24 39 24 96q0 60 -24 100t-59 74t-75 66q-158 126 -158 289q0 105 90 190q92 85 268 85l1 1h3q174 0 312 -119q140 -120 140 -302t-238 -512l119 -110 l188 142v452q0 307 162 411q59 38 146 38v-49q-136 0 -197 -114t-61 -286v-774q0 -164 126 -268q38 -32 82 -60l-28 -41q-112 76 -153 131q-77 106 -77 232v269l-190 -148l-147 135q-129 -164 -188 -231l-112 -123l-104 -105q-108 -103 -190 -159l-37 35q183 137 381 354 q319 348 431 623q38 93 38 164q0 144 -121 254.5t-281.5 110.5t-236.5 -69.5t-76 -147t24 -124.5q38 -77 134 -150q40 -32 75 -68q82 -86 82 -210t-99 -188q-74 -48 -152 -48q-2 0 -3 -1q-128 0 -195 65q-69 66 -69 161z" />
<glyph unicode="B" horiz-adv-x="1758" d="M73 737q0 93 66 158q66 66 159 66v-50q-72 0 -123.5 -51.5t-51.5 -126.5q0 -72 54 -122t135 -50h3q143 1 203 105q24 39 24 96q0 60 -24 100t-59 74t-75 66q-158 126 -158 289q0 101 83.5 188t231.5 88q119 -1 218.5 -89.5t150.5 -225.5q50 315 259 315h2q103 0 165 -127 l66 -136q55 -108 126 -108q96 0 130 126l48 -12q-30 -115 -122 -157l-281 -129q123 -86 189 -173q134 -179 134 -370t-134 -336t-352 -145t-350 142l-126 146q-108 120 -234 121h-3q-92 0 -157 -59q-66 -60 -66 -169q0 -61 32 -96q30 -35 64 -35q54 0 87.5 31.5t33.5 76.5 h50q-1 -67 -47.5 -112.5t-111.5 -45.5q-108 0 -146 105q-12 34 -12 90t23 108t61 86.5t88 52t112.5 17.5t122.5 -27l125 130q211 228 211 488q-1 177 -105 321q-104 145 -240 145l-1 1q-135 -1 -205 -71t-70 -146.5t24 -123.5q38 -77 134 -150q40 -32 75 -68q82 -86 82 -210 t-99 -188q-74 -48 -152 -48q-2 0 -3 -1q-128 0 -195 65q-69 66 -69 161zM607 406q63 -40 151 -150q80 -100 157 -153t199 -53q221 0 341.5 130t120.5 310q0 264 -268 468q-34 26 -59 41l-332 -153q-53 -166 -215 -341zM933 909l538 247q-65 24 -117 130l-58 122 q-55 109 -127 109q-222 0 -222 -465q0 -75 -14 -143z" />
<glyph unicode="C" horiz-adv-x="1495" d="M90 743.5q0 201.5 51.5 350.5t139 252.5t204.5 158t239.5 54.5t182 -19.5t78.5 -34.5q55 -215 208.5 -215t192.5 183l48 -10q-46 -223 -240 -223q-150 0 -221 148v-83q-1 -125 -141 -227l-170 -119q-152 -110 -152 -260.5t136 -210.5q47 -21 115 -21h6v-50h-3 q-157 0 -237 93q-67 77 -67 195q0 169 167 291l169 118q128 91 127 191v179q-75 25 -191 25t-223.5 -52t-189.5 -149q-179 -212 -179 -533t166 -529q112 -140 286 -196q88 -28 182.5 -28t168 21t135.5 55q112 63 190 157.5t112 180.5l46 -18q-60 -152 -203 -280 q-186 -166 -421.5 -166t-392.5 106.5t-238 285t-81 380z" />
<glyph unicode="D" horiz-adv-x="1686" d="M86 1114q0 201 162.5 327.5t424 126.5t474 -132.5t335 -338.5t122.5 -417q0 -275 -155 -474q-99 -128 -247 -180q-75 -26 -145 -26q-109 0 -205 64q-68 44 -128 108q-105 110 -175 156t-133 46q-112 0 -181 -56q-70 -57 -70 -151q1 -51 31 -83q32 -34 66 -34 q56 0 89 31.5t33 76.5h50q0 -67 -46.5 -112.5t-112.5 -45.5q-67 0 -113.5 48t-46.5 115q0 124 85 192.5t209.5 68.5t250.5 -116q37 -34 72 -70l70 -70q120 -118 238 -118q227 1 370.5 187.5t143.5 449t-200 505.5t-502 308l-373 -356q9 -62 108 -166l53 -58q94 -105 95 -217 q0 -109 -71 -165t-152 -56h-1q-81 0 -132 45t-51 114q0 65 45.5 112t112.5 47v-50q-46 0 -77 -32.5t-31 -77t34 -76t79 -31.5q83 0 138.5 43t55.5 133t-86 183l-94 102q-76 85 -76 170l361 346q-52 8 -143 8t-193 -31t-172 -85q-146 -111 -146 -273q0 -104 62 -179.5 t174 -75.5v-50q-134 0 -210 92t-76 198z" />
<glyph unicode="E" horiz-adv-x="1481" d="M98 748.5q0 228.5 35 377t91.5 246.5t127.5 146t126 48q92 0 141 -43t49 -106v-1l104 129q85 -254 254 -254h3h3q94 0 149 69q57 70 57 181h50q0 -205 -152 -277q-48 -23 -106 -23q-101 0 -171 58.5t-106 143.5l-129 -160q-2 -4 -5 -7t-13 -16q-44 -54 -44 -102t16 -78 q31 -56 106 -101l73 -42q122 -68 179 -120q34 101 65 142q61 79 140 79q59 0 99.5 -35t62.5 -35q59 0 59 124h50q0 -80 -15 -112q-29 -62 -94 -62q-37 0 -66.5 24t-48.5 35t-50 11q-57 0 -95.5 -59t-67.5 -155q60 -80 60 -187t-72 -192t-193 -85t-192.5 67.5t-71.5 165.5 t52 170l38 -29q-40 -56 -40 -114q0 -102 57.5 -156t156 -54t156.5 70t59 147q0 73 -23 117q-23 46 -66 88q-44 42 -124 88q-149 84 -191 126q-69 67 -69 145.5t40 130.5l22 29q33 40 38 67q6 26 6 48q0 42 -34 72q-35 28 -93.5 28t-120.5 -45t-112 -137q-110 -204 -110 -559 t187 -552q165 -174 397.5 -174t399.5 147q130 114 203 304l46 -18q-123 -323 -405 -439q-107 -44 -214.5 -44t-183.5 20q-76 19 -146 61q-151 90 -242.5 265t-91.5 403.5z" />
<glyph unicode="F" horiz-adv-x="1444" d="M90 1175.5q0 137.5 96 240t276 102.5q115 0 278 -118l160 -118q134 -98 208 -98q154 0 210 94q20 34 20 76q0 78 -43 121t-102.5 43t-96.5 -38t-37 -92h-49q0 74 50.5 126.5t110.5 52.5q106 -1 162 -59q55 -58 55 -130q0 -125 -83 -183q-81 -58 -193 -60 q-148 -101 -195 -159q-92 -113 -92 -261q0 -79 51 -158q28 125 60 175q59 93 140 93q54 0 101 -39t67.5 -39t39.5 17.5t19 39.5q0 80 -55 126l29 39q51 -42 70 -120q5 -20 5 -41q0 -49 -32 -79.5t-68.5 -30.5t-56.5 13t-53 39t-67 26q-62 0 -104 -84q-29 -58 -57 -186 l30 -31q96 -99 125 -148q57 -92 57 -173q0 -170 -113.5 -281.5t-298 -111.5t-305.5 103q-120 102 -120 259q0 84 25 131.5t45 73.5l41 50q100 116 100 216t-54 147q-53 47 -129 47h-1q-78 0 -116 -31t-38 -73t26.5 -67.5t63.5 -25.5v-49q-91 0 -128 83q-11 25 -11 54 q0 68 50 112t150 44h2q159 0 215 -127q21 -47 21 -102v-6q0 -38 -11 -80q-20 -75 -84 -153l-54 -65q-65 -83 -65 -167q0 -149 106 -236q106 -89 270.5 -89t264.5 98t100 247q0 107 -92 209l-112 120q-98 110 -98 231q0 213 162 350q48 41 104 80q-63 17 -123 59.5t-122 92.5 h1l-82 63q-146 109 -241 109q-168 0 -252.5 -88.5t-84.5 -211.5q0 -167 128 -220q38 -16 92 -16q115 0 188.5 57.5t74.5 150.5h49q0 -117 -88 -187t-218 -70t-202 77t-72 214.5z" />
<glyph unicode="G" horiz-adv-x="1675" d="M88 768q0 212 81 396.5t221.5 294t290 109.5t238.5 -68q115 68 239 68v-50q-107 0 -201 -53q96 -104 96 -285h-50q0 166 -89 257q-127 -94 -127 -223q0 -131 93 -254l69 -88q7 -9 15 -18l618 480l28 -38l-246 -191q201 -201 201 -476q-1 -277 -187 -453t-502 -176 q-388 0 -599 241q-189 216 -189 527zM138 769q0 -284 176 -489q198 -230 561 -230q294 0 467 163.5t173 417.5t-190 444l-333 -259q127 -178 127 -320q-1 -142 -69 -212q-68 -69 -169 -69h-3q-92 1 -145 50.5t-53 120.5q0 64 45.5 111t112.5 48v-50h-3h-3q-42 0 -71 -31 q-31 -32 -31 -67q0 -58 39.5 -95t93.5 -37q97 0 151.5 56.5t54.5 164.5q0 161 -172 372l-59 75q-101 132 -101 280t138 257q-71 48 -163.5 48t-164.5 -28q-73 -26 -135 -76q-125 -99 -199.5 -271.5t-74.5 -373.5z" />
<glyph unicode="H" horiz-adv-x="1408" d="M35 576h50q0 -142 65 -218t201 -76h1q138 0 232 71.5t94 221t-150 275.5l-86 69q-110 85 -149 135q-78 98 -78 212q0 202 227 301l20 -40q-98 -48 -135 -93q-62 -77 -62 -168q0 -132 131 -245q37 -32 82 -67.5t95 -79t88 -98.5l376 289l-2 3q-156 146 -156 295 q1 64 48.5 123.5t129.5 80.5l12 -48q-66 -17 -103 -60.5t-37 -87.5q1 -74 43 -144q18 -33 44 -63l142 -163q172 -204 173 -434q0 -432 -465 -568l-146 57q-116 44 -202 44q-135 0 -193.5 -48.5t-58.5 -112.5t55.5 -100.5t124.5 -36.5v-50q-86 0 -158 49.5t-72 136 t73.5 149.5t196.5 63t248 -46q38 -14 82 -32l51 -21q414 127 414 516q0 243 -208 462l-386 -296q41 -79 41 -169q0 -162 -110 -246t-249 -85q-266 0 -318 204q-16 63 -16 139z" />
<glyph unicode="I" horiz-adv-x="1592" d="M93 145q0 167 158 227q56 22 125 22h4q170 -1 330 -120l90 -66q62 -49 126 -88q87 79 87 199q0 151 -113 309l-118 160q-90 126 -90 238l244 191q-32 20 -66 50l-144 129q-137 120 -272.5 120t-223.5 -97t-88 -222t80.5 -201t209.5 -76v-50q-152 0 -245.5 90.5t-93.5 235 t103 257.5t246.5 113t273.5 -100q56 -42 108 -92t108 -92q131 -99 263 -99h3h3q186 0 232 125q13 36 13 70q0 62 -36 100t-85 39v50q70 0 120.5 -50.5t50.5 -135.5q0 -167 -158 -227q-56 -22 -144 -22h-4q-92 0 -206 58l-242 -188q6 -80 88 -194l112 -154q120 -169 121 -338 q0 -129 -91 -222q93 -47 173 -47h4q57 0 107 25q122 60 168 175q22 54 22 115q0 128 -80.5 204t-208.5 77v50h3h3q148 0 239 -89q94 -90 94 -235t-103 -258t-245 -114h-3q-141 0 -289 107l-172 128q-153 111 -291 111h-2h-3q-186 0 -232 -125q-13 -36 -13 -70q0 -62 36 -100 t85 -39v-50q-70 0 -120.5 50.5t-50.5 135.5z" />
<glyph unicode="J" horiz-adv-x="1650" d="M10 170q0 85 58 149.5t173 64.5q176 0 292 -194l140 -238q25 -40 69 -84q97 -96 229 -96t210 76t78 177t-33.5 181t-84 153.5t-109 143t-108.5 141.5q-118 169 -118 321q0 106 76 186t183 90q-25 16 -55 43l-63 58q-88 81 -139 111q-105 63 -187 63q-144 0 -232.5 -97 t-88.5 -222t80.5 -201t208.5 -76v-50q-152 0 -245.5 90.5t-93.5 235t103 257.5t246 113t274 -100q56 -42 108 -92t108 -92q130 -99 262 -99h3h3q186 0 232 125q13 36 13 70q0 62 -36 100t-85 39v50q70 0 120.5 -50.5t50.5 -135.5q0 -167 -158 -227q-58 -22 -127 -22 q-34 0 -70 5q60 -75 60 -153q0 -137 -86 -219l-34 36q70 68 70 163t-66 161t-160 66q-95 0 -160 -66.5t-65 -156.5t34 -165q54 -123 192 -287q60 -70 110 -144q117 -172 117 -337q0 -131 -91 -222t-247 -91q-200 0 -331 194q-38 55 -70 112l-64 112q-115 194 -265 194 q-89 0 -135 -47t-46 -109t32 -95q30 -33 64 -33q54 0 87.5 31.5t33.5 76.5h50q-1 -67 -47.5 -112.5t-111.5 -45.5q-106 0 -146 101q-12 31 -12 69z" />
<glyph unicode="K" horiz-adv-x="1385" d="M20 332q0 100 59 157t129 57l1 1q69 -1 115 -47t46 -112h-50q0 44 -32 76q-34 34 -76 34q-24 0 -50 -11q-26 -10 -46 -30q-46 -45 -46 -121q0 -140 89 -213t177 -73q160 0 247 93.5t87 243.5q0 123 -94 269q-40 62 -87 123q-181 235 -181 421t102 277q101 90 270 90h4h4 q128 -1 215 -71q89 -72 89 -192q0 -162 -187 -309l-32 40l55 45q114 97 114 226q0 96 -76 153.5t-166 57.5q-167 0 -254.5 -81.5t-87.5 -246.5t156 -363l81 -108l533 424q84 71 84 168q0 45 -22 96l46 20q26 -59 26 -106q0 -137 -103 -218l-155 -123h4q32 0 56 -37t33 -97 l92 -605q23 -159 148 -219l-22 -46q-148 68 -176 257l-92 605q-15 97 -78 97q-16 0 -38 -14q0 1 1 2l-308 -245q96 -148 96 -287q0 -276 -211 -362q-69 -28 -141 -28q-140 0 -244 86.5t-104 245.5z" />
<glyph unicode="L" horiz-adv-x="1494" d="M69 148q0 113 83 182q30 24 72 40q-57 30 -92 86t-35 115q0 108 69 176.5t169 68.5v-50q-77 0 -132 -53t-56 -132q1 -79 55 -133t133 -55l1 1q80 0 147 55t67 147t-62 208l-35 62q-108 185 -108 339q1 155 117 259t298 104q174 0 272 -107t99 -257h-50q0 128 -84.5 221 t-242 93t-258.5 -89.5t-101 -220t65 -250.5l74 -133q66 -120 66 -244q0 -91 -78 -163q-24 -22 -52 -38q108 -28 236 -120l70 -52q214 -162 342 -162h1q128 0 215 97q88 97 88 222t-80.5 201t-208.5 77v50h3h3q148 0 239 -89q94 -90 94 -235t-103 -258t-245 -114h-3 q-141 0 -289 107l-172 128q-153 111 -291 111h-2h-3q-186 0 -232 -125q-13 -36 -13 -70q0 -62 36 -100t85 -39v-50q-70 0 -120.5 50.5t-50.5 138.5z" />
<glyph unicode="M" horiz-adv-x="2254" d="M58 735.5q0 93.5 66 159.5t159 66v-50q-72 0 -123.5 -51.5t-51.5 -123.5q0 -74 55 -125q54 -50 134 -50h3q142 1 202 105q24 40 24 98.5t-23.5 98t-58.5 73.5q-36 34 -76 66q-157 125 -157 287q0 103 83.5 190t239.5 88h1q154 0 285 -171q40 -52 70 -116q100 127 163 181 q124 106 220 106q159 0 219 -183l70 64q128 119 227.5 119t120.5 -96q6 -27 10 -57q12 -88 47 -146q53 -88 140 -88q35 29 58.5 58.5t23.5 67.5h50q-1 -92 -113 -175l-67 -50q-175 -127 -237 -371q-22 -88 -22 -205q0 -225 96 -340t220 -115v-50q-141 0 -244 118 q-122 141 -122 410q0 389 296 606q-79 18 -130 116q-35 68 -42 124q-11 92 -25.5 117.5t-56.5 25.5t-76 -17q-59 -29 -138 -104l-70 -65q30 -141 30 -297q0 -593 -361 -1051l-42 17q-15 156 -128 156q-118 0 -241 -164l-40 30q116 153 221 177q31 7 68 7q76 0 114 -44 t43 -107q156 213 236 465.5t80 424.5q0 313 -53 443q-53 129 -168 129l-1 -1q-116 0 -272 -188l-82 -100q42 -118 42 -236q0 -229 -90 -462.5t-316 -545.5l-41 16q-20 156 -131.5 156t-240.5 -172l-40 30q146 192 283.5 192t173.5 -132q282 390 335 702q17 100 17 210 t-33 209.5t-86.5 171t-121.5 111t-136 39.5q-125 0 -195.5 -70.5t-70.5 -146.5v-6q0 -73 23 -118q38 -77 134 -150q40 -32 76 -68q82 -86 82 -210t-99 -188q-73 -48 -151 -48q-2 0 -4 -1q-129 0 -196 65q-68 66 -68 159.5z" />
<glyph unicode="N" horiz-adv-x="1736" d="M56 735.5q0 93.5 66 159.5t159 66v-50q-72 0 -123.5 -51.5t-51.5 -123.5q0 -74 55 -125q54 -50 134 -50h3q142 1 202 105q24 40 24 98.5t-23.5 98t-58.5 73.5q-36 34 -76 66q-157 125 -157 287q0 103 83.5 190t243 87t289.5 -176q41 -56 72 -123l370 -813q-6 63 -6 151 q0 185 65 340t204 311q170 192 170 312h50q0 -79 -40 -153q-39 -75 -126 -171q-159 -177 -216 -317q-57 -141 -57 -322q0 -302 105 -443q84 -112 211 -112v-50q-148 0 -247 124q-36 46 -63 114l-367 799q3 -30 3 -97q0 -180 -89.5 -412t-316.5 -544l-41 16q-20 156 -133 156 q-101 0 -235 -179l-40 30q151 199 284 199t169 -132q282 390 335 702q17 100 17 210t-33 209.5t-87 171t-122 111t-136 39.5q-125 0 -195.5 -70.5t-70.5 -146.5v-6q0 -73 23 -118q38 -77 134 -150q40 -32 76 -68q82 -86 82 -210t-99 -188q-73 -48 -151 -48q-2 0 -4 -1 q-129 0 -196 65q-68 66 -68 159.5z" />
<glyph unicode="O" horiz-adv-x="1660" d="M28 706h50q0 -68 48.5 -116.5t116.5 -48.5q69 0 117.5 48.5t48.5 112.5q-1 65 -15 109q-24 72 -65 124t-63 87q-50 82 -51 184q0 362 574 362q215 0 398 -106q275 -160 363 -467q28 -100 29 -209q-1 -324 -231 -556q-144 -146 -346 -202q-100 -28 -212 -28 q-220 0 -406.5 114.5t-285.5 301.5l44 24q94 -177 269 -283.5t377.5 -106.5t371.5 97t269 267.5t100 375.5q0 198 -99 363q-100 167 -270 266t-371 99q-524 0 -524 -310q0 -122 97 -238t97 -267q0 -87 -63 -149q-64 -62 -153 -63q-89 0 -152 63t-63 152z" />
<glyph unicode="P" horiz-adv-x="1669" d="M34 734.5q0 93.5 66 159.5t159 66v-50q-72 0 -123.5 -51.5t-51.5 -123.5q0 -73 55 -124t137 -51q142 0 202 104q24 40 24 99t-23.5 98.5t-58.5 72.5q-36 34 -76 66q-157 125 -157 288q0 104 83.5 191t227.5 87t264.5 -91t160.5 -246l432 340l96 -191q87 -178 109 -299.5 t22 -219.5q0 -232 -102 -375l-63 -87q-88 -120 -133 -226q-88 70 -164 104.5t-181 38.5v-229q-1 -339 -203 -418q-48 -19 -95 -19q-103 0 -165 38q-87 52 -87 158q0 55 46.5 99.5t111.5 44.5v-50q-44 0 -76 -28q-32 -30 -32 -70q0 -76 69 -114q50 -28 123.5 -28t125.5 37 q132 94 132 350v229q-194 -18 -382 -215l-36 34q203 212 418 230v736q-1 189 -120 303t-255 114t-206.5 -70.5t-70.5 -147t23.5 -123.5t58.5 -83t75.5 -67t75.5 -67q82 -86 82 -211t-99 -189q-73 -48 -151 -48q-131 0 -199.5 65.5t-68.5 159zM934 1174q5 -45 5 -75v-735 q178 -3 327 -115q29 56 60 102l61 89q71 102 108 191.5t37 205t-14 197.5q-27 153 -102 303l-77 156z" />
<glyph unicode="Q" horiz-adv-x="1660" d="M28 706h50q0 -68 48.5 -116.5t116.5 -48.5q69 0 117.5 48.5t48.5 112.5q-1 65 -15 109q-24 72 -65 124t-63 87q-50 82 -51 184q0 362 574 362q215 0 398 -106q275 -160 363 -467q29 -105 29 -210q0 -86 -19 -172q-54 -251 -253 -422q22 -29 43 -61l120 -178 q142 -203 310 -203h4q129 0 220 67q31 22 54 53l40 -30q-104 -140 -318 -140q-188 0 -346 219q-44 60 -74 106l-50 76q-20 30 -43 59q-212 -159 -454.5 -159t-429 114.5t-285.5 301.5l44 24q94 -177 269 -283.5t400.5 -106.5t424.5 148q-86 97 -167 97q-127 0 -208 -90 l-38 34q95 106 246 106q108 0 206 -114q254 223 254 568q0 189 -101 357q-97 163 -267.5 262.5t-371.5 99.5q-524 0 -524 -310q0 -122 97 -238t97 -267q0 -88 -63 -149q-64 -63 -153 -63t-152 63t-63 152z" />
<glyph unicode="R" horiz-adv-x="1734" d="M56 735.5q0 93.5 66 159.5t159 66v-50q-72 0 -123.5 -51.5t-51.5 -123.5q0 -74 55 -125q54 -50 134 -50h3q142 1 202 105q24 40 24 98.5t-23.5 98t-58.5 73.5q-36 34 -76 66q-157 125 -157 287q0 103 83.5 190t219.5 87l1 1q135 0 233 -97t146 -268q42 365 242 365 q113 0 176 -127l66 -136q55 -108 126 -108q96 0 130 126l48 -12q-30 -115 -122 -157l-229 -106q70 -31 82 -113l106 -694q23 -159 148 -219l-22 -46q-145 67 -174 246l-108 705q-8 48 -32.5 68.5t-47.5 20.5t-36 -6l-316 -146q-7 -327 -137 -575q-94 -178 -252 -250 q-82 -38 -158 -38q-121 0 -174.5 44t-53.5 114q0 64 45.5 111t112.5 48v-50h-3h-3q-42 0 -71 -31q-31 -32 -31 -77.5t38 -77t124.5 -31.5t162.5 38q211 104 301 430q50 180 50 352q0 310 -101 478.5t-255 168.5q-124 0 -194.5 -70.5t-70.5 -146.5v-6q0 -73 23 -118 q38 -77 134 -150q40 -32 76 -68q82 -86 82 -210t-99 -188q-73 -48 -151 -48q-2 0 -4 -1q-129 0 -196 65q-68 66 -68 159.5zM930 919l515 237q-65 24 -117 130l-58 122q-34 67 -65.5 88t-69.5 21t-72 -26q-133 -102 -133 -572z" />
<glyph unicode="S" horiz-adv-x="1726" d="M69 454l40 30q339 -464 765 -464q321 0 521 166q91 76 141.5 173.5t50.5 195.5q0 169 -76.5 250t-159.5 81t-138 -22.5t-104 -55.5q-49 -32 -97 -72q-183 -150 -401 -152h-2q-217 0 -365 136t-148 398q0 178 122 316q143 162 405 162q219 0 415 -186q120 -113 194 -149 t130 -36q101 0 156.5 52.5t55.5 141.5t-72 119q-20 8 -42 8q-67 0 -94 -63q-8 -19 -8 -40h-50q0 64 44.5 108.5t107.5 44.5q68 0 116 -50q48 -49 48 -118q0 -125 -71 -190q-69 -64 -159 -64h-2q-90 0 -149.5 28t-113.5 69t-107 89q-202 186 -388 186q-244 0 -377 -146 q-111 -122 -111 -284q0 -236 134 -358t338 -122t382 150q176 150 324 150q128 0 210 -82q102 -100 103 -288q0 -118 -54 -226t-152 -190q-215 -180 -537 -180q-366 0 -650 276q-87 85 -175 208z" />
<glyph unicode="T" horiz-adv-x="1417" d="M23 1195.5q0 144.5 103 257.5t246.5 113t273.5 -100q56 -42 108 -92t108 -92q131 -99 263 -99h3h3q186 0 232 125q13 36 13 70q0 62 -36 100t-85 39v50q70 0 120.5 -50.5t50.5 -135.5q0 -167 -158 -227q-56 -22 -144 -22h-4q-92 0 -206 58l-242 -188q6 -80 88 -194 l112 -154q121 -170 121 -341q0 -130 -93 -221q-92 -92 -221 -92h-3q-131 0 -223.5 92.5t-92.5 223.5q0 84 38.5 154t104.5 112l28 -42q-55 -36 -88 -95t-33 -121q0 -118 78 -196t188 -78q108 0 187 78q80 78 80 191q0 151 -113 309l-118 160q-90 126 -90 238l244 191 q-32 20 -66 50l-144 129q-137 120 -272.5 120t-223.5 -97t-88 -222t80.5 -201t209.5 -76v-50q-152 0 -245.5 90.5t-93.5 235z" />
<glyph unicode="U" horiz-adv-x="1154" d="M113 1527l30 40q80 -62 116.5 -132.5t36.5 -166.5q0 -126 -53 -412t-53 -387q0 -156 56 -268q34 -67 114 -160q15 11 57 45l483 379v1072h50v-1330q0 -101 61 -163q17 -18 33 -27l-28 -42q-116 75 -116 232v194l-547 -429q-101 112 -137 179q-76 139 -76 283.5t53 419 t53 385.5t-31 171t-102 117z" />
<glyph unicode="V" horiz-adv-x="1697" d="M42 735.5q0 93.5 66 159.5t159 66v-50q-72 0 -123.5 -51.5t-51.5 -123.5q0 -74 55 -125q54 -50 134 -50h3q142 1 202 105q24 40 24 98.5t-23.5 98t-58.5 73.5q-36 34 -76 66q-157 125 -157 287q0 103 83.5 190t231.5 88q81 0 158 -43.5t137 -121.5q133 -173 133 -426 q0 -313 -194 -665q33 -25 63 -54l61 -58q78 -74 150 -112.5t172 -38.5q178 0 265 119q88 119 89 303q0 182 -110 404q-110 223 -110 402q0 130 79.5 211t195.5 82v-50q-95 0 -160 -66.5t-65 -156.5t16 -158.5t40 -129.5q26 -61 54 -119q108 -219 108 -424q0 -207 -99 -337 q-100 -130 -300 -131l-1 1q-202 0 -360 168q-95 101 -165 134.5t-130 33.5q-100 0 -146.5 -47t-46.5 -109t32 -95q30 -33 64 -33q54 0 87.5 31.5t33.5 76.5h50q-1 -67 -47.5 -112.5t-111.5 -45.5q-106 0 -146 101q-12 31 -12 69q0 85 58 149.5t165 64.5t188 -48 q183 327 183 640q0 230 -120 390q-54 72 -121.5 111.5t-135.5 39.5q-125 0 -195.5 -70.5t-70.5 -146.5v-6q0 -73 23 -118q38 -77 134 -150q40 -32 76 -68q82 -86 82 -210t-99 -188q-73 -48 -151 -48q-2 0 -4 -1q-129 0 -196 65q-68 66 -68 159.5z" />
<glyph unicode="W" horiz-adv-x="2238" d="M42 735.5q0 93.5 66 159.5t159 66v-50q-72 0 -123.5 -51.5t-51.5 -123.5q0 -74 55 -125q54 -50 134 -50h3q142 1 202 105q24 40 24 98.5t-23.5 98t-58.5 73.5q-36 34 -76 66q-157 125 -157 287q0 103 83.5 190t231.5 88q81 0 158 -43.5t137 -121.5q133 -173 133 -426 q0 -313 -194 -665q33 -25 63 -54l61 -58q78 -74 150 -112.5t172 -38.5q178 0 265 119q88 119 89 303q0 182 -110 404q-110 223 -110 402q0 130 79.5 211t195.5 82v-50q-95 0 -160 -66.5t-65 -156.5t16 -158.5t40 -129.5q26 -61 54 -119q109 -221 109 -456q0 -180 -101 -306 q112 -79 249 -79q167 0 255 119t88 301.5t-110 405.5q-109 221 -109 402q0 130 79.5 211t195.5 82v-50q-96 -1 -161 -67t-65 -155t17 -159q26 -111 74.5 -209t72.5 -163q56 -150 56 -329t-100 -309t-277 -131l-1 1q-178 0 -299 93q-99 -93 -253 -93q-214 0 -372 168 q-95 101 -165 134.5t-130 33.5q-100 0 -146.5 -47t-46.5 -109t32 -95q30 -33 64 -33q54 0 87.5 31.5t33.5 76.5h50q-1 -67 -47.5 -112.5t-111.5 -45.5q-106 0 -146 101q-12 31 -12 69q0 85 58 149.5t165 64.5t188 -48q183 327 183 640q0 230 -120 390q-54 72 -121.5 111.5 t-135.5 39.5q-125 0 -195.5 -70.5t-70.5 -146.5v-6q0 -73 23 -118q38 -77 134 -150q40 -32 76 -68q82 -86 82 -210t-99 -188q-73 -48 -151 -48q-2 0 -4 -1q-129 0 -196 65q-68 66 -68 159.5z" />
<glyph unicode="X" d="M-37 78q56 173 170 173q63 0 101 -67l39 -73q32 -61 89 -61q108 0 216 360q23 76 45 160l45 168l6 24h-302l-109 -232l-46 22l127 253l213 2q60 0 124 1v430q-1 124 -72 201t-171 79l-125 -111l-32 38l109 99q22 20 24 24q129 0 223 -92.5t94 -237.5v-263q77 279 132 387 t105 157t98 49q46 0 70 -11q44 -20 70 -68l25 -44q26 -55 45 -66.5t33 -11.5q78 0 122 137l48 -14q-56 -173 -170 -173q-45 0 -71 27.5t-43 61.5l-26 51q-32 61 -80 61t-82 -28q-34 -30 -65 -80q-54 -87 -94 -215.5t-64 -214.5l-46 -171h87q79 0 125 1l71 2q3 7 10 21t15 32 t18 38l67 141l46 -22l-123 -260h-323v-432q1 -124 72 -201t171 -79l76 68q24 20 49 43l32 -38l-109 -99l-24 -24q-131 0 -224 81t-93 225v288q-81 -298 -127.5 -397t-91.5 -148t-89 -49q-43 0 -67 11q-44 20 -70 68l-40 73q-26 49 -63 49q-78 0 -122 -137z" />
<glyph unicode="Y" horiz-adv-x="1494" d="M32 735.5q0 93.5 66 159.5t159 66v-50q-72 0 -123.5 -51.5t-51.5 -123.5q0 -74 55 -125q54 -50 134 -50h3q142 1 202 105q24 40 24 98.5t-23.5 98t-58.5 73.5q-36 34 -76 66q-157 125 -157 287q0 103 83.5 190t231.5 88q86 0 161 -45.5t129 -119.5q116 -157 116 -337.5 t-120 -352.5l-66 -90q0 -204 178 -349l377 295q-5 57 -11 113l-28 277q-30 303 -30 589h50q0 -283 20 -474l27 -271q35 -325 35 -463.5t-22 -220.5q-20 -82 -60 -154q-79 -143 -218 -230q-140 -86 -326 -86t-307 79.5t-121 212.5q0 64 45.5 111t112.5 48q66 0 112.5 -46.5 t46.5 -112.5h-50q1 44 -31 76t-66 32q-1 0 -3 1q-55 0 -86 -32q-31 -33 -31 -82q0 -105 107 -171t295 -66q229 0 390.5 172.5t161.5 420.5q0 115 -8 217l-382 -299q-226 179 -226 420q86 108 119 175q65 130 65 231q0 193 -104 337t-240 144l-2 1q-134 -1 -204 -71t-70 -146 v-12q0 -69 22 -112q38 -77 134 -150q40 -32 76 -68q82 -86 82 -210t-99 -188q-73 -48 -151 -48q-2 0 -4 -1q-129 0 -196 65q-68 66 -68 159.5z" />
<glyph unicode="Z" horiz-adv-x="1205" d="M49 1409q0 100 58 152.5t124 52.5t102 -8q57 -13 109 -38q52 -26 112 -47q59 -21 177 -21h5q122 0 300 67h50q5 -80 5 -122q0 -325 -282 -590q-81 -76 -167 -147l-170 -142q-301 -253 -332 -516h593q281 0 385 146l40 -30q-117 -166 -425 -166h-643q0 295 300 559 l378 322q58 52 124 139q148 194 149 418q0 36 -4 76q-179 -62 -330.5 -62t-262 56t-183.5 56t-106 -28q-56 -50 -56 -106.5t25 -81.5q44 -44 92 -44q47 0 82 33.5t35 83.5h50q-1 -68 -49 -117.5t-118 -49.5q-69 0 -118 49t-49 106z" />
<glyph unicode="[" horiz-adv-x="536" d="M173 -193v1787h379v-50h-329v-1687h329v-50h-379z" />
<glyph unicode="\" horiz-adv-x="838" d="M72 1563l47 18l674 -1778l-48 -14z" />
<glyph unicode="]" horiz-adv-x="536" d="M-16 -143h329v1687h-329v50h379v-1787h-379v50z" />
<glyph unicode="^" horiz-adv-x="1219" d="M12 581l602 878h42l551 -878h-59l-514 820l-561 -820h-61z" />
<glyph unicode="_" horiz-adv-x="1060" d="M30 -302h1000v-50h-1000v50z" />
<glyph unicode="`" horiz-adv-x="380" d="M-50 1534l43 59l278 -203l-27 -44z" />
<glyph unicode="a" horiz-adv-x="777" d="M119 161v5v532q0 189 136 292l317 240l37 -20v-966q0 -68 25.5 -125t93.5 -109l-29 -41q-112 83 -133 201l-266 -201q-122 22 -166 117q-15 32 -15 75zM169 166q0 -111 116 -143l275 207v935l-269 -209q-57 -44 -89.5 -103.5t-32.5 -154.5v-532z" />
<glyph unicode="b" horiz-adv-x="748" d="M162 0v1296q0 200 144 334q43 40 93 67l24 -44q-147 -81 -195 -241q-16 -54 -16 -116v-263l237 196q203 -224 203 -549q0 -161 -27 -246q-51 -162 -161 -256l-248 -209zM212 31l219 180q154 125 168 349q4 64 4 126q0 138 -39 261.5t-119 213.5l-233 -193v-937z" />
<glyph unicode="c" horiz-adv-x="657" d="M123 272v526q0 105 33.5 179.5t114.5 131.5l174 121l156 -296l-36 -22l-136 248l-129 -92q-127 -88 -127 -270v-526q0 -186 169 -246l202 157l30 -42l-219 -171q-109 32 -170.5 107.5t-61.5 194.5z" />
<glyph unicode="d" horiz-adv-x="708" d="M92 1472q0 76 31 137t68 87l28 -41q-50 -32 -71 -115q-7 -28 -7 -70q0 -90 51.5 -168t180 -186t173.5 -180q85 -134 85 -278q0 -145 -27 -220q-47 -132 -147 -225l-262 -244l-54 17v866q0 65 35 102l136 151q-176 147 -208 277q-12 46 -12 90zM191 31l233 215 q137 124 153 301q5 55 5 119q0 119 -65 223.5t-167 184.5l-137 -152q-22 -24 -22 -70v-821z" />
<glyph unicode="e" horiz-adv-x="666" d="M123 272v526q0 105 33.5 179.5t114.5 131.5l174 121l160 -303l-432 -326v-329q0 -186 169 -246l202 157l30 -42l-219 -171q-109 32 -170.5 107.5t-61.5 194.5zM173 664l372 275l-116 221l-129 -92q-127 -88 -127 -270v-134z" />
<glyph unicode="f" horiz-adv-x="545" d="M15 1012q82 63 217 88q-43 169 -43 233q0 230 156 230q39 0 79 -25t61.5 -36.5t48 -11.5t26.5 36.5t-29 89.5l44 24q35 -67 35 -106.5t-19.5 -66.5t-53.5 -27q-46 0 -103.5 36t-87.5 36.5t-50 -13.5t-33 -35.5t-18.5 -48.5t-5.5 -85.5t43 -222.5h216v-50h-206 q42 -228 42 -583t-12.5 -494t-25.5 -241l-50 6q38 298 38 698t-40 608q-128 -22 -199 -79z" />
<glyph unicode="g" horiz-adv-x="765" d="M12 -165q0 68 36 106t88 38h3h3q49 0 86 -37q38 -38 38 -90h-50q0 32 -22.5 54.5t-54.5 22.5t-54.5 -22.5t-22.5 -61.5q0 -78 94 -116q76 -31 165 -31q233 0 311 172q24 54 24 109q0 77 -40 177l-32 78q-16 38 -26 81l-267 -200q-121 22 -165 117q-16 34 -16 80v386 q0 189 136 292l317 240l38 -20v-829q0 -47 16.5 -91t36.5 -90q53 -123 53 -207q0 -157 -103 -251t-258 -94q-222 0 -303 104q-31 40 -31 83zM160 312q0 -111 116 -143l275 211v785l-269 -209q-57 -44 -89.5 -103.5t-32.5 -154.5v-386z" />
<glyph unicode="h" horiz-adv-x="829" d="M163 0v1295q0 201 143 334q43 40 92 67l25 -45q-148 -79 -195 -239q-16 -54 -16 -117v-315l299 248q191 -212 191 -448v-358q0 -156 -94 -346t-244 -357l-37 33q224 246 300 506q25 86 25 164v358q0 208 -145 378l-295 -243v-915h-49z" />
<glyph unicode="i" horiz-adv-x="371" d="M153 244v956h50v-956q0 -68 25.5 -125t93.5 -109l-29 -41q-140 105 -140 275zM154 1356l76 182l61 -25l-90 -172z" />
<glyph unicode="j" horiz-adv-x="355" d="M-97 -250q167 48 219 244q29 107 31.5 203.5t2.5 150.5v881h50v-881q0 -248 -38 -379q-61 -211 -251 -267zM156 1356l76 182l61 -25l-90 -172z" />
<glyph unicode="k" horiz-adv-x="843" d="M163 0v1296q0 200 144 334q43 40 93 67l24 -44q-146 -81 -194 -241q-16 -54 -17 -116v-442l478 375l28 -40l-250 -196q127 -112 167 -174q70 -110 70 -223q0 -46 -16 -161t-16 -190q0 -140 118 -234l-30 -40q-112 86 -132 198q-6 36 -6 84q0 72 16 179.5t16 161.5 q0 101 -61.5 195t-169.5 169l-212 -168v-790h-50z" />
<glyph unicode="l" horiz-adv-x="375" d="M162 0v1295q0 200 144 334q43 40 92 67l25 -45q-148 -79 -195 -239q-16 -54 -16 -117v-1295h-50z" />
<glyph unicode="m" horiz-adv-x="1254" d="M67 1187l28 42q76 -51 105 -147q11 -36 11 -82l289 226q103 -115 133 -231l294 231q127 -140 169 -306q15 -58 15 -119q0 -81 -16 -276t-16 -274q0 -140 118 -234l-30 -40q-111 86 -131 198q-7 43 -7 99q0 35 3 76q7 104 18 236.5t11 199.5q0 200 -141 371l-275 -216 q7 -54 7 -98v-843h-50v843q0 185 -109 314l-282 -220v-937h-50v997q0 125 -94 190z" />
<glyph unicode="n" horiz-adv-x="827" d="M67 1188l28 42q116 -79 116 -230l289 226q184 -202 184 -428q0 -88 -16 -270.5t-16 -276.5q0 -140 118 -234l-30 -40q-112 86 -132 198q-6 36 -6 90q0 78 16 260t16 255q0 206 -141 377l-282 -220v-937h-50v998q0 125 -94 190z" />
<glyph unicode="o" horiz-adv-x="741" d="M131 -4v834q0 157 109 239l211 160q170 -113 170 -266v-539q0 -101 -51 -159q-22 -25 -58 -52l-327 -244zM181 27l303 221q52 38 70 80.5t18 95.5v539q0 119 -121 205l-182 -140q-88 -66 -88 -198v-803z" />
<glyph unicode="p" horiz-adv-x="877" d="M-60 0q22 165 170 165q51 0 112 -23v764q0 53 -27 111.5t-39 90.5q-13 30 -13 60q0 56 21 90t74 82l34 -38q-64 -56 -75 -96q-4 -15 -4 -37q0 -34 27 -93l23 -49q12 -25 20 -53l305 253l70 -81q120 -140 120 -282v-458q0 -182 -116 -275l-199 -161l-51 34q-46 30 -120 66 v-424h-50v445q-63 24 -112 24q-99 0 -119 -115h-51zM272 123q71 -31 108 -54l61 -37l169 137q98 80 98 237v458q0 80 -32 137t-58 90l-56 66l-290 -240v-794z" />
<glyph unicode="q" horiz-adv-x="770" d="M119 161v5v531q0 189 136 292l317 240l37 -20v-1286q0 -68 25.5 -125t93.5 -109l-29 -41q-113 84 -133 198q-6 37 -6 77v242l-260 -196q-122 22 -166 117q-15 32 -15 75zM169 166q0 -111 116 -143l275 207v934l-269 -209q-57 -44 -89.5 -103.5t-32.5 -154.5v-531z" />
<glyph unicode="r" horiz-adv-x="582" d="M66 1146l28 42q90 -58 112 -182l215 220q102 -116 150 -243l-41 -32q-36 109 -113 203l-207 -215v-939h-50v956q0 125 -94 190z" />
<glyph unicode="s" horiz-adv-x="871" d="M61 901l266 260q59 -83 97 -110q63 -43 122 -43q106 0 170 64t64 157q0 92 -64.5 156.5t-158 64.5t-156.5 -65t-64 -156h-49q0 109 79.5 189.5t190.5 80.5h3q108 0 188 -79q81 -80 82 -193q0 -111 -80 -191t-202 -80t-226 129l-194 -186l202 -244q11 7 28 20l243 183 q50 -37 91 -99.5t71 -129t30 -150.5q0 -164 -111 -304.5t-290 -205.5q-18 31 -45 63l-120 132q-114 124 -114 233q0 72 82 150l31 -37q-64 -62 -64 -113.5t27.5 -99.5t67 -92.5t83 -87.5t74.5 -88q151 65 240 189t89 257.5t-100 270.5q-24 33 -42 51l-279 -207z" />
<glyph unicode="t" horiz-adv-x="584" d="M7 1015q117 92 184 92h44l94 329l48 -14l-90 -315h274v-50h-279v-433q0 -161 0.5 -356.5t194.5 -249.5l-12 -49q-232 66 -232 303l-1 785h-41q-49 0 -119 -56q-18 -15 -37 -28z" />
<glyph unicode="u" horiz-adv-x="826" d="M56 1211l30 40q112 -86 132 -198q6 -36 6 -90q0 -77 -16 -274t-16 -271q0 -212 141 -377l282 219v968h50v-1022q0 -100 61 -162q17 -18 33 -28l-28 -42q-73 44 -104 144q-11 36 -12 79l-289 -225q-184 202 -184 428q0 87 16 284.5t16 292.5q0 141 -118 234z" />
<glyph unicode="v" horiz-adv-x="761" d="M78 1191l34 38q78 -69 90 -121q4 -20 5 -46v-1031l281 229q108 88 108 267v402q0 187 -129 256l24 44q155 -87 155 -300v-402q0 -201 -126 -305l-310 -256l-53 34v1062q1 52 -41 94q-16 16 -38 35z" />
<glyph unicode="w" horiz-adv-x="1200" d="M78 1191l34 38q78 -69 90 -121q4 -20 5 -46v-1031l281 229q108 88 108 267v401q0 187 -129 256l24 44q155 -87 155 -300v-897l281 229q108 88 108 267v402q0 187 -129 256l24 44q155 -87 155 -300v-402q0 -201 -126 -305l-310 -256l-53 34v313q-30 -53 -76 -91l-310 -256 l-53 34v1062q1 52 -41 94q-16 16 -38 35z" />
<glyph unicode="x" horiz-adv-x="786" d="M-6 1179l2 50q150 -5 254.5 -85t127.5 -214q34 62 103 110l275 190l28 -41l-274 -190q-126 -87 -126 -259v-289q0 -139 96.5 -224t244.5 -92l-2 -50q-147 5 -251.5 81.5t-129.5 204.5q-27 -52 -64.5 -95.5t-71.5 -87.5q-80 -106 -80 -185q0 -145 82 -225t226.5 -80 t212.5 78q26 30 26 70.5t-22.5 61.5t-54.5 21t-54.5 -22.5t-22.5 -54.5h-50q0 51 36.5 89t90.5 38h3q50 0 87 -37q38 -38 38 -93q0 -106 -108 -160q-82 -41 -178 -41q-174 0 -268 92q-94 93 -94 245q0 98 67 193q29 41 62 79q129 149 129 280v326q0 139 -96.5 224t-243.5 92 z" />
<glyph unicode="y" horiz-adv-x="814" d="M47 -165q1 68 37 106t87 38h3h3q50 0 87 -37q38 -38 37 -90h-50q0 32 -22.5 54.5t-54.5 22.5t-54.5 -22.5t-22.5 -61.5q0 -78 95 -116q76 -31 164 -31q155 0 245.5 81.5t90.5 208.5q0 74 -29 142l-46 107q-17 38 -25 79l-251 -201l-36 23q-80 49 -158 79v845q1 52 -41 94 q-16 16 -38 35l34 38q78 -69 90 -121q4 -20 5 -46v-813q78 -36 143 -75l246 199v491q0 136 -106 250l-71 77l37 36l70 -78q74 -79 97 -149.5t23 -135.5v-483q0 -47 16.5 -91t36.5 -90q53 -123 53 -207q0 -156 -103.5 -250.5t-257.5 -94.5q-222 0 -303 104q-31 40 -31 83z " />
<glyph unicode="z" horiz-adv-x="695" d="M61 1094l187 148q242 -104 242 -324q0 -145 -203 -371q31 -11 55 -24q121 117 275 215l26 -42q-158 -102 -258 -197q205 -132 205 -422q0 -151 -83 -290t-203 -139q-97 0 -162 88t-65 239q0 268 225 507q-47 24 -107 39q189 198 231 324q14 45 14 91q0 86 -54 149.5 t-132 98.5l-163 -130zM127 -25q1 -126 52 -201.5t114 -75.5q109 0 178 121.5t69 252.5q0 270 -194 387q-219 -229 -219 -484z" />
<glyph unicode="{" horiz-adv-x="485" d="M47 663q131 61 151 161q6 32 7 67v403q0 141 45 207t173 66v-50q-141 -1 -161 -129q-6 -42 -7 -94v-403q0 -73 -21 -131.5t-80 -98.5q101 -78 101 -235v-388q0 -113 24.5 -154t57.5 -58t86 -17v-50h-2q-182 0 -208 165q-8 52 -8 114v388q0 159 -158 237z" />
<glyph unicode="|" horiz-adv-x="400" d="M175 -133v1702h50v-1702h-50z" />
<glyph unicode="}" horiz-adv-x="485" d="M62 -191q140 0 162 136q6 42 6 93v388q0 157 101 235q-59 40 -80 98.5t-21 131.5v403q0 116 -25 154.5t-58 53.5t-85 15v50h2q182 0 208 -157q8 -50 8 -116v-403q0 -77 24 -115q42 -69 134 -113q-158 -78 -158 -237v-388q0 -142 -40 -202q-50 -77 -175 -77h-3v50z" />
<glyph unicode="~" horiz-adv-x="906" d="M78 1262q94 181 204 181q58 0 102.5 -19t85 -40t77.5 -37t78 -16q100 0 185 143l44 -26q-94 -167 -229 -167q-69 0 -173 56t-166 56q-86 0 -164 -153z" />
<glyph unicode="&#xa1;" horiz-adv-x="397" d="M167 989l23 298l50 -4l-23 -298zM170 -352v1148h50v-1148h-50z" />
<glyph unicode="&#xa2;" horiz-adv-x="676" d="M115 425v526q0 105 33.5 179.5t114.5 131.5l124 86v268h50v-233l156 -296l-36 -22l-136 248l-129 -92q-127 -88 -127 -270v-526q0 -138 136 -227q43 -28 96 -43l162 123l33 -34l-155 -119v-211h-50v195q-126 35 -199 120.5t-73 195.5z" />
<glyph unicode="&#xa3;" horiz-adv-x="1529" d="M76 145q0 155 142 219q50 22 124 28v1q82 1 149 56q66 54 66 123q0 34 -4 57h-443v44h436q-20 75 -62 149q-71 124 -101.5 205t-30.5 167q0 166 115.5 270t299.5 104q175 0 273 -107t98 -257h-50q0 128 -84.5 221t-242 93t-258.5 -89.5t-101 -220t65 -250.5l37 -66 q29 -51 55 -102.5t39 -116.5h372v-44h-366q3 -23 3 -51q0 -60 -36.5 -113t-93.5 -85q108 -28 236 -120l70 -52q213 -162 342 -162h1q128 0 216 97t87 208h50q0 -127 -103 -240q-104 -113 -246 -114h-2q-141 0 -290 107l-172 128q-153 111 -290 111h-2h-3q-186 0 -232 -125 q-13 -36 -13 -70q0 -62 36 -100t85 -39v-50q-70 0 -120.5 50.5t-50.5 135.5z" />
<glyph unicode="&#xa4;" horiz-adv-x="1148" d="M108 353l185 145q-61 76 -61 182.5t66 184.5l-174 135l30 40l178 -139q36 31 98 67t146 115q61 -53 155 -93q60 -29 99 -74l164 128l30 -40l-164 -128q46 -74 46 -172t-84 -184q192 -150 216 -167l-30 -40l-222 173q-30 -26 -62 -47l-63 -41h1q-63 -38 -111 -92 q-35 30 -61 46l-49 31h1l-53 32q-33 21 -61 46l-190 -148zM282 699q0 -95 38 -149t97 -93l91 -55q22 -13 39 -27q21 21 41 35l124 82q144 101 144 224q0 72 -38 134t-90 86q-102 47 -150 81q-60 -55 -134.5 -99.5t-118 -101.5t-43.5 -117z" />
<glyph unicode="&#xa5;" horiz-adv-x="1479" d="M68 269.5q0 78.5 45.5 125.5t112.5 47q66 0 112.5 -46.5t46.5 -112.5h-50q1 45 -31 77t-66 32q-58 0 -89 -32q-31 -34 -31 -72q0 -76 58.5 -122t172.5 -46q208 0 317 150q80 112 126 350v8h-398v50h397q-4 125 -21 235h-376v50h368q-61 327 -226 458l-343 -267l-32 40 l372 289q247 -157 297 -641l9 45q53 287 111 407q87 180 256 180q97 0 156.5 -61t59.5 -146t-48 -137t-117 -53q-66 0 -112 46t-46 112h50q0 -45 31.5 -76.5t65.5 -31.5q58 0 92 38.5t34 105.5t-45.5 110t-118.5 43q-131 0 -204 -136q-53 -99 -99 -325h349v-50h-359l-6 -36 q-10 -49 -18 -99l-16 -100h399v-50h-408q-30 -174 -64 -256q-64 -157 -164 -229.5t-254 -72.5t-225 60.5t-71 139z" />
<glyph unicode="&#xa6;" horiz-adv-x="408" d="M179 315h50v-653h-50v653zM179 637v727h50v-727h-50z" />
<glyph unicode="&#xa7;" horiz-adv-x="908" d="M100 1234q0 138 96 236q96 97 233 97h3q138 0 235.5 -97.5t97.5 -235.5h-50q0 117 -83 200t-200 83q-116 0 -199 -83t-83 -200q0 -191 187 -387l273 208q50 -37 91 -100t59 -103q42 -93 42 -197.5t-78 -230.5q77 -131 77 -278q0 -148 -121 -298q-120 -150 -280 -199 l-41 35q49 10 106 39q-25 52 -117 110l-78 48q-149 89 -149 196q0 72 82 150l31 -37q-64 -62 -64 -106q0 -42 20 -72q36 -52 99.5 -90t100.5 -62q91 -60 116 -114q172 108 228 296q18 58 18 117q0 109 -59 220q-122 -160 -292 -213l-41 35q49 10 106 39q-24 52 -116 110 l-79 48q-149 89 -149 196q0 72 82 150l31 -37q-64 -62 -64 -105.5t20.5 -73t52.5 -55t71 -48.5l76 -47q91 -60 116 -115q95 59 163 157q-44 70 -103 134l-247 250q-220 223 -220 430zM367 817l173 -170q100 -99 157 -181q56 103 56 221q0 121 -101 256q-24 33 -42 51 q-18 -12 -50 -36z" />
<glyph unicode="&#xa8;" horiz-adv-x="598" d="M102 1356l76 182l61 -25l-90 -172zM381 1356l76 182l61 -25l-90 -172z" />
<glyph unicode="&#xa9;" horiz-adv-x="1542" d="M77 727q0 144 54.5 270t149 220.5t220.5 149t270 54.5t270 -54.5t220.5 -149t149 -220.5t54.5 -270t-54.5 -270t-149 -220.5t-220.5 -149t-270 -54.5t-270 54.5t-220.5 149t-149 220.5t-54.5 270zM127 727q0 -133 50.5 -250.5t138 -205t205 -138t250.5 -50.5t250.5 50.5 t205 138t138 205t50.5 250.5t-50.5 250.5t-138 205t-205 138t-250.5 50.5t-250.5 -50.5t-205 -138t-138 -205t-50.5 -250.5zM508 522v277q0 105 33.5 179.5t114.5 131.5l174 121l156 -296l-36 -22l-136 248l-129 -92q-127 -88 -127 -270v-277q0 -186 169 -246l247 192 l34 -39l-268 -209q-232 66 -232 302z" />
<glyph unicode="&#xaa;" horiz-adv-x="701" d="M110 660v119q0 189 136 292l215 159l37 -20v-472q0 -68 25.5 -125t93.5 -109l-29 -41q-81 60 -113 135l-184 -135q-121 22 -165 117q-16 34 -16 80zM160 660q0 -111 116 -143l182 133q-9 38 -9 88v427l-167 -128q-57 -44 -89.5 -103.5t-32.5 -154.5v-119z" />
<glyph unicode="&#xab;" horiz-adv-x="712" d="M77 503l248 419l44 -26l-233 -395l223 -389l-44 -24zM317 503l248 419l44 -26l-233 -395l223 -389l-44 -24z" />
<glyph unicode="&#xac;" horiz-adv-x="1125" d="M120 1082v50h860l-1 -453h-50v403h-809z" />
<glyph unicode="&#xad;" horiz-adv-x="778" d="M145 556v50l488 123v-50z" />
<glyph unicode="&#xae;" horiz-adv-x="1542" d="M77 727q0 144 54.5 270t149 220.5t220.5 149t270 54.5t270 -54.5t220.5 -149t149 -220.5t54.5 -270t-54.5 -270t-149 -220.5t-220.5 -149t-270 -54.5t-270 54.5t-220.5 149t-149 220.5t-54.5 270zM127 734q0 -241 149.5 -420t378.5 -221v863q0 125 -94 190l28 42 q90 -58 112 -182l215 220q102 -116 150 -243l-41 -32q-36 109 -113 203l-207 -215v-853q33 -3 66 -3q133 0 250.5 50.5t205 138t138 205t50.5 250.5t-50.5 250.5t-138 205t-205 138t-250.5 50.5t-250.5 -50.5t-205 -138t-138 -205t-50.5 -243.5z" />
<glyph unicode="&#xaf;" horiz-adv-x="769" d="M10 1358v44h749v-44h-749z" />
<glyph unicode="&#xb0;" horiz-adv-x="529" d="M68 1498q0 82 57.5 139.5t138.5 57.5q82 0 139.5 -57.5t57.5 -139.5q0 -81 -57.5 -138.5t-139.5 -57.5q-81 0 -138.5 57.5t-57.5 138.5zM118 1498q0 -61 42.5 -103.5t103.5 -42.5q60 0 104 42q43 42 43 104q0 61 -43 104t-104 43q-62 1 -104 -43t-42 -104z" />
<glyph unicode="&#xb1;" horiz-adv-x="1108" d="M120 678v50h404v404h50v-404h406v-50h-406v-403h-50v403h-404zM127 79v44h860v-44h-860z" />
<glyph unicode="&#xb2;" horiz-adv-x="764" d="M115 1324q0 108 79 175t167 67q150 0 211.5 -70t61.5 -159.5t-31.5 -145t-79.5 -100.5t-105.5 -84t-109.5 -79q-121 -94 -137 -185q50 12 88 12q51 0 128 -23t120.5 -23t73.5 26t30 64.5t-24.5 61t-59.5 22.5v50q56 0 95 -37t39 -80q0 -71 -44 -113.5t-94 -42.5 q-2 0 -3 -1q-62 0 -133 24q-72 24 -121.5 24t-92.5 -18q0 -8 12 -29h-53q-12 38 -12 85t34 95q56 79 198 177q60 41 112 87q120 106 121 215q0 138 -109 182q-40 16 -90 16q-92 0 -157 -52.5t-65 -134.5q0 -42 20.5 -65.5t50 -23.5t51 22.5t21.5 54.5h49q0 -53 -35 -89.5 t-86 -36.5t-85.5 36t-34.5 96z" />
<glyph unicode="&#xb3;" horiz-adv-x="815" d="M106 870q0 63 32.5 97t68.5 34q58 0 92.5 -32.5t34.5 -80.5h-50q0 26 -19 44.5t-45.5 18.5t-45 -21.5t-18.5 -59.5q0 -80 69.5 -131t184 -51t189.5 60q74 60 74 154q0 98 -87 156q-86 56 -213 62l-2 50q253 27 253 189q0 83 -67.5 128.5t-168 45.5t-166.5 -47t-66 -116 q0 -34 16 -52.5t39 -18.5t39 16t16 39h50q0 -45 -30 -75t-75 -30t-75 31.5t-30 83.5q0 99 79 159q78 60 195 60h4q200 0 268 -127q22 -42 22 -89q0 -158 -162 -220q211 -63 211 -249q0 -114 -90 -187t-222.5 -73t-218.5 65.5t-86 166.5z" />
<glyph unicode="&#xb4;" horiz-adv-x="380" d="M109 1390l278 203l43 -59l-294 -188z" />
<glyph unicode="&#xb5;" horiz-adv-x="868" d="M79 1211l30 40q111 -86 131 -198q7 -44 7 -102q0 -36 -3 -79q-7 -109 -18 -244.5t-11 -209.5q0 -212 141 -377l282 219v968h50v-1022q0 -100 61 -162q17 -18 33 -28l-28 -42q-73 44 -104 144q-11 36 -12 79l-289 -225q-84 93 -134 204v-179q0 -190 143 -310l-33 -39 q-159 136 -159 349v369q-1 8 -1 16v15q0 91 16 288t16 292q0 141 -118 234z" />
<glyph unicode="&#xb6;" horiz-adv-x="1336" d="M58 1103q0 109 51 195q142 238 624 239h537v-50h-126v-1385q0 -201 -143 -334q-43 -40 -92 -67l-25 45q148 80 195 240q16 54 16 116v1385h-169v-1487h-50v1487h-143q-625 0 -625 -398q0 -222 193 -320q55 -28 113 -52l112 -48q193 -84 193 -255q0 -99 -76 -156t-180 -57 v50q83 0 144.5 42.5t61.5 112.5q-1 70 -27 112q-48 75 -166 123l-112 45q-145 59 -199 117t-80.5 124t-26.5 176z" />
<glyph unicode="&#xb7;" horiz-adv-x="351" d="M140 735l23 298l50 -4l-23 -298z" />
<glyph unicode="&#xb8;" horiz-adv-x="362" d="M84 -77l108 86h82l-106 -84q48 -12 77 -52t29 -82q0 -77 -46.5 -122t-112.5 -45v50q44 0 76.5 31t32.5 76t-33 75.5t-97 30.5z" />
<glyph unicode="&#xb9;" horiz-adv-x="422" d="M42 1401q34 58 92 102l116 86l38 -20v-492q0 -208 -19.5 -298t-40.5 -140l-47 22q57 134 57 416v447l-68 -55q-52 -40 -83 -92z" />
<glyph unicode="&#xba;" horiz-adv-x="626" d="M138 491v417q0 157 109 239l109 82q170 -113 170 -266v-122q0 -101 -51 -159q-22 -25 -58 -52l-225 -166zM188 522l201 143q52 38 70 80.5t18 95.5v122q0 119 -121 205l-80 -62q-88 -66 -88 -198v-386z" />
<glyph unicode="&#xbb;" horiz-adv-x="712" d="M103 896l44 26l248 -419l-238 -415l-44 24l223 389zM343 896l44 26l248 -419l-238 -415l-44 24l223 389z" />
<glyph unicode="&#xbc;" horiz-adv-x="1367" d="M56 1167q34 58 92 102l116 86l38 -20v-492q0 -208 -19.5 -298t-40.5 -140l-47 22q57 134 57 416v447l-68 -55q-52 -40 -83 -92zM181 1l860 1356l38 -28l-860 -1354zM702 205v50q0 82 46 182l22 46l276 447q75 -32 107.5 -97.5t32.5 -168.5v-409h123v-50h-123v-204h-50 v204h-434zM752 255h384v409q0 150 -72 197l-259 -419q-53 -85 -53 -187z" />
<glyph unicode="&#xbd;" horiz-adv-x="1506" d="M56 1167q34 58 92 102l116 86l38 -20v-492q0 -208 -19.5 -298t-40.5 -140l-47 22q57 134 57 416v447l-68 -55q-52 -40 -83 -92zM181 1l860 1356l38 -28l-860 -1354zM879 662q0 108 79 175t167 67q150 0 211.5 -70t61.5 -159.5t-31.5 -145t-79.5 -100.5t-105.5 -84 t-109.5 -79q-121 -94 -137 -185q50 12 88 12q51 0 128 -23t120.5 -23t73.5 26t30 64.5t-24.5 61t-59.5 22.5v50q56 0 95 -37t39 -80q0 -71 -45 -116q-44 -43 -109 -43q-29 0 -63 9q-30 8 -79.5 24.5t-99 16.5t-92.5 -18q0 -8 12 -29h-53q-12 38 -12 85t34 95q56 79 198 177 q60 41 112 87q120 106 121 215q0 138 -109 182q-40 16 -90 16q-92 0 -157 -52.5t-65 -134.5q0 -42 20.5 -65.5t50 -23.5t51 22.5t21.5 54.5h49q0 -53 -35 -89.5t-86 -36.5t-85.5 36t-34.5 96z" />
<glyph unicode="&#xbe;" horiz-adv-x="1671" d="M97 643q0 65 32.5 99t68.5 34q59 0 93.5 -32.5t33.5 -80.5h-50q0 26 -19 44.5t-45.5 18.5t-45 -21.5t-18.5 -59.5q0 -79 69.5 -130t183.5 -52h4q112 -1 185 59q75 60 75 157t-86 153.5t-214 62.5l-2 50q253 27 253 189q1 83 -66.5 128.5t-169 45.5t-167.5 -47 q-65 -46 -65 -114q0 -36 16 -54.5t39 -18.5t39 16t16 39h50q0 -45 -30 -75t-75 -30t-75 32q-30 30 -30 82q0 98 79 159t199 61q199 0 267 -127q23 -43 23 -92q0 -82 -45 -135q-45 -55 -117 -82q211 -64 211 -250q0 -114 -90 -186q-88 -72 -222 -72l-3 -1q-132 -1 -217 65 q-85 65 -85 165zM486 1l860 1356l38 -28l-860 -1354zM1007 205v50q0 82 46 182l22 46l276 447q75 -32 107.5 -97.5t32.5 -168.5v-409h123v-50h-123v-204h-50v204h-434zM1057 255h384v409q0 150 -72 197l-259 -419q-53 -85 -53 -187z" />
<glyph unicode="&#xbf;" horiz-adv-x="809" d="M57 -54q1 165 167 270q48 30 96 57l98 53q166 93 166 220q0 84 -56 138t-137 54q-79 0 -136 -56t-57 -137h-50q0 101 71 172t172 71q103 0 173 -68t70 -174q0 -152 -166 -250q-48 -28 -98 -54l-96 -54q-166 -96 -167 -242q1 -106 85.5 -178t209.5 -72l2 -1q124 1 212 77 q90 76 90 196q0 64 -31.5 99.5t-76.5 35.5v50q108 -1 146 -107q12 -34 12 -90t-27.5 -115t-76.5 -103q-104 -94 -249 -94h-2q-146 0 -245 86.5t-99 215.5zM346 986l23 298l50 -4l-23 -298z" />
<glyph unicode="&#xc0;" d="M59 737q0 93 66 158q66 66 159 66v-50q-72 0 -123.5 -51.5t-51.5 -126.5q0 -72 54 -122t135 -50h3q143 1 203 105q24 39 24 96q0 60 -24 100t-59 74t-75 66q-158 126 -158 289q0 105 90 190q92 85 268 85l1 1q176 1 315 -119q140 -120 140 -302t-238 -512l119 -110 l188 142v452q0 307 162 411q59 38 146 38v-49q-136 0 -197 -114t-61 -286v-774q0 -164 126 -268q38 -32 82 -60l-28 -41q-112 76 -153 131q-77 106 -77 232v269l-190 -148l-147 135q-129 -164 -188 -231l-112 -123l-104 -105q-108 -103 -190 -159l-37 35q183 137 381 354 q319 348 431 623q38 93 38 164q0 144 -121 254.5t-281.5 110.5t-236.5 -69.5t-76 -147t24 -124.5q38 -77 134 -150q40 -32 75 -68q82 -86 82 -210t-99 -188q-74 -48 -152 -48q-2 0 -3 -1q-128 0 -195 65q-69 66 -69 161zM753 1872l43 59l278 -203l-27 -44z" />
<glyph unicode="&#xc1;" d="M59 737q0 93 66 158q66 66 159 66v-50q-72 0 -123.5 -51.5t-51.5 -126.5q0 -72 54 -122t135 -50h3q143 1 203 105q24 39 24 96q0 60 -24 100t-59 74t-75 66q-158 126 -158 289q0 105 90 190q92 85 268 85l1 1q176 1 315 -119q140 -120 140 -302t-238 -512l119 -110 l188 142v452q0 307 162 411q59 38 146 38v-49q-136 0 -197 -114t-61 -286v-774q0 -164 126 -268q38 -32 82 -60l-28 -41q-112 76 -153 131q-77 106 -77 232v269l-190 -148l-147 135q-129 -164 -188 -231l-112 -123l-104 -105q-108 -103 -190 -159l-37 35q183 137 381 354 q319 348 431 623q38 93 38 164q0 144 -121 254.5t-281.5 110.5t-236.5 -69.5t-76 -147t24 -124.5q38 -77 134 -150q40 -32 75 -68q82 -86 82 -210t-99 -188q-74 -48 -152 -48q-2 0 -3 -1q-128 0 -195 65q-69 66 -69 161zM1092 1728l278 203l43 -59l-294 -188z" />
<glyph unicode="&#xc2;" d="M59 737q0 93 66 158q66 66 159 66v-50q-72 0 -123.5 -51.5t-51.5 -126.5q0 -72 54 -122t135 -50h3q143 1 203 105q24 39 24 96q0 60 -24 100t-59 74t-75 66q-158 126 -158 289q0 105 90 190q92 85 268 85l1 1q176 1 315 -119q140 -120 140 -302t-238 -512l119 -110 l188 142v452q0 307 162 411q59 38 146 38v-49q-136 0 -197 -114t-61 -286v-774q0 -164 126 -268q38 -32 82 -60l-28 -41q-112 76 -153 131q-77 106 -77 232v269l-190 -148l-147 135q-129 -164 -188 -231l-112 -123l-104 -105q-108 -103 -190 -159l-37 35q183 137 381 354 q319 348 431 623q38 93 38 164q0 144 -121 254.5t-281.5 110.5t-236.5 -69.5t-76 -147t24 -124.5q38 -77 134 -150q40 -32 75 -68q82 -86 82 -210t-99 -188q-74 -48 -152 -48q-2 0 -3 -1q-128 0 -195 65q-69 66 -69 161zM752 1726l266 208l332 -207l-26 -42l-302 188 q-8 -7 -24 -19l-216 -168z" />
<glyph unicode="&#xc3;" horiz-adv-x="1435" d="M59 737q0 93 66 158q66 66 159 66v-50q-72 0 -123.5 -51.5t-51.5 -126.5q0 -72 54 -122t135 -50h3q143 1 203 105q24 39 24 96q0 60 -24 100t-59 74t-75 66q-158 126 -158 289q0 105 90 190q92 85 268 85l1 1q176 1 315 -119q140 -120 140 -302t-238 -512l119 -110 l188 142v452q0 307 162 411q59 38 146 38v-49q-136 0 -197 -114t-61 -286v-774q0 -164 126 -268q38 -32 82 -60l-28 -41q-112 76 -153 131q-77 106 -77 232v269l-190 -148l-147 135q-129 -164 -188 -231l-112 -123l-104 -105q-108 -103 -190 -159l-37 35q183 137 381 354 q319 348 431 623q38 93 38 164q0 144 -121 254.5t-281.5 110.5t-236.5 -69.5t-76 -147t24 -124.5q38 -77 134 -150q40 -32 75 -68q82 -86 82 -210t-99 -188q-74 -48 -152 -48q-2 0 -3 -1q-128 0 -195 65q-69 66 -69 161zM689 1704q59 112 155 146q33 12 64 12q44 0 82 -24 q36 -23 69.5 -50t68 -48.5t64.5 -21.5q51 0 99 42.5t78 96.5l44 -24q-56 -106 -153 -151q-30 -14 -80.5 -14t-150.5 81q-29 24 -58 43t-71.5 19t-89.5 -37t-77 -94z" />
<glyph unicode="&#xc4;" d="M59 737q0 93 66 158q66 66 159 66v-50q-72 0 -123.5 -51.5t-51.5 -126.5q0 -72 54 -122t135 -50h3q143 1 203 105q24 39 24 96q0 60 -24 100t-59 74t-75 66q-158 126 -158 289q0 105 90 190q92 85 268 85l1 1q176 1 315 -119q140 -120 140 -302t-238 -512l119 -110 l188 142v452q0 307 162 411q59 38 146 38v-49q-136 0 -197 -114t-61 -286v-774q0 -164 126 -268q38 -32 82 -60l-28 -41q-112 76 -153 131q-77 106 -77 232v269l-190 -148l-147 135q-129 -164 -188 -231l-112 -123l-104 -105q-108 -103 -190 -159l-37 35q183 137 381 354 q319 348 431 623q38 93 38 164q0 144 -121 254.5t-281.5 110.5t-236.5 -69.5t-76 -147t24 -124.5q38 -77 134 -150q40 -32 75 -68q82 -86 82 -210t-99 -188q-74 -48 -152 -48q-2 0 -3 -1q-128 0 -195 65q-69 66 -69 161zM901 1694l76 182l61 -25l-90 -172zM1180 1694l76 182 l61 -25l-90 -172z" />
<glyph unicode="&#xc5;" d="M59 737q0 93 66 158q66 66 159 66v-50q-72 0 -123.5 -51.5t-51.5 -126.5q0 -72 54 -122t135 -50h3q143 1 203 105q24 39 24 96q0 60 -24 100t-59 74t-75 66q-158 126 -158 289q0 105 90 190q92 85 268 85l1 1q176 1 315 -119q140 -120 140 -302t-238 -512l119 -110 l188 142v452q0 307 162 411q59 38 146 38v-49q-136 0 -197 -114t-61 -286v-774q0 -164 126 -268q38 -32 82 -60l-28 -41q-112 76 -153 131q-77 106 -77 232v269l-190 -148l-147 135q-129 -164 -188 -231l-112 -123l-104 -105q-108 -103 -190 -159l-37 35q183 137 381 354 q319 348 431 623q38 93 38 164q0 144 -121 254.5t-281.5 110.5t-236.5 -69.5t-76 -147t24 -124.5q38 -77 134 -150q40 -32 75 -68q82 -86 82 -210t-99 -188q-74 -48 -152 -48q-2 0 -3 -1q-128 0 -195 65q-69 66 -69 161zM929 1796q0 56 39.5 95.5t95.5 39.5t95.5 -39.5 t39.5 -95.5t-39.5 -95.5t-95.5 -39.5t-95.5 39.5t-39.5 95.5zM979 1796q0 -35 25 -60t60 -25t60 25t25 60t-25 60t-60 25t-60 -25t-25 -60z" />
<glyph unicode="&#xc6;" horiz-adv-x="2371" d="M60 795q0 65 23 106l45 -20q-19 -39 -19 -83q0 -85 56.5 -141.5t138.5 -56.5t139 57t57 146t-106 175l-120 94q-102 83 -103 212q-1 127 99 193q100 67 292.5 67t330.5 -107t138 -290t-238 -513l119 -110l188 142v452q0 307 162 411q58 38 122 38q171 0 197 -124l83 103 q85 -254 254 -254q98 0 155 70.5t57 179.5h50q0 -205 -152 -277q-48 -23 -106 -23q-102 0 -171.5 58t-105.5 144l-139 -173q-52 -63 -52 -111.5t16 -78.5q31 -56 106 -101l73 -42q122 -68 179 -120q34 101 65 142q61 79 140 79q60 0 100 -34.5t62 -35.5q59 0 59 124h50 q0 -80 -15 -112q-29 -62 -94 -62q-37 0 -66.5 24t-48.5 35t-50 11q-56 0 -95 -59.5t-68 -154.5q60 -80 60 -187t-72 -192t-193 -85t-192.5 67.5t-71.5 165.5t52 170l38 -29q-40 -56 -40 -114q0 -102 57.5 -156t156.5 -54q98 -1 156 69t59 148q0 72 -23 116q-23 46 -66 89 q-44 43 -124 89q-149 84 -191 125q-69 67 -69 146t40 131l82 102q9 16 9 36q0 44 -32.5 75t-100.5 31q-131 0 -191.5 -114t-60.5 -286v-672q0 -184 129 -290t353.5 -106t391.5 147q130 114 203 304l46 -18q-123 -323 -405 -439q-107 -44 -239 -44q-254 0 -391.5 115.5 t-137.5 324.5v167l-190 -148l-147 135q-207 -276 -441 -478q-74 -64 -137 -106l-37 35q299 226 566.5 561t267.5 545q0 149 -116 246t-292 97l-3 1q-174 -1 -262 -57q-89 -56 -89 -156.5t90 -174.5l121 -95q119 -93 119 -207t-71.5 -184t-174.5 -70t-173.5 70.5t-70.5 173.5 z" />
<glyph unicode="&#xc7;" horiz-adv-x="1501" d="M92 756q0 364 190 590q180 213 453 213q114 0 173.5 -19.5t78.5 -34.5q55 -215 208.5 -215t192.5 183l48 -10q-46 -223 -240 -223q-150 0 -221 148v-83q-1 -125 -141 -227l-170 -119q-152 -110 -152 -260.5t136 -210.5q47 -21 115 -21h6v-50h-3q-157 0 -237 93 q-67 77 -67 195q0 169 167 291l169 118q128 91 127 191v179q-75 25 -191 25t-223.5 -52t-189.5 -149q-179 -212 -179 -533t166 -529q112 -140 286 -196q88 -28 182.5 -28t168 21t135.5 55q112 63 190 157.5t112 180.5l46 -18q-61 -150 -200 -276q-182 -165 -429 -170 l-59 -47q48 -12 77 -52t29 -82q0 -77 -46.5 -122t-112.5 -45v50q44 0 76.5 31t32.5 76t-33 75.5t-97 30.5l-10 36l64 52q-297 23 -462.5 246t-165.5 535z" />
<glyph unicode="&#xc8;" horiz-adv-x="1480" d="M98 748.5q0 228.5 35 377t91.5 246.5t127.5 146t126 48q92 0 141 -43t49 -106v-1l104 129q85 -254 254 -254h3q96 -1 152 69q57 70 57 181h50q0 -205 -152 -277q-48 -23 -106 -23q-101 0 -171 58.5t-106 143.5l-129 -160q-2 -4 -5 -7t-13 -16q-44 -54 -44 -102t16 -78 q31 -56 106 -101l73 -42q122 -68 179 -120q34 101 65 142q61 79 140 79q59 0 99.5 -35t62.5 -35q59 0 59 124h50q0 -80 -15 -112q-29 -62 -94 -62q-37 0 -66.5 24t-48.5 35t-50 11q-57 0 -95.5 -59t-67.5 -155q60 -80 60 -187t-72 -192t-193 -85t-192.5 67.5t-71.5 165.5 t52 170l38 -29q-40 -56 -40 -114q0 -102 57.5 -156t156 -54t156.5 70t59 147q0 73 -23 117q-23 46 -66 88q-44 42 -124 88q-149 84 -191 126q-69 67 -69 145.5t40 130.5l22 29q33 40 38 67q6 26 6 48q0 42 -34 72q-35 28 -93.5 28t-120.5 -45t-112 -137q-110 -204 -110 -559 t187 -552q165 -174 397.5 -174t399.5 147q130 114 203 304l46 -18q-123 -323 -405 -439q-107 -44 -214.5 -44t-183.5 20q-76 19 -146 61q-151 90 -242.5 265t-91.5 403.5zM687 1872l43 59l278 -203l-27 -44z" />
<glyph unicode="&#xc9;" horiz-adv-x="1480" d="M98 748.5q0 228.5 35 377t91.5 246.5t127.5 146t126 48q92 0 141 -43t49 -106v-1l104 129q85 -254 254 -254h3q96 -1 152 69q57 70 57 181h50q0 -205 -152 -277q-48 -23 -106 -23q-101 0 -171 58.5t-106 143.5l-129 -160q-2 -4 -5 -7t-13 -16q-44 -54 -44 -102t16 -78 q31 -56 106 -101l73 -42q122 -68 179 -120q34 101 65 142q61 79 140 79q59 0 99.5 -35t62.5 -35q59 0 59 124h50q0 -80 -15 -112q-29 -62 -94 -62q-37 0 -66.5 24t-48.5 35t-50 11q-57 0 -95.5 -59t-67.5 -155q60 -80 60 -187t-72 -192t-193 -85t-192.5 67.5t-71.5 165.5 t52 170l38 -29q-40 -56 -40 -114q0 -102 57.5 -156t156 -54t156.5 70t59 147q0 73 -23 117q-23 46 -66 88q-44 42 -124 88q-149 84 -191 126q-69 67 -69 145.5t40 130.5l22 29q33 40 38 67q6 26 6 48q0 42 -34 72q-35 28 -93.5 28t-120.5 -45t-112 -137q-110 -204 -110 -559 t187 -552q165 -174 397.5 -174t399.5 147q130 114 203 304l46 -18q-123 -323 -405 -439q-107 -44 -214.5 -44t-183.5 20q-76 19 -146 61q-151 90 -242.5 265t-91.5 403.5zM935 1728l278 203l43 -59l-294 -188z" />
<glyph unicode="&#xca;" horiz-adv-x="1480" d="M98 748.5q0 228.5 35 377t91.5 246.5t127.5 146t126 48q92 0 141 -43t49 -106v-1l104 129q85 -254 254 -254h3q96 -1 152 69q57 70 57 181h50q0 -205 -152 -277q-48 -23 -106 -23q-101 0 -171 58.5t-106 143.5l-129 -160q-2 -4 -5 -7t-13 -16q-44 -54 -44 -102t16 -78 q31 -56 106 -101l73 -42q122 -68 179 -120q34 101 65 142q61 79 140 79q59 0 99.5 -35t62.5 -35q59 0 59 124h50q0 -80 -15 -112q-29 -62 -94 -62q-37 0 -66.5 24t-48.5 35t-50 11q-57 0 -95.5 -59t-67.5 -155q60 -80 60 -187t-72 -192t-193 -85t-192.5 67.5t-71.5 165.5 t52 170l38 -29q-40 -56 -40 -114q0 -102 57.5 -156t156 -54t156.5 70t59 147q0 73 -23 117q-23 46 -66 88q-44 42 -124 88q-149 84 -191 126q-69 67 -69 145.5t40 130.5l22 29q33 40 38 67q6 26 6 48q0 42 -34 72q-35 28 -93.5 28t-120.5 -45t-112 -137q-110 -204 -110 -559 t187 -552q165 -174 397.5 -174t399.5 147q130 114 203 304l46 -18q-123 -323 -405 -439q-107 -44 -214.5 -44t-183.5 20q-76 19 -146 61q-151 90 -242.5 265t-91.5 403.5zM672 1726l266 208l332 -207l-26 -42l-302 188q-8 -7 -24 -19l-216 -168z" />
<glyph unicode="&#xcb;" horiz-adv-x="1480" d="M98 748.5q0 228.5 35 377t91.5 246.5t127.5 146t126 48q92 0 141 -43t49 -106v-1l104 129q85 -254 254 -254h3q96 -1 152 69q57 70 57 181h50q0 -205 -152 -277q-48 -23 -106 -23q-101 0 -171 58.5t-106 143.5l-129 -160q-2 -4 -5 -7t-13 -16q-44 -54 -44 -102t16 -78 q31 -56 106 -101l73 -42q122 -68 179 -120q34 101 65 142q61 79 140 79q59 0 99.5 -35t62.5 -35q59 0 59 124h50q0 -80 -15 -112q-29 -62 -94 -62q-37 0 -66.5 24t-48.5 35t-50 11q-57 0 -95.5 -59t-67.5 -155q60 -80 60 -187t-72 -192t-193 -85t-192.5 67.5t-71.5 165.5 t52 170l38 -29q-40 -56 -40 -114q0 -102 57.5 -156t156 -54t156.5 70t59 147q0 73 -23 117q-23 46 -66 88q-44 42 -124 88q-149 84 -191 126q-69 67 -69 145.5t40 130.5l22 29q33 40 38 67q6 26 6 48q0 42 -34 72q-35 28 -93.5 28t-120.5 -45t-112 -137q-110 -204 -110 -559 t187 -552q165 -174 397.5 -174t399.5 147q130 114 203 304l46 -18q-123 -323 -405 -439q-107 -44 -214.5 -44t-183.5 20q-76 19 -146 61q-151 90 -242.5 265t-91.5 403.5zM839 1694l76 182l61 -25l-90 -172zM1118 1694l76 182l61 -25l-90 -172z" />
<glyph unicode="&#xcc;" horiz-adv-x="1592" d="M93 145q0 167 158 227q56 22 125 22h4q170 -1 330 -120l90 -66q62 -49 126 -88q87 79 87 199q0 151 -113 309l-118 160q-90 126 -90 238l244 191q-32 20 -66 50l-144 129q-137 120 -272.5 120t-223.5 -97t-88 -222t80.5 -201t209.5 -76v-50q-152 0 -245.5 90.5t-93.5 235 t103 257.5t246.5 113t273.5 -100q56 -42 108 -92t108 -92q131 -99 263 -99h3h3q186 0 232 125q13 36 13 70q0 62 -36 100t-85 39v50q70 0 120.5 -50.5t50.5 -135.5q0 -167 -158 -227q-56 -22 -144 -22h-4q-92 0 -206 58l-242 -188q6 -80 88 -194l112 -154q120 -169 121 -338 q0 -129 -91 -222q93 -47 173 -47q59 -1 111 25q122 60 168 175q22 54 22 115q0 128 -80.5 204t-208.5 77v50h3q150 1 242 -89q94 -90 94 -235t-103 -258t-245 -114h-3q-141 0 -289 107l-172 128q-153 111 -291 111h-2h-3q-186 0 -232 -125q-13 -36 -13 -70q0 -62 36 -100 t85 -39v-50q-70 0 -120.5 50.5t-50.5 135.5zM652 1872l43 59l278 -203l-27 -44z" />
<glyph unicode="&#xcd;" horiz-adv-x="1592" d="M93 145q0 167 158 227q56 22 125 22h4q170 -1 330 -120l90 -66q62 -49 126 -88q87 79 87 199q0 151 -113 309l-118 160q-90 126 -90 238l244 191q-32 20 -66 50l-144 129q-137 120 -272.5 120t-223.5 -97t-88 -222t80.5 -201t209.5 -76v-50q-152 0 -245.5 90.5t-93.5 235 t103 257.5t246.5 113t273.5 -100q56 -42 108 -92t108 -92q131 -99 263 -99h3h3q186 0 232 125q13 36 13 70q0 62 -36 100t-85 39v50q70 0 120.5 -50.5t50.5 -135.5q0 -167 -158 -227q-56 -22 -144 -22h-4q-92 0 -206 58l-242 -188q6 -80 88 -194l112 -154q120 -169 121 -338 q0 -129 -91 -222q93 -47 173 -47q59 -1 111 25q122 60 168 175q22 54 22 115q0 128 -80.5 204t-208.5 77v50h3q150 1 242 -89q94 -90 94 -235t-103 -258t-245 -114h-3q-141 0 -289 107l-172 128q-153 111 -291 111h-2h-3q-186 0 -232 -125q-13 -36 -13 -70q0 -62 36 -100 t85 -39v-50q-70 0 -120.5 50.5t-50.5 135.5zM992 1728l278 203l43 -59l-294 -188z" />
<glyph unicode="&#xce;" horiz-adv-x="1592" d="M93 145q0 167 158 227q56 22 125 22h4q170 -1 330 -120l90 -66q62 -49 126 -88q87 79 87 199q0 151 -113 309l-118 160q-90 126 -90 238l244 191q-32 20 -66 50l-144 129q-137 120 -272.5 120t-223.5 -97t-88 -222t80.5 -201t209.5 -76v-50q-152 0 -245.5 90.5t-93.5 235 t103 257.5t246.5 113t273.5 -100q56 -42 108 -92t108 -92q131 -99 263 -99h3h3q186 0 232 125q13 36 13 70q0 62 -36 100t-85 39v50q70 0 120.5 -50.5t50.5 -135.5q0 -167 -158 -227q-56 -22 -144 -22h-4q-92 0 -206 58l-242 -188q6 -80 88 -194l112 -154q120 -169 121 -338 q0 -129 -91 -222q93 -47 173 -47q59 -1 111 25q122 60 168 175q22 54 22 115q0 128 -80.5 204t-208.5 77v50h3q150 1 242 -89q94 -90 94 -235t-103 -258t-245 -114h-3q-141 0 -289 107l-172 128q-153 111 -291 111h-2h-3q-186 0 -232 -125q-13 -36 -13 -70q0 -62 36 -100 t85 -39v-50q-70 0 -120.5 50.5t-50.5 135.5zM673 1726l266 208l332 -207l-26 -42l-302 188l-240 -187z" />
<glyph unicode="&#xcf;" horiz-adv-x="1592" d="M93 145q0 167 158 227q56 22 125 22h4q170 -1 330 -120l90 -66q62 -49 126 -88q87 79 87 199q0 151 -113 309l-118 160q-90 126 -90 238l244 191q-32 20 -66 50l-144 129q-137 120 -272.5 120t-223.5 -97t-88 -222t80.5 -201t209.5 -76v-50q-152 0 -245.5 90.5t-93.5 235 t103 257.5t246.5 113t273.5 -100q56 -42 108 -92t108 -92q131 -99 263 -99h3h3q186 0 232 125q13 36 13 70q0 62 -36 100t-85 39v50q70 0 120.5 -50.5t50.5 -135.5q0 -167 -158 -227q-56 -22 -144 -22h-4q-92 0 -206 58l-242 -188q6 -80 88 -194l112 -154q120 -169 121 -338 q0 -129 -91 -222q93 -47 173 -47q59 -1 111 25q122 60 168 175q22 54 22 115q0 128 -80.5 204t-208.5 77v50h3q150 1 242 -89q94 -90 94 -235t-103 -258t-245 -114h-3q-141 0 -289 107l-172 128q-153 111 -291 111h-2h-3q-186 0 -232 -125q-13 -36 -13 -70q0 -62 36 -100 t85 -39v-50q-70 0 -120.5 50.5t-50.5 135.5zM829 1694l76 182l61 -25l-90 -172zM1108 1694l76 182l61 -25l-90 -172z" />
<glyph unicode="&#xd0;" horiz-adv-x="1686" d="M86 1114q0 201 162.5 327.5t424 126.5t474 -132.5t335 -338.5t122.5 -417q0 -275 -155 -474q-99 -128 -247 -180q-75 -26 -145 -26q-109 0 -205 64q-68 44 -128 108q-105 110 -175 156t-133 46q-112 0 -181 -56q-70 -57 -70 -151q1 -51 31 -83q32 -34 66 -34 q56 0 89 31.5t33 76.5h50q0 -67 -46.5 -112.5t-112.5 -45.5q-67 0 -113.5 48t-46.5 115q0 124 85 192.5t209.5 68.5t250.5 -116q37 -34 72 -70l70 -70q120 -118 238 -118q227 1 370.5 187.5t143.5 449t-200 505.5t-502 308l-373 -356q9 -62 108 -166q39 -41 76 -85.5 t57 -98.5h415v-44h-404q4 -19 4 -62.5t-22.5 -86.5t-56.5 -69q-63 -50 -143 -50h-2q-81 0 -132 45t-51 114q0 65 45.5 109t112.5 44h180q-18 42 -50 78l-111 122q-76 85 -76 170l361 346q-52 8 -143 8t-193 -31t-172 -85q-146 -111 -146 -273q0 -104 62 -179.5t174 -75.5 v-50q-134 0 -210 92t-76 198zM378 640.5q0 -44.5 34 -76t79 -31.5q130 1 177 93q17 34 17 67.5t-5 56.5h-194q-46 0 -77 -32.5t-31 -77z" />
<glyph unicode="&#xd1;" horiz-adv-x="1736" d="M56 735.5q0 93.5 66 159.5t159 66v-50q-72 0 -123.5 -51.5t-51.5 -123.5q0 -74 55 -125q54 -50 134 -50h3q142 1 202 105q24 40 24 98.5t-23.5 98t-58.5 73.5q-36 34 -76 66q-158 126 -157 289q0 101 83.5 188t243 87t289.5 -176q41 -56 72 -123l370 -813q-6 63 -6 151 q0 185 65 340t204 311q170 192 170 312h50q0 -79 -40 -153q-39 -75 -126 -171q-159 -177 -216 -317q-57 -141 -57 -322q0 -302 105 -443q84 -112 211 -112v-50q-148 0 -247 124q-36 46 -63 114l-367 799q3 -30 3 -97q0 -180 -89.5 -412t-316.5 -544l-41 16q-20 156 -133 156 q-101 0 -235 -179l-40 30q151 199 284 199t169 -132q282 390 335 702q17 100 17 210t-33 209.5t-87 171t-122 111t-136 39.5q-125 0 -195.5 -70.5t-70.5 -146.5q-1 -77 23 -124q38 -77 134 -150q40 -32 76 -68q82 -86 82 -210t-99 -188q-73 -48 -151 -48q-2 0 -4 -1 q-129 0 -196 65q-68 66 -68 159.5zM886 1704q59 112 155 146q33 12 64 12q43 0 81 -24q36 -23 70 -50t68 -48q36 -22 66 -22q52 0 99.5 42.5t76.5 96.5l44 -24q-56 -106 -153 -151q-31 -14 -81.5 -14t-149.5 81q-29 24 -58 43t-71.5 19t-89.5 -37t-77 -94z" />
<glyph unicode="&#xd2;" horiz-adv-x="1659" d="M27 706h50q0 -68 48.5 -116.5t116.5 -48.5q69 0 117.5 48.5t48.5 113t-14.5 108.5t-36 79t-46.5 66t-47 66q-50 82 -50 184q0 362 574 362q215 0 398 -106q276 -160 364 -467q28 -100 28 -209q0 -324 -230 -556q-146 -146 -348 -202q-100 -28 -211 -28 q-221 0 -407.5 114.5t-284.5 301.5l44 24q94 -177 269 -283.5t377.5 -106.5t371.5 97t269 267.5t100 371.5q0 200 -100 367t-269.5 266t-370.5 99q-524 0 -524 -310q0 -122 97 -238t97 -264q0 -90 -64 -152.5t-152 -62.5q-89 0 -152 63t-63 152zM545 1872l43 59l278 -203 l-27 -44z" />
<glyph unicode="&#xd3;" horiz-adv-x="1659" d="M27 706h50q0 -68 48.5 -116.5t116.5 -48.5q69 0 117.5 48.5t48.5 113t-14.5 108.5t-36 79t-46.5 66t-47 66q-50 82 -50 184q0 362 574 362q215 0 398 -106q276 -160 364 -467q28 -100 28 -209q0 -324 -230 -556q-146 -146 -348 -202q-100 -28 -211 -28 q-221 0 -407.5 114.5t-284.5 301.5l44 24q94 -177 269 -283.5t377.5 -106.5t371.5 97t269 267.5t100 371.5q0 200 -100 367t-269.5 266t-370.5 99q-524 0 -524 -310q0 -122 97 -238t97 -264q0 -90 -64 -152.5t-152 -62.5q-89 0 -152 63t-63 152zM755 1728l278 203l43 -59 l-294 -188z" />
<glyph unicode="&#xd4;" horiz-adv-x="1659" d="M27 706h50q0 -68 48.5 -116.5t116.5 -48.5q69 0 117.5 48.5t48.5 113t-14.5 108.5t-36 79t-46.5 66t-47 66q-50 82 -50 184q0 362 574 362q215 0 398 -106q276 -160 364 -467q28 -100 28 -209q0 -324 -230 -556q-146 -146 -348 -202q-100 -28 -211 -28 q-221 0 -407.5 114.5t-284.5 301.5l44 24q94 -177 269 -283.5t377.5 -106.5t371.5 97t269 267.5t100 371.5q0 200 -100 367t-269.5 266t-370.5 99q-524 0 -524 -310q0 -122 97 -238t97 -264q0 -90 -64 -152.5t-152 -62.5q-89 0 -152 63t-63 152zM508 1726l266 208l332 -207 l-26 -42l-302 188q-8 -7 -24 -19l-216 -168z" />
<glyph unicode="&#xd5;" horiz-adv-x="1659" d="M27 706h50q0 -68 48.5 -116.5t116.5 -48.5q69 0 117.5 48.5t48.5 113t-14.5 108.5t-36 79t-46.5 66t-47 66q-50 82 -50 184q0 362 574 362q215 0 398 -106q276 -160 364 -467q28 -100 28 -209q0 -324 -230 -556q-146 -146 -348 -202q-100 -28 -211 -28 q-221 0 -407.5 114.5t-284.5 301.5l44 24q94 -177 269 -283.5t377.5 -106.5t371.5 97t269 267.5t100 371.5q0 200 -100 367t-269.5 266t-370.5 99q-524 0 -524 -310q0 -122 97 -238t97 -264q0 -90 -64 -152.5t-152 -62.5q-89 0 -152 63t-63 152zM438 1704q59 112 155 146 q33 12 64 12q43 0 81 -24q36 -23 70 -50t68 -48q36 -22 66 -22q52 0 99.5 42.5t76.5 96.5l44 -24q-56 -106 -153 -151q-31 -14 -81.5 -14t-149.5 81q-29 24 -58 43t-71.5 19t-89.5 -37t-77 -94z" />
<glyph unicode="&#xd6;" horiz-adv-x="1659" d="M27 706h50q0 -68 48.5 -116.5t116.5 -48.5q69 0 117.5 48.5t48.5 113t-14.5 108.5t-36 79t-46.5 66t-47 66q-50 82 -50 184q0 362 574 362q215 0 398 -106q276 -160 364 -467q28 -100 28 -209q0 -324 -230 -556q-146 -146 -348 -202q-100 -28 -211 -28 q-221 0 -407.5 114.5t-284.5 301.5l44 24q94 -177 269 -283.5t377.5 -106.5t371.5 97t269 267.5t100 371.5q0 200 -100 367t-269.5 266t-370.5 99q-524 0 -524 -310q0 -122 97 -238t97 -264q0 -90 -64 -152.5t-152 -62.5q-89 0 -152 63t-63 152zM665 1694l76 182l61 -25 l-90 -172zM944 1694l76 182l61 -25l-90 -172z" />
<glyph unicode="&#xd7;" horiz-adv-x="946" d="M136 516l296 230l-296 230l30 40l306 -239l307 239l30 -40l-296 -230l296 -230l-30 -40l-307 238l-306 -238z" />
<glyph unicode="&#xd8;" horiz-adv-x="1663" d="M30 706h50q0 -68 48.5 -116.5t116.5 -48.5q69 0 117.5 48.5t48.5 112.5q-1 65 -15 109q-24 72 -65 124t-63 87q-50 82 -51 184q0 362 574 362q163 0 305 -60t250 -165l194 193l36 -36l-195 -194q200 -220 200 -531q0 -313 -231 -545q-144 -146 -346 -202 q-100 -28 -210 -28q-302 0 -525 200l-197 -196l-36 36l196 195q-86 90 -132 181l44 24q49 -93 124 -169l1042 1036q-215 211 -519 211q-524 0 -524 -310q0 -122 97 -238t97 -264q1 -90 -63 -152.5t-153 -62.5t-152 63t-63 152zM305 235q208 -185 489 -185q199 0 368 97 t269 267.5t100 371.5q0 279 -185 485z" />
<glyph unicode="&#xd9;" horiz-adv-x="1155" d="M114 1527l30 40q80 -62 116.5 -132.5t36.5 -166.5q0 -126 -53 -412t-53 -387q0 -154 57 -268q34 -67 113 -160q15 11 57 45l483 379v1072h50v-1330q0 -101 61 -163q17 -18 33 -27l-28 -42q-116 75 -116 232v194l-547 -429q-101 112 -137 179q-76 139 -76 283 q0 146 53 420q53 272 53 383q0 112 -32 173q-31 60 -101 117zM455 1872l43 59l278 -203l-27 -44z" />
<glyph unicode="&#xda;" horiz-adv-x="1155" d="M114 1527l30 40q80 -62 116.5 -132.5t36.5 -166.5q0 -126 -53 -412t-53 -387q0 -154 57 -268q34 -67 113 -160q15 11 57 45l483 379v1072h50v-1330q0 -101 61 -163q17 -18 33 -27l-28 -42q-116 75 -116 232v194l-547 -429q-101 112 -137 179q-76 139 -76 283 q0 146 53 420q53 272 53 383q0 112 -32 173q-31 60 -101 117zM455 1728l278 203l43 -59l-294 -188z" />
<glyph unicode="&#xdb;" horiz-adv-x="1155" d="M114 1527l30 40q80 -62 116.5 -132.5t36.5 -166.5q0 -126 -53 -412t-53 -387q0 -154 57 -268q34 -67 113 -160q15 11 57 45l483 379v1072h50v-1330q0 -101 61 -163q17 -18 33 -27l-28 -42q-116 75 -116 232v194l-547 -429q-101 112 -137 179q-76 139 -76 283 q0 146 53 420q53 272 53 383q0 112 -32 173q-31 60 -101 117zM265 1726l266 208l332 -207l-26 -42l-302 188l-240 -187z" />
<glyph unicode="&#xdc;" horiz-adv-x="1155" d="M114 1527l30 40q80 -62 116.5 -132.5t36.5 -166.5q0 -126 -53 -412t-53 -387q0 -154 57 -268q34 -67 113 -160q15 11 57 45l483 379v1072h50v-1330q0 -101 61 -163q17 -18 33 -27l-28 -42q-116 75 -116 232v194l-547 -429q-101 112 -137 179q-76 139 -76 283 q0 146 53 420q53 272 53 383q0 112 -32 173q-31 60 -101 117zM407 1694l76 182l61 -25l-90 -172zM686 1694l76 182l61 -25l-90 -172z" />
<glyph unicode="&#xdd;" horiz-adv-x="1494" d="M32 735.5q0 93.5 66 159.5t159 66v-50q-72 0 -123.5 -51.5t-51.5 -123.5q0 -74 55 -125q54 -50 134 -50h3q142 1 202 105q24 40 24 98.5t-23.5 98t-58.5 73.5q-36 34 -76 66q-158 126 -157 289q0 101 83.5 188t231.5 88q86 0 161 -45.5t129 -119.5q116 -157 116 -337.5 t-120 -352.5l-66 -90q0 -204 178 -349l377 295q-5 57 -11 113l-28 277q-30 303 -30 589h50q0 -283 20 -474l27 -271q35 -325 35 -463.5t-22 -220.5q-20 -82 -60 -154q-79 -143 -218 -230q-140 -86 -326 -86t-307 79.5t-121 212.5q0 64 45.5 111t112.5 48q66 0 112.5 -46.5 t46.5 -112.5h-50q1 44 -31 76t-66 32q-1 0 -3 1q-55 0 -86 -32q-31 -33 -31 -82q0 -105 107 -171t295 -66q229 0 390.5 172.5t161.5 420.5q0 115 -8 217l-382 -299q-226 179 -226 420q86 108 119 175q65 130 65 231q0 193 -104 337t-240 144l-2 1q-134 -1 -204 -71t-70 -146 q-2 -77 22 -124q38 -77 134 -150q40 -32 76 -68q82 -86 82 -210t-99 -188q-73 -48 -151 -48q-2 0 -4 -1q-129 0 -196 65q-68 66 -68 159.5zM970 1728l278 203l43 -59l-294 -188z" />
<glyph unicode="&#xde;" horiz-adv-x="1667" d="M34 734.5q0 93.5 66 159.5t159 66v-50q-72 0 -123.5 -51.5t-51.5 -123.5q0 -73 55 -124t137 -51q142 0 202 104q24 40 24 99t-23.5 98.5t-58.5 72.5q-36 34 -76 66q-158 126 -157 290q0 102 83.5 189t241.5 87t292 -128t135 -339v-126l470 255l71 -82q120 -140 119 -281 v-258q0 -182 -116 -275l-199 -161q-88 70 -164 104.5t-181 38.5v-229q-1 -341 -203 -423q-48 -20 -95 -20q-101 0 -165 41q-87 54 -87 161q0 55 46.5 99.5t111.5 44.5v-50q-44 0 -76 -28q-32 -30 -32 -70q0 -74 60.5 -111t133 -37t124.5 37q132 94 132 356v229 q-194 -18 -382 -215l-36 34q203 212 418 230v736q-1 189 -120 303t-255 114t-206.5 -70.5t-70.5 -147t23.5 -123.5t58.5 -83t75.5 -67t75.5 -67q82 -86 82 -211t-99 -189q-73 -48 -151 -48q-131 0 -199.5 65.5t-68.5 159zM939 364q197 -7 343 -131l169 137q98 80 98 237v258 q-1 115 -93 235q-26 34 -55 68l-462 -253v-551z" />
<glyph unicode="&#xdf;" horiz-adv-x="935" d="M15 1012q82 62 218 88q-44 173 -44 235q0 106 38.5 167t117.5 61q39 0 79 -25t61.5 -36.5t48 -11.5t26.5 36.5t-29 89.5l44 24q35 -67 35 -106.5t-19.5 -66.5t-53.5 -27q-46 0 -104 36q-55 35 -95 35q-47 0 -75 -47q-24 -40 -24 -116t29 -187.5t40 -212.5l367 294 q153 -60 153 -211q0 -116 -111 -243l-77 -84q148 -74 178 -198q10 -44 10 -114q0 -146 -90 -274t-259 -274l-32 38q163 142 222 225q109 156 109 302q0 96 -54 161t-169 117l93 99q86 94 108 152t22 98q0 93 -96 149l-367 -298q19 -207 19 -375q0 -286 -6.5 -428.5 t-31.5 -344.5l-50 6q38 298 38 699t-40 608q-126 -22 -199 -80z" />
<glyph unicode="&#xe0;" horiz-adv-x="777" d="M119 161v5v532q0 189 136 292l317 240l37 -20v-966q0 -68 25.5 -125t93.5 -109l-29 -41q-112 83 -133 201l-266 -201q-122 22 -166 117q-15 32 -15 75zM169 166q0 -111 116 -143l275 207v935l-269 -209q-57 -44 -89.5 -103.5t-32.5 -154.5v-532zM218 1534l43 59l278 -203 l-27 -44z" />
<glyph unicode="&#xe1;" horiz-adv-x="777" d="M119 161v5v532q0 189 136 292l317 240l37 -20v-966q0 -68 25.5 -125t93.5 -109l-29 -41q-112 83 -133 201l-266 -201q-122 22 -166 117q-15 32 -15 75zM169 166q0 -111 116 -143l275 207v935l-269 -209q-57 -44 -89.5 -103.5t-32.5 -154.5v-532zM481 1390l278 203l43 -59 l-294 -188z" />
<glyph unicode="&#xe2;" horiz-adv-x="777" d="M80 1388l266 208l332 -207l-26 -42l-302 188q-8 -7 -24 -19l-216 -168zM119 161v5v532q0 189 136 292l317 240l37 -20v-966q0 -68 25.5 -125t93.5 -109l-29 -41q-112 83 -133 201l-266 -201q-122 22 -166 117q-15 32 -15 75zM169 166q0 -111 116 -143l275 207v935 l-269 -209q-57 -44 -89.5 -103.5t-32.5 -154.5v-532z" />
<glyph unicode="&#xe3;" horiz-adv-x="777" d="M17 1366q59 112 155 146q33 12 64 12q44 0 82 -24q36 -23 69.5 -50t68 -48.5t64.5 -21.5q51 0 99 42.5t78 96.5l44 -24q-56 -106 -153 -151q-30 -14 -80.5 -14t-150.5 81q-29 24 -58 43t-71.5 19t-89.5 -37t-77 -94zM119 161v5v532q0 189 136 292l317 240l37 -20v-966 q0 -68 25.5 -125t93.5 -109l-29 -41q-112 83 -133 201l-266 -201q-122 22 -166 117q-15 32 -15 75zM169 166q0 -111 116 -143l275 207v935l-269 -209q-57 -44 -89.5 -103.5t-32.5 -154.5v-532z" />
<glyph unicode="&#xe4;" horiz-adv-x="777" d="M119 161v5v532q0 189 136 292l317 240l37 -20v-966q0 -68 25.5 -125t93.5 -109l-29 -41q-112 83 -133 201l-266 -201q-122 22 -166 117q-15 32 -15 75zM169 166q0 -111 116 -143l275 207v935l-269 -209q-57 -44 -89.5 -103.5t-32.5 -154.5v-532zM302 1356l76 182l61 -25 l-90 -172zM581 1356l76 182l61 -25l-90 -172z" />
<glyph unicode="&#xe5;" horiz-adv-x="777" d="M119 161v5v532q0 189 136 292l317 240l37 -20v-966q0 -68 25.5 -125t93.5 -109l-29 -41q-112 83 -133 201l-266 -201q-122 22 -166 117q-15 32 -15 75zM169 166q0 -111 116 -143l275 207v935l-269 -209q-57 -44 -89.5 -103.5t-32.5 -154.5v-532zM238 1458q0 56 39.5 95.5 t95.5 39.5t95.5 -39.5t39.5 -95.5t-39.5 -95.5t-95.5 -39.5t-95.5 39.5t-39.5 95.5zM288 1458q0 -35 25 -60t60 -25t60 25t25 60t-25 60t-60 25t-60 -25t-25 -60z" />
<glyph unicode="&#xe6;" horiz-adv-x="1103" d="M119 162v5v531q0 189 136 292l317 240l37 -20v-203q34 57 99 102l174 121l160 -303l-432 -326v-329q0 -186 169 -246l202 157l30 -42l-219 -171q-178 51 -220 204l-272 -204q-122 22 -166 117q-15 32 -15 75zM169 167q0 -111 116 -143l275 207v934l-269 -209 q-57 -44 -89.5 -103.5t-32.5 -154.5v-531zM610 664l372 275l-116 221l-129 -92q-127 -88 -127 -270v-134z" />
<glyph unicode="&#xe7;" horiz-adv-x="658" d="M124 272v526q0 105 33.5 179.5t114.5 131.5l174 121l156 -296l-36 -22l-136 248l-129 -92q-127 -88 -127 -270v-526q0 -186 169 -246l202 157l30 -42l-219 -171l-1 1l-57 -46q48 -12 77 -52t29 -82q0 -77 -46.5 -122t-112.5 -45v50q44 0 76.5 31t32.5 76t-33 75.5 t-97 30.5l-10 36l85 68q-175 80 -175 281z" />
<glyph unicode="&#xe8;" horiz-adv-x="666" d="M91 1534l43 59l278 -203l-27 -44zM123 272v526q0 105 33.5 179.5t114.5 131.5l174 121l160 -303l-432 -326v-329q0 -186 169 -246l202 157l30 -42l-219 -171q-109 32 -170.5 107.5t-61.5 194.5zM173 664l372 275l-116 221l-129 -92q-127 -88 -127 -270v-134z" />
<glyph unicode="&#xe9;" horiz-adv-x="666" d="M123 272v526q0 105 33.5 179.5t114.5 131.5l174 121l160 -303l-432 -326v-329q0 -186 169 -246l202 157l30 -42l-219 -171q-109 32 -170.5 107.5t-61.5 194.5zM173 664l372 275l-116 221l-129 -92q-127 -88 -127 -270v-134zM288 1390l278 203l43 -59l-294 -188z" />
<glyph unicode="&#xea;" horiz-adv-x="666" d="M25 1388l266 208l332 -207l-26 -42l-302 188l-240 -187zM123 272v526q0 105 33.5 179.5t114.5 131.5l174 121l160 -303l-432 -326v-329q0 -186 169 -246l202 157l30 -42l-219 -171q-109 32 -170.5 107.5t-61.5 194.5zM173 664l372 275l-116 221l-129 -92 q-127 -88 -127 -270v-134z" />
<glyph unicode="&#xeb;" horiz-adv-x="667" d="M123 272v526q0 105 33.5 179.5t114.5 131.5l174 121l160 -303l-432 -326v-329q0 -186 169 -246l202 157l30 -42l-219 -171q-109 32 -170.5 107.5t-61.5 194.5zM173 664l372 275l-116 221l-129 -92q-127 -88 -127 -270v-134zM225 1356l76 182l61 -25l-90 -172zM504 1356 l76 182l61 -25l-90 -172z" />
<glyph unicode="&#xec;" horiz-adv-x="370" d="M-151 1534l43 59l278 -203l-27 -44zM153 244v956h49v-956q0 -68 25.5 -125t93.5 -109l-29 -41q-139 104 -139 275z" />
<glyph unicode="&#xed;" horiz-adv-x="371" d="M154 244v956h49v-956q0 -68 25.5 -125t93.5 -109l-29 -41q-139 104 -139 275zM177 1390l278 203l43 -59l-294 -188z" />
<glyph unicode="&#xee;" horiz-adv-x="371" d="M-85 1388l266 208l332 -207l-26 -42l-302 188l-240 -187zM154 244v956h49v-956q0 -68 25.5 -125t93.5 -109l-29 -41q-139 104 -139 275z" />
<glyph unicode="&#xef;" horiz-adv-x="371" d="M-1 1356l76 182l61 -25l-90 -172zM154 244v956h49v-956q0 -68 25.5 -125t93.5 -109l-29 -41q-139 104 -139 275zM278 1356l76 182l61 -25l-90 -172z" />
<glyph unicode="&#xf0;" horiz-adv-x="708" d="M44 1172l116 90q-68 97 -68 209.5t64 190.5q18 22 35 34l28 -41q-78 -50 -78 -186q0 -94 58 -177l283 221l24 -34l-282 -220q52 -63 130.5 -128.5t123.5 -111.5q153 -156 153 -361q-1 -146 -27 -220q-47 -132 -147 -225l-262 -244l-54 17v866q0 65 35 102l136 151 q-70 57 -127 124l-117 -91zM191 31l233 215q137 124 153 301q5 55 5 119q0 119 -65 223.5t-167 184.5l-137 -152q-22 -24 -22 -70v-821z" />
<glyph unicode="&#xf1;" horiz-adv-x="827" d="M45 1366q59 112 155 146q33 12 64 12q44 0 82 -24q36 -23 69.5 -50t68 -48.5t64.5 -21.5q51 0 99 42.5t78 96.5l44 -24q-56 -106 -153 -151q-30 -14 -80.5 -14t-150.5 81q-29 24 -58 43t-71.5 19t-89.5 -37t-77 -94zM67 1188l28 42q116 -79 116 -230l289 226 q184 -202 184 -428q0 -88 -16 -270.5t-16 -276.5q0 -140 118 -234l-30 -40q-112 86 -132 198q-6 36 -6 90q0 78 16 260t16 255q0 206 -141 377l-282 -220v-937h-50v998q0 125 -94 190z" />
<glyph unicode="&#xf2;" horiz-adv-x="741" d="M57 1534l43 59l278 -203l-27 -44zM131 -4v834q0 157 109 239l211 160q170 -113 170 -266v-539q0 -101 -51 -159q-22 -25 -58 -52l-327 -244zM181 27l303 221q52 38 70 80.5t18 95.5v539q0 119 -121 205l-182 -140q-88 -66 -88 -198v-803z" />
<glyph unicode="&#xf3;" horiz-adv-x="741" d="M131 -4v834q0 157 109 239l211 160q170 -113 170 -266v-539q0 -101 -51 -159q-22 -25 -58 -52l-327 -244zM181 27l303 221q52 38 70 80.5t18 95.5v539q0 119 -121 205l-182 -140q-88 -66 -88 -198v-803zM362 1390l278 203l43 -59l-294 -188z" />
<glyph unicode="&#xf4;" horiz-adv-x="741" d="M100 1388l266 208l332 -207l-26 -42l-302 188q-8 -7 -24 -19l-216 -168zM131 -4v834q0 157 109 239l211 160q170 -113 170 -266v-539q0 -101 -51 -159q-22 -25 -58 -52l-327 -244zM181 27l303 221q52 38 70 80.5t18 95.5v539q0 119 -121 205l-182 -140q-88 -66 -88 -198 v-803z" />
<glyph unicode="&#xf5;" horiz-adv-x="741" d="M0 1366q59 112 155 146q33 12 64 12q43 0 81 -24q36 -23 70 -50t68 -48q36 -22 66 -22q52 0 99.5 42.5t76.5 96.5l44 -24q-56 -106 -153 -151q-31 -14 -81.5 -14t-149.5 81q-29 24 -58 43t-71.5 19t-89.5 -37t-77 -94zM131 -4v834q0 157 109 239l211 160 q170 -113 170 -266v-539q0 -101 -51 -159q-22 -25 -58 -52l-327 -244zM181 27l303 221q52 38 70 80.5t18 95.5v539q0 119 -121 205l-182 -140q-88 -66 -88 -198v-803z" />
<glyph unicode="&#xf6;" horiz-adv-x="741" d="M131 -4v834q0 157 109 239l211 160q170 -113 170 -266v-539q0 -101 -51 -159q-22 -25 -58 -52l-327 -244zM181 27l303 221q52 38 70 80.5t18 95.5v539q0 119 -121 205l-182 -140q-88 -66 -88 -198v-803zM234 1356l76 182l61 -25l-90 -172zM513 1356l76 182l61 -25 l-90 -172z" />
<glyph unicode="&#xf7;" horiz-adv-x="1100" d="M119 681v44h860v-44h-860zM445 380l90 172l47 -15l-76 -182zM488 869l76 182l61 -25l-90 -172z" />
<glyph unicode="&#xf8;" horiz-adv-x="817" d="M-13 338l178 139v353q0 157 109 239l211 160q170 -113 170 -266v-103l143 112l30 -40l-173 -135v-373q0 -101 -51 -159q-22 -25 -58 -52l-327 -244l-54 27v417l-148 -115zM215 27l303 221q52 38 70 80.5t18 95.5v334l-391 -306v-425zM215 516l391 306v141q0 119 -121 205 l-182 -140q-88 -66 -88 -198v-314z" />
<glyph unicode="&#xf9;" horiz-adv-x="826" d="M56 1211l30 40q112 -86 132 -198q6 -36 6 -90q0 -77 -16 -274t-16 -271q0 -212 141 -377l282 219v968h50v-1022q0 -100 61 -162q17 -18 33 -28l-28 -42q-73 44 -104 144q-11 36 -12 79l-289 -225q-184 202 -184 428q0 87 16 284.5t16 292.5q0 141 -118 234zM69 1527 l43 59l278 -203l-27 -44z" />
<glyph unicode="&#xfa;" horiz-adv-x="826" d="M56 1211l30 40q112 -86 132 -198q6 -36 6 -90q0 -77 -16 -274t-16 -271q0 -212 141 -377l282 219v968h50v-1022q0 -100 61 -162q17 -18 33 -28l-28 -42q-73 44 -104 144q-11 36 -12 79l-289 -225q-184 202 -184 428q0 87 16 284.5t16 292.5q0 141 -118 234zM387 1390 l278 203l43 -59l-294 -188z" />
<glyph unicode="&#xfb;" horiz-adv-x="826" d="M56 1211l30 40q112 -86 132 -198q6 -36 6 -90q0 -77 -16 -274t-16 -271q0 -212 141 -377l282 219v968h50v-1022q0 -100 61 -162q17 -18 33 -28l-28 -42q-73 44 -104 144q-11 36 -12 79l-289 -225q-184 202 -184 428q0 87 16 284.5t16 292.5q0 141 -118 234zM111 1388 l266 208l332 -207l-26 -42l-302 188l-240 -187z" />
<glyph unicode="&#xfc;" horiz-adv-x="826" d="M56 1211l30 40q112 -86 132 -198q6 -36 6 -90q0 -77 -16 -274t-16 -271q0 -212 141 -377l282 219v968h50v-1022q0 -100 61 -162q17 -18 33 -28l-28 -42q-73 44 -104 144q-11 36 -12 79l-289 -225q-184 202 -184 428q0 87 16 284.5t16 292.5q0 141 -118 234zM238 1356 l76 182l61 -25l-90 -172zM517 1356l76 182l61 -25l-90 -172z" />
<glyph unicode="&#xfd;" horiz-adv-x="814" d="M47 -165q1 68 37 106t87 38h3h3q50 0 87 -37q38 -38 37 -90h-50q0 32 -22.5 54.5t-54.5 22.5t-54.5 -22.5t-22.5 -61.5q0 -78 95 -116q76 -31 164 -31q155 0 245.5 81.5t90.5 208.5q0 74 -29 142l-46 107q-17 38 -25 79l-251 -201l-36 23q-80 49 -158 79v845q1 52 -41 94 q-16 16 -38 35l34 38q78 -69 90 -121q4 -20 5 -46v-813q78 -36 143 -75l246 199v491q0 136 -106 250l-71 77l37 36l70 -78q74 -79 97 -149.5t23 -135.5v-483q0 -47 16.5 -91t36.5 -90q53 -123 53 -207q0 -156 -103.5 -250.5t-257.5 -94.5q-222 0 -303 104q-31 40 -31 83z M356 1390l278 203l43 -59l-294 -188z" />
<glyph unicode="&#xfe;" horiz-adv-x="754" d="M163 -352v1702h3q20 173 150 288q40 35 84 59l24 -44q-146 -81 -194 -241q-16 -54 -17 -116v-263l237 196q203 -224 203 -549q0 -161 -27 -246q-51 -162 -161 -256l-252 -213v-317h-50zM213 31l219 180q154 125 168 349q4 64 4 126q0 135 -39.5 260t-118.5 215l-233 -193 v-937z" />
<glyph unicode="&#xff;" horiz-adv-x="814" d="M47 -165q1 68 37 106t87 38h3h3q50 0 87 -37q38 -38 37 -90h-50q0 32 -22.5 54.5t-54.5 22.5t-54.5 -22.5t-22.5 -61.5q0 -78 95 -116q76 -31 164 -31q155 0 245.5 81.5t90.5 208.5q0 74 -29 142l-46 107q-17 38 -25 79l-251 -201l-36 23q-80 49 -158 79v845q1 52 -41 94 q-16 16 -38 35l34 38q78 -69 90 -121q4 -20 5 -46v-813q78 -36 143 -75l246 199v491q0 136 -106 250l-71 77l37 36l70 -78q74 -79 97 -149.5t23 -135.5v-483q0 -47 16.5 -91t36.5 -90q53 -123 53 -207q0 -156 -103.5 -250.5t-257.5 -94.5q-222 0 -303 104q-31 40 -31 83z M221 1356l76 182l61 -25l-90 -172zM500 1356l76 182l61 -25l-90 -172z" />
<glyph unicode="&#x152;" horiz-adv-x="2765" d="M27 706h50q0 -68 48.5 -116.5t116.5 -48.5q69 0 117.5 48.5t48.5 113t-14.5 108.5t-36 79t-46.5 66t-47 66q-50 82 -50 184q0 362 574 362q307 0 532 -203q71 -64 124 -142q82 252 240 322q48 21 90 21q79 0 128.5 -43t49.5 -107l104 129q85 -254 254 -254h3 q96 -1 152 69q57 70 57 181h50q0 -205 -152 -277q-48 -23 -106 -23q-101 0 -171 58.5t-106 143.5l-139 -173q-52 -63 -52 -111.5t16 -78.5q31 -56 106 -101l73 -42q122 -68 179 -120q34 101 65 142q61 79 140 79q59 0 99.5 -35t62.5 -35q59 0 59 124h50q0 -80 -15 -112 q-29 -62 -94 -62q-37 0 -66.5 24t-48.5 35t-50 11q-57 0 -95.5 -59t-67.5 -155q60 -80 60 -187t-72 -192t-193 -85t-192.5 67.5t-71.5 165.5t52 170l38 -29q-40 -56 -40 -114q0 -102 57.5 -156t156 -54t156.5 70t59 147q0 73 -23 117q-23 46 -66 88q-44 42 -124 88 q-149 84 -191 126q-69 67 -69 145.5t40 130.5l22 29q33 40 38 67q6 26 6 48q0 42 -34 72q-35 28 -93.5 28t-120.5 -45t-112 -137q-110 -204 -110 -559t187 -552q165 -174 397.5 -174t399.5 147q130 114 203 304l46 -18q-123 -323 -405 -439q-106 -44 -216 -44 q-198 0 -350 95t-234 278q-104 -169 -281 -270.5t-394 -101.5t-403.5 114.5t-284.5 301.5l44 24q94 -177 269 -283.5t380.5 -106.5t378.5 103.5t268 277.5q-55 154 -55 354t43 374q-96 163 -267.5 261t-369.5 98q-524 0 -524 -310q0 -122 97 -238t97 -264q0 -90 -64 -152.5 t-152 -62.5q-89 0 -152 63t-63 152z" />
<glyph unicode="&#x153;" horiz-adv-x="1115" d="M131 -3v833q0 157 109 239l211 160q149 -99 167 -227q34 58 102 107l174 121l160 -303l-432 -326v-329q0 -186 169 -246l202 157l30 -42l-219 -171q-228 67 -232 298q-18 -23 -60 -54l-327 -244zM181 28l303 221q52 38 70 80t18 95v539q0 119 -121 205l-182 -140 q-88 -66 -88 -198v-802zM622 664l372 275l-116 221l-129 -92q-127 -88 -127 -270v-134z" />
<glyph unicode="&#x2c6;" horiz-adv-x="729" d="M98 1388l266 208l332 -207l-26 -42l-302 188q-8 -7 -24 -19l-216 -168z" />
<glyph unicode="&#x2dc;" horiz-adv-x="770" d="M18 1366q59 112 155 146q33 12 64 12q43 0 81 -24q36 -23 70 -50t68 -48q36 -22 66 -22q52 0 99.5 42.5t76.5 96.5l44 -24q-56 -106 -153 -151q-31 -14 -81.5 -14t-149.5 81q-29 24 -58 43t-71.5 19t-89.5 -37t-77 -94z" />
<glyph unicode="&#x2000;" horiz-adv-x="967" />
<glyph unicode="&#x2001;" horiz-adv-x="1934" />
<glyph unicode="&#x2002;" horiz-adv-x="967" />
<glyph unicode="&#x2003;" horiz-adv-x="1934" />
<glyph unicode="&#x2004;" horiz-adv-x="644" />
<glyph unicode="&#x2005;" horiz-adv-x="483" />
<glyph unicode="&#x2006;" horiz-adv-x="322" />
<glyph unicode="&#x2007;" horiz-adv-x="322" />
<glyph unicode="&#x2008;" horiz-adv-x="241" />
<glyph unicode="&#x2009;" horiz-adv-x="386" />
<glyph unicode="&#x200a;" horiz-adv-x="107" />
<glyph unicode="&#x2010;" horiz-adv-x="778" d="M145 556v50l488 123v-50z" />
<glyph unicode="&#x2011;" horiz-adv-x="778" d="M145 556v50l488 123v-50z" />
<glyph unicode="&#x2012;" horiz-adv-x="778" d="M145 556v50l488 123v-50z" />
<glyph unicode="&#x2013;" horiz-adv-x="1032" d="M229 558v50h749v-50h-749z" />
<glyph unicode="&#x2014;" horiz-adv-x="1467" d="M229 558v50h1184v-50h-1184z" />
<glyph unicode="&#x2018;" horiz-adv-x="365" d="M87 1239q0 47 11 75q22 60 75 118l55 60l36 -34l-50 -54q-78 -84 -78 -152t60 -92q20 -8 50 -9v-50q-76 0 -117 42q-42 43 -42 96z" />
<glyph unicode="&#x2019;" horiz-adv-x="357" d="M99 1135l49 53q78 86 78 154t-60 92q-20 8 -49 8v50q77 0 118 -42t41 -92q0 -106 -86 -198l-55 -59z" />
<glyph unicode="&#x201a;" horiz-adv-x="373" d="M105 -210l49 54q78 86 78 153t-60 91q-20 8 -49 9v50q77 0 118 -42t41 -91.5t-11 -79.5q-22 -60 -75 -118l-55 -60z" />
<glyph unicode="&#x201c;" horiz-adv-x="564" d="M87 1239q0 47 11 75q22 60 75 118l55 60l36 -34l-50 -54q-78 -84 -78 -152t60 -92q20 -8 50 -9v-50q-76 0 -117 42q-42 43 -42 96zM286 1234.5q0 49.5 11 79.5q22 60 75 118l55 60l36 -34l-49 -54q-78 -84 -78 -152t60 -92q20 -8 49 -9v-50q-77 0 -118 42t-41 91.5z" />
<glyph unicode="&#x201d;" horiz-adv-x="556" d="M99 1135l49 53q78 86 78 154t-60 92q-20 8 -49 8v50q77 0 118 -42t41 -92q0 -106 -86 -198l-55 -59zM298 1135l49 53q78 86 79 155q0 67 -60 91q-20 8 -50 8v50q76 0 117 -42q42 -43 42 -94q0 -104 -86 -196l-55 -59z" />
<glyph unicode="&#x201e;" horiz-adv-x="572" d="M105 -210l49 54q78 86 78 153t-60 91q-20 8 -49 9v50q77 0 118 -42t41 -91.5t-11 -79.5q-22 -60 -75 -118l-55 -60zM304 -210l49 54q78 86 79 154q0 66 -60 90q-20 8 -50 9v50q76 0 117 -42q42 -43 42 -96q0 -47 -11 -75q-22 -60 -75 -118l-55 -60z" />
<glyph unicode="&#x2022;" horiz-adv-x="575" d="M60 730q112 42 156 86t72 142q35 -96 77 -138t150 -90q-107 -48 -149 -90t-78 -138q-28 97 -72 141t-156 87z" />
<glyph unicode="&#x202f;" horiz-adv-x="386" />
<glyph unicode="&#x2039;" horiz-adv-x="472" d="M77 503l248 419l44 -26l-233 -395l223 -389l-44 -24z" />
<glyph unicode="&#x203a;" horiz-adv-x="472" d="M103 896l44 26l248 -419l-238 -415l-44 24l223 389z" />
<glyph unicode="&#x205f;" horiz-adv-x="483" />
<glyph unicode="&#x25fc;" horiz-adv-x="1230" d="M0 0v1230h1230v-1230h-1230z" />
</font>
</defs>
</svg>
