<?xml version="1.0" encoding="utf-8"?>
<!-- Generator: Adobe Illustrator 16.0.0, SVG Export Plug-In . SVG Version: 6.00 Build 0)  -->
<!DOCTYPE svg PUBLIC "-//W3C//DTD SVG 1.1//EN" "http://www.w3.org/Graphics/SVG/1.1/DTD/svg11.dtd">
<svg version="1.1" id="Layer_1" xmlns="http://www.w3.org/2000/svg" xmlns:xlink="http://www.w3.org/1999/xlink" x="0px" y="0px"
	 width="1500px" height="1500px" viewBox="0 0 1500 1500" enable-background="new 0 0 1500 1500" xml:space="preserve">
<path fill="#0059B2" d="M1484.356,760.218c0-261.651-212.125-473.775-473.777-473.775c-261.651,0-473.777,212.123-473.777,473.775
	c0,261.653,212.125,473.78,473.777,473.78C1272.232,1233.998,1484.356,1021.871,1484.356,760.218z"/>
<polygon fill="#FFE300" points="1013.727,213.951 18.628,743.474 1013.727,1317.682 "/>
<polygon fill="#008C23" points="1016.754,340.223 1016.754,340.427 1016.854,340.323 "/>
<path fill="#008C23" d="M1016.754,340.427c-5.998,5.835-126.744,124.767-120.549,259.781
	c6.356,138.444,20.668,242.526,20.668,242.526h99.881h0.226h99.881c0,0,14.314-104.083,20.665-242.526
	c6.197-135.037-114.574-253.968-120.546-259.759l-0.126-0.126L1016.754,340.427z"/>
<polygon fill="#008C23" points="1016.854,340.323 1016.979,340.45 1016.979,340.223 "/>
<path fill="#008C23" d="M851.698,1011.73l79.465-49.14l11.113,11.086c0,0,4.793,32.884,17.493,38.054
	c12.727,5.149,57.21,7.915,57.21,7.915s44.513-2.766,57.214-7.915c12.703-5.17,17.494-38.054,17.494-38.054l11.113-11.086
	l79.466,49.14l12.701-95.111l-77.877-79.265h-100.111H916.873l-77.879,79.265L851.698,1011.73z"/>
<path fill="#238C00" d="M947.836,1045.484c0,0-6.609,33.804,7.963,77.674c14.549,43.844,65.15,90.35,65.15,90.35v-57.056
	c-66.229-52.858-58.801-101.47-58.801-101.47L947.836,1045.484z"/>
<path fill="#238C00" d="M1018.646,1156.452v57.056c0,0,50.604-46.505,65.176-90.35c14.573-43.869,7.938-77.674,7.938-77.674
	l-14.315,9.498C1077.444,1054.982,1084.871,1103.594,1018.646,1156.452z"/>
</svg>
